%TF.GenerationSoftware,KiCad,Pcbnew,10.0.2*%
%TF.CreationDate,2026-05-13T13:08:24+02:00*%
%TF.ProjectId,OpenRX-all,4f70656e-5258-42d6-916c-6c2e6b696361,rev?*%
%TF.SameCoordinates,Original*%
%TF.FileFunction,Legend,Top*%
%TF.FilePolarity,Positive*%
%FSLAX46Y46*%
G04 Gerber Fmt 4.6, Leading zero omitted, Abs format (unit mm)*
G04 Created by KiCad (PCBNEW 10.0.2) date 2026-05-13 13:08:24*
%MOMM*%
%LPD*%
G01*
G04 APERTURE LIST*
%ADD10C,0.150000*%
%ADD11C,0.200000*%
%ADD12C,0.250000*%
%ADD13C,0.240000*%
%ADD14C,0.120000*%
%ADD15C,0.100000*%
%ADD16C,0.060000*%
%ADD17C,0.180000*%
%ADD18C,0.500000*%
G04 APERTURE END LIST*
D10*
G36*
X146052098Y-114573666D02*
G01*
X146084726Y-114587020D01*
X146114332Y-114609665D01*
X146137400Y-114638825D01*
X146151056Y-114671501D01*
X146155731Y-114708888D01*
X146155731Y-115001064D01*
X146151039Y-115037484D01*
X146137235Y-115069731D01*
X146113721Y-115098944D01*
X146092716Y-115117079D01*
X146190780Y-115550000D01*
X146022679Y-115550000D01*
X145929440Y-115139672D01*
X145909534Y-115139672D01*
X145909534Y-115550000D01*
X145745708Y-115550000D01*
X145745708Y-114975724D01*
X145909534Y-114975724D01*
X145969190Y-114975724D01*
X145984822Y-114968824D01*
X145991905Y-114952154D01*
X145991905Y-114755233D01*
X145984822Y-114739357D01*
X145969190Y-114733068D01*
X145909534Y-114733068D01*
X145909534Y-114975724D01*
X145745708Y-114975724D01*
X145745708Y-114569120D01*
X146015352Y-114569120D01*
X146052098Y-114573666D01*
G37*
G36*
X146659848Y-114918143D02*
G01*
X146655116Y-114955447D01*
X146641274Y-114988079D01*
X146617838Y-115017245D01*
X146577233Y-115057728D01*
X146617838Y-115098517D01*
X146641258Y-115127881D01*
X146655109Y-115160775D01*
X146659848Y-115198412D01*
X146659848Y-115550000D01*
X146496022Y-115550000D01*
X146496022Y-115159333D01*
X146490343Y-115145350D01*
X146477582Y-115139672D01*
X146432091Y-115139672D01*
X146418597Y-115145350D01*
X146413651Y-115159333D01*
X146413651Y-115550000D01*
X146249825Y-115550000D01*
X146249825Y-115198412D01*
X146254430Y-115160680D01*
X146267851Y-115127780D01*
X146290431Y-115098517D01*
X146331036Y-115057728D01*
X146290431Y-115017245D01*
X146267836Y-114988180D01*
X146254424Y-114955542D01*
X146249825Y-114918143D01*
X146249825Y-114569120D01*
X146413651Y-114569120D01*
X146413651Y-114957650D01*
X146418597Y-114970167D01*
X146432091Y-114975724D01*
X146477582Y-114975724D01*
X146490343Y-114970167D01*
X146496022Y-114957650D01*
X146496022Y-114569120D01*
X146659848Y-114569120D01*
X146659848Y-114918143D01*
G37*
G36*
X153520742Y-114893902D02*
G01*
X153356916Y-114893902D01*
X153356916Y-114756638D01*
X153349833Y-114740029D01*
X153332797Y-114733068D01*
X153298725Y-114733068D01*
X153281689Y-114740090D01*
X153274545Y-114756882D01*
X153274545Y-115362116D01*
X153281628Y-115379030D01*
X153298725Y-115386051D01*
X153332797Y-115386051D01*
X153349833Y-115379030D01*
X153356916Y-115362116D01*
X153356916Y-115139672D01*
X153315761Y-115139672D01*
X153315761Y-114975724D01*
X153520742Y-114975724D01*
X153520742Y-115409255D01*
X153516057Y-115446931D01*
X153502374Y-115479849D01*
X153479282Y-115509211D01*
X153449659Y-115532002D01*
X153417032Y-115545431D01*
X153380302Y-115550000D01*
X153251098Y-115550000D01*
X153213489Y-115545398D01*
X153180669Y-115531981D01*
X153151447Y-115509394D01*
X153128786Y-115480202D01*
X153115332Y-115447423D01*
X153110719Y-115409865D01*
X153110719Y-114709255D01*
X153115333Y-114671699D01*
X153128788Y-114638941D01*
X153151447Y-114609787D01*
X153180673Y-114587163D01*
X153213493Y-114573727D01*
X153251098Y-114569120D01*
X153380302Y-114569120D01*
X153417056Y-114573654D01*
X153449685Y-114586971D01*
X153479282Y-114609542D01*
X153502389Y-114638630D01*
X153516062Y-114671223D01*
X153520742Y-114708522D01*
X153520742Y-114893902D01*
G37*
G36*
X153861033Y-114569120D02*
G01*
X154024859Y-114569120D01*
X154024859Y-115550000D01*
X153861033Y-115550000D01*
X153778662Y-115136618D01*
X153778662Y-115550000D01*
X153614836Y-115550000D01*
X153614836Y-114569120D01*
X153778662Y-114569120D01*
X153861033Y-114986714D01*
X153861033Y-114569120D01*
G37*
G36*
X154427289Y-114573677D02*
G01*
X154459917Y-114587069D01*
X154489531Y-114609787D01*
X154512592Y-114638989D01*
X154526252Y-114671744D01*
X154530930Y-114709255D01*
X154530930Y-115409865D01*
X154526254Y-115447378D01*
X154512594Y-115480154D01*
X154489531Y-115509394D01*
X154459922Y-115532075D01*
X154427293Y-115545448D01*
X154390552Y-115550000D01*
X154120908Y-115550000D01*
X154120908Y-115386051D01*
X154284734Y-115386051D01*
X154344390Y-115386051D01*
X154360021Y-115379762D01*
X154367104Y-115363642D01*
X154367104Y-114755478D01*
X154360021Y-114739419D01*
X154344390Y-114733068D01*
X154284734Y-114733068D01*
X154284734Y-115386051D01*
X154120908Y-115386051D01*
X154120908Y-114569120D01*
X154390552Y-114569120D01*
X154427289Y-114573677D01*
G37*
G36*
X148289127Y-114569120D02*
G01*
X148699455Y-114569120D01*
X148699455Y-114733068D01*
X148574403Y-114733068D01*
X148574403Y-115550000D01*
X148410577Y-115550000D01*
X148410577Y-114733068D01*
X148289127Y-114733068D01*
X148289127Y-114569120D01*
G37*
G36*
X149149534Y-114918143D02*
G01*
X149144802Y-114955447D01*
X149130960Y-114988079D01*
X149107524Y-115017245D01*
X149066919Y-115057728D01*
X149107524Y-115098517D01*
X149130944Y-115127881D01*
X149144795Y-115160775D01*
X149149534Y-115198412D01*
X149149534Y-115550000D01*
X148985708Y-115550000D01*
X148985708Y-115157929D01*
X148980029Y-115145289D01*
X148967268Y-115139672D01*
X148921777Y-115139672D01*
X148908283Y-115145350D01*
X148903337Y-115157990D01*
X148903337Y-115550000D01*
X148739511Y-115550000D01*
X148739511Y-115198412D01*
X148744116Y-115160680D01*
X148757537Y-115127780D01*
X148780117Y-115098517D01*
X148820722Y-115057728D01*
X148780117Y-115017245D01*
X148757522Y-114988180D01*
X148744110Y-114955542D01*
X148739511Y-114918143D01*
X148739511Y-114569120D01*
X148903337Y-114569120D01*
X148903337Y-114956245D01*
X148908283Y-114970167D01*
X148921777Y-114975724D01*
X148967268Y-114975724D01*
X148980029Y-114970167D01*
X148985708Y-114956245D01*
X148985708Y-114569120D01*
X149149534Y-114569120D01*
X149149534Y-114918143D01*
G37*
G36*
X150967064Y-115550000D02*
G01*
X150929423Y-115545385D01*
X150896584Y-115531928D01*
X150867352Y-115509272D01*
X150844735Y-115480043D01*
X150831296Y-115447184D01*
X150826685Y-115409499D01*
X150826685Y-115222714D01*
X150990511Y-115222714D01*
X150990511Y-115360711D01*
X150992339Y-115371087D01*
X150997594Y-115379030D01*
X151005599Y-115384234D01*
X151016095Y-115386051D01*
X151047297Y-115386051D01*
X151065066Y-115379030D01*
X151070891Y-115371026D01*
X151072882Y-115360711D01*
X151072882Y-115165012D01*
X151070998Y-115155824D01*
X151065127Y-115147426D01*
X151056771Y-115141561D01*
X151047542Y-115139672D01*
X150826685Y-115139672D01*
X150826685Y-114569120D01*
X151236708Y-114569120D01*
X151236708Y-114733068D01*
X150990511Y-114733068D01*
X150990511Y-114975724D01*
X151096024Y-114975724D01*
X151132832Y-114980300D01*
X151165519Y-114993750D01*
X151195187Y-115016573D01*
X151218390Y-115045873D01*
X151232054Y-115078323D01*
X151236708Y-115115064D01*
X151236708Y-115409255D01*
X151232022Y-115446931D01*
X151218340Y-115479849D01*
X151195248Y-115509211D01*
X151165625Y-115532002D01*
X151132998Y-115545431D01*
X151096268Y-115550000D01*
X150967064Y-115550000D01*
G37*
G36*
X151577976Y-114569120D02*
G01*
X151741802Y-114569120D01*
X151741802Y-115296353D01*
X151737059Y-115347469D01*
X151723193Y-115393777D01*
X151700203Y-115436297D01*
X151667369Y-115475750D01*
X151627870Y-115508490D01*
X151585284Y-115531426D01*
X151538889Y-115545265D01*
X151487667Y-115550000D01*
X151331779Y-115550000D01*
X151331779Y-114569120D01*
X151495605Y-114569120D01*
X151495605Y-115386051D01*
X151527208Y-115380090D01*
X151553796Y-115362238D01*
X151571945Y-115335934D01*
X151577976Y-115304780D01*
X151577976Y-114569120D01*
G37*
D11*
G36*
X179773176Y-114560213D02*
G01*
X180187412Y-114560213D01*
X180187412Y-114728069D01*
X180062360Y-114728069D01*
X180062360Y-115545000D01*
X179894626Y-115545000D01*
X179894626Y-114728069D01*
X179773176Y-114728069D01*
X179773176Y-114560213D01*
G37*
G36*
X180637491Y-114911190D02*
G01*
X180632689Y-114949037D01*
X180618646Y-114982130D01*
X180594870Y-115011696D01*
X180555669Y-115050775D01*
X180594870Y-115090159D01*
X180618630Y-115119923D01*
X180632682Y-115153279D01*
X180637491Y-115191459D01*
X180637491Y-115545000D01*
X180469757Y-115545000D01*
X180469757Y-115150976D01*
X180464628Y-115139741D01*
X180453271Y-115134673D01*
X180407780Y-115134673D01*
X180395690Y-115139741D01*
X180391294Y-115151037D01*
X180391294Y-115545000D01*
X180223560Y-115545000D01*
X180223560Y-115191459D01*
X180228226Y-115153219D01*
X180241828Y-115119855D01*
X180264715Y-115090159D01*
X180303977Y-115050775D01*
X180264715Y-115011696D01*
X180241813Y-114982199D01*
X180228219Y-114949097D01*
X180223560Y-114911190D01*
X180223560Y-114560213D01*
X180391294Y-114560213D01*
X180391294Y-114949292D01*
X180395690Y-114961871D01*
X180407780Y-114966817D01*
X180453271Y-114966817D01*
X180464689Y-114961871D01*
X180469757Y-114949292D01*
X180469757Y-114560213D01*
X180637491Y-114560213D01*
X180637491Y-114911190D01*
G37*
D10*
X183700000Y-114150000D02*
X185500000Y-114150000D01*
D11*
G36*
X183704650Y-114888903D02*
G01*
X183536916Y-114888903D01*
X183536916Y-114749685D01*
X183530383Y-114734481D01*
X183514751Y-114728069D01*
X183480679Y-114728069D01*
X183464987Y-114734542D01*
X183458453Y-114749929D01*
X183458453Y-115355163D01*
X183464987Y-115370733D01*
X183480679Y-115377145D01*
X183514751Y-115377145D01*
X183530383Y-115370733D01*
X183536916Y-115355163D01*
X183536916Y-115134673D01*
X183495761Y-115134673D01*
X183495761Y-114966817D01*
X183704650Y-114966817D01*
X183704650Y-115402302D01*
X183699902Y-115440484D01*
X183686038Y-115473845D01*
X183662640Y-115503601D01*
X183632581Y-115526737D01*
X183599490Y-115540365D01*
X183562256Y-115545000D01*
X183433052Y-115545000D01*
X183394939Y-115540332D01*
X183361655Y-115526716D01*
X183331996Y-115503785D01*
X183309030Y-115474198D01*
X183295394Y-115440977D01*
X183290719Y-115402912D01*
X183290719Y-114702302D01*
X183295394Y-114664237D01*
X183309030Y-114631016D01*
X183331996Y-114601429D01*
X183361655Y-114578498D01*
X183394939Y-114564881D01*
X183433052Y-114560213D01*
X183562256Y-114560213D01*
X183599514Y-114564814D01*
X183632607Y-114578330D01*
X183662640Y-114601246D01*
X183686053Y-114630728D01*
X183699908Y-114663764D01*
X183704650Y-114701569D01*
X183704650Y-114888903D01*
G37*
G36*
X184041033Y-114560213D02*
G01*
X184208767Y-114560213D01*
X184208767Y-115545000D01*
X184041400Y-115545000D01*
X183960616Y-115129666D01*
X183962570Y-115545000D01*
X183794836Y-115545000D01*
X183794836Y-114560213D01*
X183962204Y-114560213D01*
X184042987Y-114979761D01*
X184041033Y-114560213D01*
G37*
G36*
X184609750Y-114564833D02*
G01*
X184642820Y-114578406D01*
X184672828Y-114601429D01*
X184696234Y-114631068D01*
X184710093Y-114664286D01*
X184714838Y-114702302D01*
X184714838Y-115402912D01*
X184710093Y-115440927D01*
X184696234Y-115474146D01*
X184672828Y-115503785D01*
X184642820Y-115526808D01*
X184609750Y-115540381D01*
X184572506Y-115545000D01*
X184300908Y-115545000D01*
X184300908Y-115377145D01*
X184468641Y-115377145D01*
X184526344Y-115377145D01*
X184540632Y-115371405D01*
X184547104Y-115356689D01*
X184547104Y-114748525D01*
X184540632Y-114733870D01*
X184526344Y-114728069D01*
X184468641Y-114728069D01*
X184468641Y-115377145D01*
X184300908Y-115377145D01*
X184300908Y-114560213D01*
X184572506Y-114560213D01*
X184609750Y-114564833D01*
G37*
D12*
G36*
X182006617Y-113349821D02*
G01*
X182039688Y-113363357D01*
X182069688Y-113386307D01*
X182093100Y-113415828D01*
X182106956Y-113448905D01*
X182111698Y-113486752D01*
X182111698Y-113696190D01*
X182106896Y-113734037D01*
X182092852Y-113767130D01*
X182069077Y-113796696D01*
X182029876Y-113835775D01*
X182069077Y-113875159D01*
X182092836Y-113904923D01*
X182106889Y-113938279D01*
X182111698Y-113976459D01*
X182111698Y-114187363D01*
X182106950Y-114225546D01*
X182093086Y-114258906D01*
X182069688Y-114288662D01*
X182039671Y-114311759D01*
X182006601Y-114325370D01*
X181969365Y-114330000D01*
X181697767Y-114330000D01*
X181697767Y-114162145D01*
X181865501Y-114162145D01*
X181921799Y-114162145D01*
X181937430Y-114155733D01*
X181943964Y-114141567D01*
X181943964Y-113941654D01*
X181937430Y-113926145D01*
X181921738Y-113919673D01*
X181865501Y-113919673D01*
X181865501Y-114162145D01*
X181697767Y-114162145D01*
X181697767Y-113751817D01*
X181865501Y-113751817D01*
X181921799Y-113751817D01*
X181937430Y-113745466D01*
X181943964Y-113730201D01*
X181943964Y-113533280D01*
X181937491Y-113518809D01*
X181921738Y-113513069D01*
X181865501Y-113513069D01*
X181865501Y-113751817D01*
X181697767Y-113751817D01*
X181697767Y-113345213D01*
X181969365Y-113345213D01*
X182006617Y-113349821D01*
G37*
G36*
X182496990Y-113349831D02*
G01*
X182530081Y-113363404D01*
X182560127Y-113386429D01*
X182583533Y-113416068D01*
X182597392Y-113449286D01*
X182602137Y-113487302D01*
X182602137Y-114187912D01*
X182597392Y-114225927D01*
X182583533Y-114259146D01*
X182560127Y-114288785D01*
X182530081Y-114311810D01*
X182496990Y-114325382D01*
X182459744Y-114330000D01*
X182330539Y-114330000D01*
X182292426Y-114325332D01*
X182259142Y-114311716D01*
X182229484Y-114288785D01*
X182206517Y-114259198D01*
X182192882Y-114225977D01*
X182188207Y-114187912D01*
X182188207Y-113533525D01*
X182355940Y-113533525D01*
X182355940Y-114141689D01*
X182361741Y-114156466D01*
X182376701Y-114162145D01*
X182412238Y-114162145D01*
X182427931Y-114156405D01*
X182434403Y-114141689D01*
X182434403Y-113533525D01*
X182427931Y-113518870D01*
X182412177Y-113513069D01*
X182376701Y-113513069D01*
X182361741Y-113518809D01*
X182355940Y-113533525D01*
X182188207Y-113533525D01*
X182188207Y-113487302D01*
X182192882Y-113449237D01*
X182206517Y-113416016D01*
X182229484Y-113386429D01*
X182259142Y-113363498D01*
X182292426Y-113349881D01*
X182330539Y-113345213D01*
X182459744Y-113345213D01*
X182496990Y-113349831D01*
G37*
G36*
X182995245Y-113349831D02*
G01*
X183028337Y-113363404D01*
X183058383Y-113386429D01*
X183081788Y-113416068D01*
X183095648Y-113449286D01*
X183100393Y-113487302D01*
X183100393Y-114187912D01*
X183095648Y-114225927D01*
X183081788Y-114259146D01*
X183058383Y-114288785D01*
X183028337Y-114311810D01*
X182995245Y-114325382D01*
X182957999Y-114330000D01*
X182828795Y-114330000D01*
X182790682Y-114325332D01*
X182757398Y-114311716D01*
X182727739Y-114288785D01*
X182704773Y-114259198D01*
X182691137Y-114225977D01*
X182686462Y-114187912D01*
X182686462Y-113533525D01*
X182854196Y-113533525D01*
X182854196Y-114141689D01*
X182859997Y-114156466D01*
X182874956Y-114162145D01*
X182910494Y-114162145D01*
X182926186Y-114156405D01*
X182932659Y-114141689D01*
X182932659Y-113533525D01*
X182926186Y-113518870D01*
X182910433Y-113513069D01*
X182874956Y-113513069D01*
X182859997Y-113518809D01*
X182854196Y-113533525D01*
X182686462Y-113533525D01*
X182686462Y-113487302D01*
X182691137Y-113449237D01*
X182704773Y-113416016D01*
X182727739Y-113386429D01*
X182757398Y-113363498D01*
X182790682Y-113349881D01*
X182828795Y-113345213D01*
X182957999Y-113345213D01*
X182995245Y-113349831D01*
G37*
G36*
X183145639Y-113345213D02*
G01*
X183559874Y-113345213D01*
X183559874Y-113513069D01*
X183434822Y-113513069D01*
X183434822Y-114330000D01*
X183267088Y-114330000D01*
X183267088Y-113513069D01*
X183145639Y-113513069D01*
X183145639Y-113345213D01*
G37*
D10*
X185500000Y-114150000D02*
X185500000Y-114400000D01*
D11*
G36*
X177539091Y-114564827D02*
G01*
X177572162Y-114578381D01*
X177602166Y-114601368D01*
X177625577Y-114630928D01*
X177639433Y-114664045D01*
X177644176Y-114701935D01*
X177644176Y-114994111D01*
X177639414Y-115031074D01*
X177625409Y-115063783D01*
X177601555Y-115093395D01*
X177581405Y-115110920D01*
X177679713Y-115545000D01*
X177507583Y-115545000D01*
X177414343Y-115134673D01*
X177397979Y-115134673D01*
X177397979Y-115545000D01*
X177230245Y-115545000D01*
X177230245Y-114966817D01*
X177397979Y-114966817D01*
X177455681Y-114966817D01*
X177469908Y-114960466D01*
X177476442Y-114945201D01*
X177476442Y-114748280D01*
X177469969Y-114733809D01*
X177455681Y-114728069D01*
X177397979Y-114728069D01*
X177397979Y-114966817D01*
X177230245Y-114966817D01*
X177230245Y-114560213D01*
X177501843Y-114560213D01*
X177539091Y-114564827D01*
G37*
G36*
X178147316Y-114911190D02*
G01*
X178142514Y-114949037D01*
X178128471Y-114982130D01*
X178104695Y-115011696D01*
X178065494Y-115050775D01*
X178104695Y-115090159D01*
X178128455Y-115119923D01*
X178142507Y-115153279D01*
X178147316Y-115191459D01*
X178147316Y-115545000D01*
X177979582Y-115545000D01*
X177979582Y-115150976D01*
X177974453Y-115139741D01*
X177963096Y-115134673D01*
X177917605Y-115134673D01*
X177905515Y-115139741D01*
X177901119Y-115151037D01*
X177901119Y-115545000D01*
X177733385Y-115545000D01*
X177733385Y-115191459D01*
X177738051Y-115153219D01*
X177751653Y-115119855D01*
X177774540Y-115090159D01*
X177813802Y-115050775D01*
X177774540Y-115011696D01*
X177751638Y-114982199D01*
X177738045Y-114949097D01*
X177733385Y-114911190D01*
X177733385Y-114560213D01*
X177901119Y-114560213D01*
X177901119Y-114949292D01*
X177905515Y-114961871D01*
X177917605Y-114966817D01*
X177963096Y-114966817D01*
X177974514Y-114961871D01*
X177979582Y-114949292D01*
X177979582Y-114560213D01*
X178147316Y-114560213D01*
X178147316Y-114911190D01*
G37*
G36*
X182039019Y-115545000D02*
G01*
X182000871Y-115540324D01*
X181967590Y-115526686D01*
X181937963Y-115503723D01*
X181915002Y-115474058D01*
X181901363Y-115440736D01*
X181896686Y-115402546D01*
X181896686Y-115213807D01*
X182064420Y-115213807D01*
X182064420Y-115353758D01*
X182070892Y-115370733D01*
X182088050Y-115377145D01*
X182119252Y-115377145D01*
X182135678Y-115370672D01*
X182141046Y-115363290D01*
X182142883Y-115353758D01*
X182142883Y-115158059D01*
X182135739Y-115141878D01*
X182119497Y-115134673D01*
X181896686Y-115134673D01*
X181896686Y-114560213D01*
X182310617Y-114560213D01*
X182310617Y-114728069D01*
X182064420Y-114728069D01*
X182064420Y-114966817D01*
X182167979Y-114966817D01*
X182205295Y-114971454D01*
X182238447Y-114985085D01*
X182268546Y-115008216D01*
X182292057Y-115037948D01*
X182305902Y-115070861D01*
X182310617Y-115108111D01*
X182310617Y-115402302D01*
X182305869Y-115440484D01*
X182292005Y-115473845D01*
X182268607Y-115503601D01*
X182238548Y-115526737D01*
X182205457Y-115540365D01*
X182168223Y-115545000D01*
X182039019Y-115545000D01*
G37*
G36*
X182647977Y-114560213D02*
G01*
X182815711Y-114560213D01*
X182815711Y-115289400D01*
X182810933Y-115340902D01*
X182796966Y-115387569D01*
X182773806Y-115430427D01*
X182740728Y-115470201D01*
X182700908Y-115503185D01*
X182657984Y-115526291D01*
X182611230Y-115540231D01*
X182559622Y-115545000D01*
X182401780Y-115545000D01*
X182401780Y-114560213D01*
X182569514Y-114560213D01*
X182569514Y-115377145D01*
X182598707Y-115371425D01*
X182624408Y-115353942D01*
X182642097Y-115328252D01*
X182647977Y-115297827D01*
X182647977Y-114560213D01*
G37*
G36*
X167704650Y-114888903D02*
G01*
X167536916Y-114888903D01*
X167536916Y-114749685D01*
X167530383Y-114734481D01*
X167514751Y-114728069D01*
X167480679Y-114728069D01*
X167464987Y-114734542D01*
X167458453Y-114749929D01*
X167458453Y-115355163D01*
X167464987Y-115370733D01*
X167480679Y-115377145D01*
X167514751Y-115377145D01*
X167530383Y-115370733D01*
X167536916Y-115355163D01*
X167536916Y-115134673D01*
X167495761Y-115134673D01*
X167495761Y-114966817D01*
X167704650Y-114966817D01*
X167704650Y-115402302D01*
X167699902Y-115440484D01*
X167686038Y-115473845D01*
X167662640Y-115503601D01*
X167632581Y-115526737D01*
X167599490Y-115540365D01*
X167562256Y-115545000D01*
X167433052Y-115545000D01*
X167394939Y-115540332D01*
X167361655Y-115526716D01*
X167331996Y-115503785D01*
X167309030Y-115474198D01*
X167295394Y-115440977D01*
X167290719Y-115402912D01*
X167290719Y-114702302D01*
X167295394Y-114664237D01*
X167309030Y-114631016D01*
X167331996Y-114601429D01*
X167361655Y-114578498D01*
X167394939Y-114564881D01*
X167433052Y-114560213D01*
X167562256Y-114560213D01*
X167599514Y-114564814D01*
X167632607Y-114578330D01*
X167662640Y-114601246D01*
X167686053Y-114630728D01*
X167699908Y-114663764D01*
X167704650Y-114701569D01*
X167704650Y-114888903D01*
G37*
G36*
X168041033Y-114560213D02*
G01*
X168208767Y-114560213D01*
X168208767Y-115545000D01*
X168041400Y-115545000D01*
X167960616Y-115129666D01*
X167962570Y-115545000D01*
X167794836Y-115545000D01*
X167794836Y-114560213D01*
X167962204Y-114560213D01*
X168042987Y-114979761D01*
X168041033Y-114560213D01*
G37*
G36*
X168609750Y-114564833D02*
G01*
X168642820Y-114578406D01*
X168672828Y-114601429D01*
X168696234Y-114631068D01*
X168710093Y-114664286D01*
X168714838Y-114702302D01*
X168714838Y-115402912D01*
X168710093Y-115440927D01*
X168696234Y-115474146D01*
X168672828Y-115503785D01*
X168642820Y-115526808D01*
X168609750Y-115540381D01*
X168572506Y-115545000D01*
X168300908Y-115545000D01*
X168300908Y-115377145D01*
X168468641Y-115377145D01*
X168526344Y-115377145D01*
X168540632Y-115371405D01*
X168547104Y-115356689D01*
X168547104Y-114748525D01*
X168540632Y-114733870D01*
X168526344Y-114728069D01*
X168468641Y-114728069D01*
X168468641Y-115377145D01*
X168300908Y-115377145D01*
X168300908Y-114560213D01*
X168572506Y-114560213D01*
X168609750Y-114564833D01*
G37*
G36*
X163773176Y-114560213D02*
G01*
X164187412Y-114560213D01*
X164187412Y-114728069D01*
X164062360Y-114728069D01*
X164062360Y-115545000D01*
X163894626Y-115545000D01*
X163894626Y-114728069D01*
X163773176Y-114728069D01*
X163773176Y-114560213D01*
G37*
G36*
X164637491Y-114911190D02*
G01*
X164632689Y-114949037D01*
X164618646Y-114982130D01*
X164594870Y-115011696D01*
X164555669Y-115050775D01*
X164594870Y-115090159D01*
X164618630Y-115119923D01*
X164632682Y-115153279D01*
X164637491Y-115191459D01*
X164637491Y-115545000D01*
X164469757Y-115545000D01*
X164469757Y-115150976D01*
X164464628Y-115139741D01*
X164453271Y-115134673D01*
X164407780Y-115134673D01*
X164395690Y-115139741D01*
X164391294Y-115151037D01*
X164391294Y-115545000D01*
X164223560Y-115545000D01*
X164223560Y-115191459D01*
X164228226Y-115153219D01*
X164241828Y-115119855D01*
X164264715Y-115090159D01*
X164303977Y-115050775D01*
X164264715Y-115011696D01*
X164241813Y-114982199D01*
X164228219Y-114949097D01*
X164223560Y-114911190D01*
X164223560Y-114560213D01*
X164391294Y-114560213D01*
X164391294Y-114949292D01*
X164395690Y-114961871D01*
X164407780Y-114966817D01*
X164453271Y-114966817D01*
X164464689Y-114961871D01*
X164469757Y-114949292D01*
X164469757Y-114560213D01*
X164637491Y-114560213D01*
X164637491Y-114911190D01*
G37*
G36*
X166039019Y-115545000D02*
G01*
X166000871Y-115540324D01*
X165967590Y-115526686D01*
X165937963Y-115503723D01*
X165915002Y-115474058D01*
X165901363Y-115440736D01*
X165896686Y-115402546D01*
X165896686Y-115213807D01*
X166064420Y-115213807D01*
X166064420Y-115353758D01*
X166070892Y-115370733D01*
X166088050Y-115377145D01*
X166119252Y-115377145D01*
X166135678Y-115370672D01*
X166141046Y-115363290D01*
X166142883Y-115353758D01*
X166142883Y-115158059D01*
X166135739Y-115141878D01*
X166119497Y-115134673D01*
X165896686Y-115134673D01*
X165896686Y-114560213D01*
X166310617Y-114560213D01*
X166310617Y-114728069D01*
X166064420Y-114728069D01*
X166064420Y-114966817D01*
X166167979Y-114966817D01*
X166205295Y-114971454D01*
X166238447Y-114985085D01*
X166268546Y-115008216D01*
X166292057Y-115037948D01*
X166305902Y-115070861D01*
X166310617Y-115108111D01*
X166310617Y-115402302D01*
X166305869Y-115440484D01*
X166292005Y-115473845D01*
X166268607Y-115503601D01*
X166238548Y-115526737D01*
X166205457Y-115540365D01*
X166168223Y-115545000D01*
X166039019Y-115545000D01*
G37*
G36*
X166647977Y-114560213D02*
G01*
X166815711Y-114560213D01*
X166815711Y-115289400D01*
X166810933Y-115340902D01*
X166796966Y-115387569D01*
X166773806Y-115430427D01*
X166740728Y-115470201D01*
X166700908Y-115503185D01*
X166657984Y-115526291D01*
X166611230Y-115540231D01*
X166559622Y-115545000D01*
X166401780Y-115545000D01*
X166401780Y-114560213D01*
X166569514Y-114560213D01*
X166569514Y-115377145D01*
X166598707Y-115371425D01*
X166624408Y-115353942D01*
X166642097Y-115328252D01*
X166647977Y-115297827D01*
X166647977Y-114560213D01*
G37*
D10*
X169500000Y-114150000D02*
X169500000Y-114400000D01*
D12*
G36*
X166006617Y-113349821D02*
G01*
X166039688Y-113363357D01*
X166069688Y-113386307D01*
X166093100Y-113415828D01*
X166106956Y-113448905D01*
X166111698Y-113486752D01*
X166111698Y-113696190D01*
X166106896Y-113734037D01*
X166092852Y-113767130D01*
X166069077Y-113796696D01*
X166029876Y-113835775D01*
X166069077Y-113875159D01*
X166092836Y-113904923D01*
X166106889Y-113938279D01*
X166111698Y-113976459D01*
X166111698Y-114187363D01*
X166106950Y-114225546D01*
X166093086Y-114258906D01*
X166069688Y-114288662D01*
X166039671Y-114311759D01*
X166006601Y-114325370D01*
X165969365Y-114330000D01*
X165697767Y-114330000D01*
X165697767Y-114162145D01*
X165865501Y-114162145D01*
X165921799Y-114162145D01*
X165937430Y-114155733D01*
X165943964Y-114141567D01*
X165943964Y-113941654D01*
X165937430Y-113926145D01*
X165921738Y-113919673D01*
X165865501Y-113919673D01*
X165865501Y-114162145D01*
X165697767Y-114162145D01*
X165697767Y-113751817D01*
X165865501Y-113751817D01*
X165921799Y-113751817D01*
X165937430Y-113745466D01*
X165943964Y-113730201D01*
X165943964Y-113533280D01*
X165937491Y-113518809D01*
X165921738Y-113513069D01*
X165865501Y-113513069D01*
X165865501Y-113751817D01*
X165697767Y-113751817D01*
X165697767Y-113345213D01*
X165969365Y-113345213D01*
X166006617Y-113349821D01*
G37*
G36*
X166496990Y-113349831D02*
G01*
X166530081Y-113363404D01*
X166560127Y-113386429D01*
X166583533Y-113416068D01*
X166597392Y-113449286D01*
X166602137Y-113487302D01*
X166602137Y-114187912D01*
X166597392Y-114225927D01*
X166583533Y-114259146D01*
X166560127Y-114288785D01*
X166530081Y-114311810D01*
X166496990Y-114325382D01*
X166459744Y-114330000D01*
X166330539Y-114330000D01*
X166292426Y-114325332D01*
X166259142Y-114311716D01*
X166229484Y-114288785D01*
X166206517Y-114259198D01*
X166192882Y-114225977D01*
X166188207Y-114187912D01*
X166188207Y-113533525D01*
X166355940Y-113533525D01*
X166355940Y-114141689D01*
X166361741Y-114156466D01*
X166376701Y-114162145D01*
X166412238Y-114162145D01*
X166427931Y-114156405D01*
X166434403Y-114141689D01*
X166434403Y-113533525D01*
X166427931Y-113518870D01*
X166412177Y-113513069D01*
X166376701Y-113513069D01*
X166361741Y-113518809D01*
X166355940Y-113533525D01*
X166188207Y-113533525D01*
X166188207Y-113487302D01*
X166192882Y-113449237D01*
X166206517Y-113416016D01*
X166229484Y-113386429D01*
X166259142Y-113363498D01*
X166292426Y-113349881D01*
X166330539Y-113345213D01*
X166459744Y-113345213D01*
X166496990Y-113349831D01*
G37*
G36*
X166995245Y-113349831D02*
G01*
X167028337Y-113363404D01*
X167058383Y-113386429D01*
X167081788Y-113416068D01*
X167095648Y-113449286D01*
X167100393Y-113487302D01*
X167100393Y-114187912D01*
X167095648Y-114225927D01*
X167081788Y-114259146D01*
X167058383Y-114288785D01*
X167028337Y-114311810D01*
X166995245Y-114325382D01*
X166957999Y-114330000D01*
X166828795Y-114330000D01*
X166790682Y-114325332D01*
X166757398Y-114311716D01*
X166727739Y-114288785D01*
X166704773Y-114259198D01*
X166691137Y-114225977D01*
X166686462Y-114187912D01*
X166686462Y-113533525D01*
X166854196Y-113533525D01*
X166854196Y-114141689D01*
X166859997Y-114156466D01*
X166874956Y-114162145D01*
X166910494Y-114162145D01*
X166926186Y-114156405D01*
X166932659Y-114141689D01*
X166932659Y-113533525D01*
X166926186Y-113518870D01*
X166910433Y-113513069D01*
X166874956Y-113513069D01*
X166859997Y-113518809D01*
X166854196Y-113533525D01*
X166686462Y-113533525D01*
X166686462Y-113487302D01*
X166691137Y-113449237D01*
X166704773Y-113416016D01*
X166727739Y-113386429D01*
X166757398Y-113363498D01*
X166790682Y-113349881D01*
X166828795Y-113345213D01*
X166957999Y-113345213D01*
X166995245Y-113349831D01*
G37*
G36*
X167145639Y-113345213D02*
G01*
X167559874Y-113345213D01*
X167559874Y-113513069D01*
X167434822Y-113513069D01*
X167434822Y-114330000D01*
X167267088Y-114330000D01*
X167267088Y-113513069D01*
X167145639Y-113513069D01*
X167145639Y-113345213D01*
G37*
D11*
G36*
X161539091Y-114564827D02*
G01*
X161572162Y-114578381D01*
X161602166Y-114601368D01*
X161625577Y-114630928D01*
X161639433Y-114664045D01*
X161644176Y-114701935D01*
X161644176Y-114994111D01*
X161639414Y-115031074D01*
X161625409Y-115063783D01*
X161601555Y-115093395D01*
X161581405Y-115110920D01*
X161679713Y-115545000D01*
X161507583Y-115545000D01*
X161414343Y-115134673D01*
X161397979Y-115134673D01*
X161397979Y-115545000D01*
X161230245Y-115545000D01*
X161230245Y-114966817D01*
X161397979Y-114966817D01*
X161455681Y-114966817D01*
X161469908Y-114960466D01*
X161476442Y-114945201D01*
X161476442Y-114748280D01*
X161469969Y-114733809D01*
X161455681Y-114728069D01*
X161397979Y-114728069D01*
X161397979Y-114966817D01*
X161230245Y-114966817D01*
X161230245Y-114560213D01*
X161501843Y-114560213D01*
X161539091Y-114564827D01*
G37*
G36*
X162147316Y-114911190D02*
G01*
X162142514Y-114949037D01*
X162128471Y-114982130D01*
X162104695Y-115011696D01*
X162065494Y-115050775D01*
X162104695Y-115090159D01*
X162128455Y-115119923D01*
X162142507Y-115153279D01*
X162147316Y-115191459D01*
X162147316Y-115545000D01*
X161979582Y-115545000D01*
X161979582Y-115150976D01*
X161974453Y-115139741D01*
X161963096Y-115134673D01*
X161917605Y-115134673D01*
X161905515Y-115139741D01*
X161901119Y-115151037D01*
X161901119Y-115545000D01*
X161733385Y-115545000D01*
X161733385Y-115191459D01*
X161738051Y-115153219D01*
X161751653Y-115119855D01*
X161774540Y-115090159D01*
X161813802Y-115050775D01*
X161774540Y-115011696D01*
X161751638Y-114982199D01*
X161738045Y-114949097D01*
X161733385Y-114911190D01*
X161733385Y-114560213D01*
X161901119Y-114560213D01*
X161901119Y-114949292D01*
X161905515Y-114961871D01*
X161917605Y-114966817D01*
X161963096Y-114966817D01*
X161974514Y-114961871D01*
X161979582Y-114949292D01*
X161979582Y-114560213D01*
X162147316Y-114560213D01*
X162147316Y-114911190D01*
G37*
D10*
X167700000Y-114150000D02*
X169500000Y-114150000D01*
D11*
G36*
X131695579Y-114258683D02*
G01*
X131494299Y-114258683D01*
X131494299Y-114091621D01*
X131486459Y-114073376D01*
X131467701Y-114065682D01*
X131426814Y-114065682D01*
X131407983Y-114073449D01*
X131400143Y-114091914D01*
X131400143Y-114818194D01*
X131407983Y-114836879D01*
X131426814Y-114844572D01*
X131467701Y-114844572D01*
X131486459Y-114836879D01*
X131494299Y-114818194D01*
X131494299Y-114553606D01*
X131444913Y-114553606D01*
X131444913Y-114352179D01*
X131695579Y-114352179D01*
X131695579Y-114874761D01*
X131689882Y-114920580D01*
X131673246Y-114960613D01*
X131645168Y-114996321D01*
X131609097Y-115024083D01*
X131569388Y-115040437D01*
X131524707Y-115046000D01*
X131369662Y-115046000D01*
X131323926Y-115040398D01*
X131283985Y-115024058D01*
X131248395Y-114996540D01*
X131220835Y-114961037D01*
X131204472Y-114921171D01*
X131198863Y-114875494D01*
X131198863Y-114034761D01*
X131204472Y-113989083D01*
X131220835Y-113949218D01*
X131248395Y-113913714D01*
X131283985Y-113886197D01*
X131323926Y-113869857D01*
X131369662Y-113864255D01*
X131524707Y-113864255D01*
X131569416Y-113869776D01*
X131609128Y-113885995D01*
X131645168Y-113913494D01*
X131673263Y-113948873D01*
X131689889Y-113988516D01*
X131695579Y-114033882D01*
X131695579Y-114258683D01*
G37*
G36*
X132099239Y-113864255D02*
G01*
X132300520Y-113864255D01*
X132300520Y-115046000D01*
X132099679Y-115046000D01*
X132002739Y-114547598D01*
X132005084Y-115046000D01*
X131803803Y-115046000D01*
X131803803Y-113864255D01*
X132004644Y-113864255D01*
X132101584Y-114367713D01*
X132099239Y-113864255D01*
G37*
G36*
X132781699Y-113869798D02*
G01*
X132821384Y-113886086D01*
X132857394Y-113913714D01*
X132885480Y-113949281D01*
X132902112Y-113989143D01*
X132907805Y-114034761D01*
X132907805Y-114875494D01*
X132902112Y-114921112D01*
X132885480Y-114960974D01*
X132857394Y-114996540D01*
X132821384Y-115024169D01*
X132781699Y-115040456D01*
X132737006Y-115046000D01*
X132411089Y-115046000D01*
X132411089Y-114844572D01*
X132612369Y-114844572D01*
X132681612Y-114844572D01*
X132698758Y-114837685D01*
X132706525Y-114820026D01*
X132706525Y-114090228D01*
X132698758Y-114072643D01*
X132681612Y-114065682D01*
X132612369Y-114065682D01*
X132612369Y-114844572D01*
X132411089Y-114844572D01*
X132411089Y-113864255D01*
X132737006Y-113864255D01*
X132781699Y-113869798D01*
G37*
G36*
X129006821Y-115046000D02*
G01*
X128961044Y-115040387D01*
X128921106Y-115024022D01*
X128885555Y-114996467D01*
X128858001Y-114960869D01*
X128841635Y-114920882D01*
X128836022Y-114875054D01*
X128836022Y-114648568D01*
X129037303Y-114648568D01*
X129037303Y-114816509D01*
X129045070Y-114836879D01*
X129065659Y-114844572D01*
X129103102Y-114844572D01*
X129122812Y-114836806D01*
X129129254Y-114827947D01*
X129131458Y-114816509D01*
X129131458Y-114581669D01*
X129122885Y-114562252D01*
X129103395Y-114553606D01*
X128836022Y-114553606D01*
X128836022Y-113864255D01*
X129332739Y-113864255D01*
X129332739Y-114065682D01*
X129037303Y-114065682D01*
X129037303Y-114352179D01*
X129161573Y-114352179D01*
X129206353Y-114357744D01*
X129246135Y-114374101D01*
X129282254Y-114401858D01*
X129310467Y-114437536D01*
X129327081Y-114477032D01*
X129332739Y-114521732D01*
X129332739Y-114874761D01*
X129327042Y-114920580D01*
X129310405Y-114960613D01*
X129282327Y-114996321D01*
X129246256Y-115024083D01*
X129206547Y-115040437D01*
X129161866Y-115046000D01*
X129006821Y-115046000D01*
G37*
G36*
X129737571Y-113864255D02*
G01*
X129938852Y-113864255D01*
X129938852Y-114739279D01*
X129933119Y-114801081D01*
X129916358Y-114857082D01*
X129888566Y-114908511D01*
X129848873Y-114956240D01*
X129801088Y-114995821D01*
X129749579Y-115023548D01*
X129693475Y-115040277D01*
X129631545Y-115046000D01*
X129442135Y-115046000D01*
X129442135Y-113864255D01*
X129643416Y-113864255D01*
X129643416Y-114844572D01*
X129678447Y-114837709D01*
X129709288Y-114816729D01*
X129730515Y-114785901D01*
X129737571Y-114749391D01*
X129737571Y-113864255D01*
G37*
G36*
X124126052Y-113869791D02*
G01*
X124165737Y-113886057D01*
X124201741Y-113913641D01*
X124229834Y-113949112D01*
X124246462Y-113988853D01*
X124252153Y-114034321D01*
X124252153Y-114384932D01*
X124246439Y-114429287D01*
X124229633Y-114468538D01*
X124201009Y-114504073D01*
X124176829Y-114525103D01*
X124294798Y-115046000D01*
X124088242Y-115046000D01*
X123976354Y-114553606D01*
X123956717Y-114553606D01*
X123956717Y-115046000D01*
X123755437Y-115046000D01*
X123755437Y-114352179D01*
X123956717Y-114352179D01*
X124025960Y-114352179D01*
X124043032Y-114344558D01*
X124050873Y-114326240D01*
X124050873Y-114089935D01*
X124043106Y-114072570D01*
X124025960Y-114065682D01*
X123956717Y-114065682D01*
X123956717Y-114352179D01*
X123755437Y-114352179D01*
X123755437Y-113864255D01*
X124081354Y-113864255D01*
X124126052Y-113869791D01*
G37*
G36*
X124855922Y-114285427D02*
G01*
X124850160Y-114330843D01*
X124833307Y-114370555D01*
X124804777Y-114406034D01*
X124757736Y-114452929D01*
X124804777Y-114500190D01*
X124833288Y-114535907D01*
X124850151Y-114575934D01*
X124855922Y-114621750D01*
X124855922Y-115046000D01*
X124654641Y-115046000D01*
X124654641Y-114573170D01*
X124648486Y-114559688D01*
X124634857Y-114553606D01*
X124580269Y-114553606D01*
X124565761Y-114559688D01*
X124560485Y-114573243D01*
X124560485Y-115046000D01*
X124359205Y-115046000D01*
X124359205Y-114621750D01*
X124364804Y-114575861D01*
X124381126Y-114535825D01*
X124408591Y-114500190D01*
X124455705Y-114452929D01*
X124408591Y-114406034D01*
X124381108Y-114370638D01*
X124364796Y-114330916D01*
X124359205Y-114285427D01*
X124359205Y-113864255D01*
X124560485Y-113864255D01*
X124560485Y-114331150D01*
X124565761Y-114346244D01*
X124580269Y-114352179D01*
X124634857Y-114352179D01*
X124648559Y-114346244D01*
X124654641Y-114331150D01*
X124654641Y-113864255D01*
X124855922Y-113864255D01*
X124855922Y-114285427D01*
G37*
G36*
X126298953Y-113864255D02*
G01*
X126796036Y-113864255D01*
X126796036Y-114065682D01*
X126645973Y-114065682D01*
X126645973Y-115046000D01*
X126444693Y-115046000D01*
X126444693Y-114065682D01*
X126298953Y-114065682D01*
X126298953Y-113864255D01*
G37*
G36*
X127336130Y-114285427D02*
G01*
X127330368Y-114330843D01*
X127313516Y-114370555D01*
X127284986Y-114406034D01*
X127237945Y-114452929D01*
X127284986Y-114500190D01*
X127313497Y-114535907D01*
X127330360Y-114575934D01*
X127336130Y-114621750D01*
X127336130Y-115046000D01*
X127134850Y-115046000D01*
X127134850Y-114573170D01*
X127128695Y-114559688D01*
X127115066Y-114553606D01*
X127060478Y-114553606D01*
X127045970Y-114559688D01*
X127040694Y-114573243D01*
X127040694Y-115046000D01*
X126839414Y-115046000D01*
X126839414Y-114621750D01*
X126845012Y-114575861D01*
X126861335Y-114535825D01*
X126888799Y-114500190D01*
X126935914Y-114452929D01*
X126888799Y-114406034D01*
X126861317Y-114370638D01*
X126845005Y-114330916D01*
X126839414Y-114285427D01*
X126839414Y-113864255D01*
X127040694Y-113864255D01*
X127040694Y-114331150D01*
X127045970Y-114346244D01*
X127060478Y-114352179D01*
X127115066Y-114352179D01*
X127128768Y-114346244D01*
X127134850Y-114331150D01*
X127134850Y-113864255D01*
X127336130Y-113864255D01*
X127336130Y-114285427D01*
G37*
G36*
X101126052Y-113869791D02*
G01*
X101165737Y-113886057D01*
X101201741Y-113913641D01*
X101229834Y-113949112D01*
X101246462Y-113988853D01*
X101252153Y-114034321D01*
X101252153Y-114384932D01*
X101246439Y-114429287D01*
X101229633Y-114468538D01*
X101201009Y-114504073D01*
X101176829Y-114525103D01*
X101294798Y-115046000D01*
X101088242Y-115046000D01*
X100976354Y-114553606D01*
X100956717Y-114553606D01*
X100956717Y-115046000D01*
X100755437Y-115046000D01*
X100755437Y-114352179D01*
X100956717Y-114352179D01*
X101025960Y-114352179D01*
X101043032Y-114344558D01*
X101050873Y-114326240D01*
X101050873Y-114089935D01*
X101043106Y-114072570D01*
X101025960Y-114065682D01*
X100956717Y-114065682D01*
X100956717Y-114352179D01*
X100755437Y-114352179D01*
X100755437Y-113864255D01*
X101081354Y-113864255D01*
X101126052Y-113869791D01*
G37*
G36*
X101855922Y-114285427D02*
G01*
X101850160Y-114330843D01*
X101833307Y-114370555D01*
X101804777Y-114406034D01*
X101757736Y-114452929D01*
X101804777Y-114500190D01*
X101833288Y-114535907D01*
X101850151Y-114575934D01*
X101855922Y-114621750D01*
X101855922Y-115046000D01*
X101654641Y-115046000D01*
X101654641Y-114573170D01*
X101648486Y-114559688D01*
X101634857Y-114553606D01*
X101580269Y-114553606D01*
X101565761Y-114559688D01*
X101560485Y-114573243D01*
X101560485Y-115046000D01*
X101359205Y-115046000D01*
X101359205Y-114621750D01*
X101364804Y-114575861D01*
X101381126Y-114535825D01*
X101408591Y-114500190D01*
X101455705Y-114452929D01*
X101408591Y-114406034D01*
X101381108Y-114370638D01*
X101364796Y-114330916D01*
X101359205Y-114285427D01*
X101359205Y-113864255D01*
X101560485Y-113864255D01*
X101560485Y-114331150D01*
X101565761Y-114346244D01*
X101580269Y-114352179D01*
X101634857Y-114352179D01*
X101648559Y-114346244D01*
X101654641Y-114331150D01*
X101654641Y-113864255D01*
X101855922Y-113864255D01*
X101855922Y-114285427D01*
G37*
G36*
X103298953Y-113864255D02*
G01*
X103796036Y-113864255D01*
X103796036Y-114065682D01*
X103645973Y-114065682D01*
X103645973Y-115046000D01*
X103444693Y-115046000D01*
X103444693Y-114065682D01*
X103298953Y-114065682D01*
X103298953Y-113864255D01*
G37*
G36*
X104336130Y-114285427D02*
G01*
X104330368Y-114330843D01*
X104313516Y-114370555D01*
X104284986Y-114406034D01*
X104237945Y-114452929D01*
X104284986Y-114500190D01*
X104313497Y-114535907D01*
X104330360Y-114575934D01*
X104336130Y-114621750D01*
X104336130Y-115046000D01*
X104134850Y-115046000D01*
X104134850Y-114573170D01*
X104128695Y-114559688D01*
X104115066Y-114553606D01*
X104060478Y-114553606D01*
X104045970Y-114559688D01*
X104040694Y-114573243D01*
X104040694Y-115046000D01*
X103839414Y-115046000D01*
X103839414Y-114621750D01*
X103845012Y-114575861D01*
X103861335Y-114535825D01*
X103888799Y-114500190D01*
X103935914Y-114452929D01*
X103888799Y-114406034D01*
X103861317Y-114370638D01*
X103845005Y-114330916D01*
X103839414Y-114285427D01*
X103839414Y-113864255D01*
X104040694Y-113864255D01*
X104040694Y-114331150D01*
X104045970Y-114346244D01*
X104060478Y-114352179D01*
X104115066Y-114352179D01*
X104128768Y-114346244D01*
X104134850Y-114331150D01*
X104134850Y-113864255D01*
X104336130Y-113864255D01*
X104336130Y-114285427D01*
G37*
G36*
X106006821Y-115046000D02*
G01*
X105961044Y-115040387D01*
X105921106Y-115024022D01*
X105885555Y-114996467D01*
X105858001Y-114960869D01*
X105841635Y-114920882D01*
X105836022Y-114875054D01*
X105836022Y-114648568D01*
X106037303Y-114648568D01*
X106037303Y-114816509D01*
X106045070Y-114836879D01*
X106065659Y-114844572D01*
X106103102Y-114844572D01*
X106122812Y-114836806D01*
X106129254Y-114827947D01*
X106131458Y-114816509D01*
X106131458Y-114581669D01*
X106122885Y-114562252D01*
X106103395Y-114553606D01*
X105836022Y-114553606D01*
X105836022Y-113864255D01*
X106332739Y-113864255D01*
X106332739Y-114065682D01*
X106037303Y-114065682D01*
X106037303Y-114352179D01*
X106161573Y-114352179D01*
X106206353Y-114357744D01*
X106246135Y-114374101D01*
X106282254Y-114401858D01*
X106310467Y-114437536D01*
X106327081Y-114477032D01*
X106332739Y-114521732D01*
X106332739Y-114874761D01*
X106327042Y-114920580D01*
X106310405Y-114960613D01*
X106282327Y-114996321D01*
X106246256Y-115024083D01*
X106206547Y-115040437D01*
X106161866Y-115046000D01*
X106006821Y-115046000D01*
G37*
G36*
X106737571Y-113864255D02*
G01*
X106938852Y-113864255D01*
X106938852Y-114739279D01*
X106933119Y-114801081D01*
X106916358Y-114857082D01*
X106888566Y-114908511D01*
X106848873Y-114956240D01*
X106801088Y-114995821D01*
X106749579Y-115023548D01*
X106693475Y-115040277D01*
X106631545Y-115046000D01*
X106442135Y-115046000D01*
X106442135Y-113864255D01*
X106643416Y-113864255D01*
X106643416Y-114844572D01*
X106678447Y-114837709D01*
X106709288Y-114816729D01*
X106730515Y-114785901D01*
X106737571Y-114749391D01*
X106737571Y-113864255D01*
G37*
G36*
X108695579Y-114258683D02*
G01*
X108494299Y-114258683D01*
X108494299Y-114091621D01*
X108486459Y-114073376D01*
X108467701Y-114065682D01*
X108426814Y-114065682D01*
X108407983Y-114073449D01*
X108400143Y-114091914D01*
X108400143Y-114818194D01*
X108407983Y-114836879D01*
X108426814Y-114844572D01*
X108467701Y-114844572D01*
X108486459Y-114836879D01*
X108494299Y-114818194D01*
X108494299Y-114553606D01*
X108444913Y-114553606D01*
X108444913Y-114352179D01*
X108695579Y-114352179D01*
X108695579Y-114874761D01*
X108689882Y-114920580D01*
X108673246Y-114960613D01*
X108645168Y-114996321D01*
X108609097Y-115024083D01*
X108569388Y-115040437D01*
X108524707Y-115046000D01*
X108369662Y-115046000D01*
X108323926Y-115040398D01*
X108283985Y-115024058D01*
X108248395Y-114996540D01*
X108220835Y-114961037D01*
X108204472Y-114921171D01*
X108198863Y-114875494D01*
X108198863Y-114034761D01*
X108204472Y-113989083D01*
X108220835Y-113949218D01*
X108248395Y-113913714D01*
X108283985Y-113886197D01*
X108323926Y-113869857D01*
X108369662Y-113864255D01*
X108524707Y-113864255D01*
X108569416Y-113869776D01*
X108609128Y-113885995D01*
X108645168Y-113913494D01*
X108673263Y-113948873D01*
X108689889Y-113988516D01*
X108695579Y-114033882D01*
X108695579Y-114258683D01*
G37*
G36*
X109099239Y-113864255D02*
G01*
X109300520Y-113864255D01*
X109300520Y-115046000D01*
X109099679Y-115046000D01*
X109002739Y-114547598D01*
X109005084Y-115046000D01*
X108803803Y-115046000D01*
X108803803Y-113864255D01*
X109004644Y-113864255D01*
X109101584Y-114367713D01*
X109099239Y-113864255D01*
G37*
G36*
X109781699Y-113869798D02*
G01*
X109821384Y-113886086D01*
X109857394Y-113913714D01*
X109885480Y-113949281D01*
X109902112Y-113989143D01*
X109907805Y-114034761D01*
X109907805Y-114875494D01*
X109902112Y-114921112D01*
X109885480Y-114960974D01*
X109857394Y-114996540D01*
X109821384Y-115024169D01*
X109781699Y-115040456D01*
X109737006Y-115046000D01*
X109411089Y-115046000D01*
X109411089Y-114844572D01*
X109612369Y-114844572D01*
X109681612Y-114844572D01*
X109698758Y-114837685D01*
X109706525Y-114820026D01*
X109706525Y-114090228D01*
X109698758Y-114072643D01*
X109681612Y-114065682D01*
X109612369Y-114065682D01*
X109612369Y-114844572D01*
X109411089Y-114844572D01*
X109411089Y-113864255D01*
X109737006Y-113864255D01*
X109781699Y-113869798D01*
G37*
%TO.C,OSC5*%
D12*
X145450000Y-113220000D02*
X145450000Y-112590000D01*
X147250000Y-113220000D02*
X147250000Y-112590000D01*
D13*
X147870000Y-114400000D02*
G75*
G02*
X147630000Y-114400000I-120000J0D01*
G01*
X147630000Y-114400000D02*
G75*
G02*
X147870000Y-114400000I120000J0D01*
G01*
%TO.C,T5*%
D10*
X148700000Y-106250000D02*
X148700000Y-106720000D01*
X148700000Y-107380000D02*
X148700000Y-107850000D01*
X148700000Y-107850000D02*
X148720000Y-107850000D01*
X148720000Y-106250000D02*
X148700000Y-106250000D01*
X150880000Y-107850000D02*
X150900000Y-107850000D01*
X150900000Y-106250000D02*
X150880000Y-106250000D01*
X150900000Y-106720000D02*
X150900000Y-106250000D01*
X150900000Y-107850000D02*
X150900000Y-107380000D01*
%TO.C,U27*%
D14*
X148040000Y-108840000D02*
X148515000Y-108840000D01*
X148040000Y-109315000D02*
X148040000Y-108840000D01*
X148040000Y-114060000D02*
X148040000Y-113585000D01*
X148515000Y-114060000D02*
X148040000Y-114060000D01*
X152785000Y-108840000D02*
X153260000Y-108840000D01*
X153260000Y-108840000D02*
X153260000Y-109315000D01*
X153260000Y-113585000D02*
X153260000Y-114060000D01*
X153260000Y-114060000D02*
X152785000Y-114060000D01*
X147540000Y-109700000D02*
X147210000Y-109940000D01*
X147210000Y-109460000D01*
X147540000Y-109700000D01*
G36*
X147540000Y-109700000D02*
G01*
X147210000Y-109940000D01*
X147210000Y-109460000D01*
X147540000Y-109700000D01*
G37*
%TO.C,U28*%
D10*
X151420000Y-102520000D02*
X151920000Y-102520000D01*
X151420000Y-103020000D02*
X151420000Y-102520000D01*
X151420000Y-105180000D02*
X151420000Y-105680000D01*
X151420000Y-105680000D02*
X151920000Y-105680000D01*
X151920000Y-105680000D02*
X151420000Y-105180000D01*
X154580000Y-102520000D02*
X154080000Y-102520000D01*
X154580000Y-103020000D02*
X154580000Y-102520000D01*
X154580000Y-105180000D02*
X154580000Y-105680000D01*
X154580000Y-105680000D02*
X154080000Y-105680000D01*
X151930000Y-106000000D02*
G75*
G02*
X151790000Y-106000000I-70000J0D01*
G01*
X151790000Y-106000000D02*
G75*
G02*
X151930000Y-106000000I70000J0D01*
G01*
%TO.C,J6*%
D14*
X145800000Y-103360000D02*
X146440000Y-103360000D01*
X145850000Y-100640000D02*
X148550000Y-100640000D01*
X146440000Y-103360000D02*
X146440000Y-103990000D01*
X148600000Y-103360000D02*
X147960000Y-103360000D01*
%TO.C,C147*%
X154090000Y-112792164D02*
X154090000Y-113007836D01*
X154810000Y-112792164D02*
X154810000Y-113007836D01*
%TO.C,D5*%
D15*
X145100000Y-107800000D02*
G75*
G02*
X145000000Y-107800000I-50000J0D01*
G01*
X145000000Y-107800000D02*
G75*
G02*
X145100000Y-107800000I50000J0D01*
G01*
%TO.C,FL7*%
X151893898Y-107418701D02*
X152162599Y-107150000D01*
X152431299Y-107956102D02*
X152700000Y-107687401D01*
X152700000Y-106612599D02*
X152968701Y-106343898D01*
X153237401Y-107150000D02*
X153506102Y-106881299D01*
D12*
X151953899Y-107956102D02*
G75*
G02*
X151833897Y-107956102I-60001J0D01*
G01*
X151833897Y-107956102D02*
G75*
G02*
X151953899Y-107956102I60001J0D01*
G01*
D16*
X152199670Y-107326777D02*
G75*
G02*
X152139670Y-107326777I-30000J0D01*
G01*
X152139670Y-107326777D02*
G75*
G02*
X152199670Y-107326777I30000J0D01*
G01*
%TO.C,U29*%
D14*
X148750000Y-103350000D02*
X148900000Y-103350000D01*
X148750000Y-103500000D02*
X148750000Y-103350000D01*
X148750000Y-105500000D02*
X148750000Y-105720000D01*
X151050000Y-103350000D02*
X150900000Y-103350000D01*
X151050000Y-103500000D02*
X151050000Y-103350000D01*
X151050000Y-105500000D02*
X151050000Y-105650000D01*
X151050000Y-105650000D02*
X150900000Y-105650000D01*
%TO.C,C117*%
X176790000Y-107442164D02*
X176790000Y-107657836D01*
X177510000Y-107442164D02*
X177510000Y-107657836D01*
%TO.C,X4*%
D10*
X185800000Y-112350000D02*
X185100000Y-112350000D01*
X185800000Y-113000000D02*
X185800000Y-112350000D01*
%TO.C,C120*%
D14*
X182332164Y-110430000D02*
X182547836Y-110430000D01*
X182332164Y-111150000D02*
X182547836Y-111150000D01*
%TO.C,AE5*%
D17*
X182650000Y-106650000D02*
X183900000Y-106650000D01*
X182650000Y-108250000D02*
X182650000Y-106650000D01*
X182650000Y-109850000D02*
X182650000Y-108250000D01*
X183820000Y-108250000D02*
X182650000Y-108250000D01*
X184250000Y-108670000D02*
X184250000Y-109850000D01*
X184680000Y-108250000D02*
X185850000Y-108250000D01*
X185850000Y-106650000D02*
X184600000Y-106650000D01*
X185850000Y-106650000D02*
X185850000Y-109850000D01*
X185850000Y-109850000D02*
X182650000Y-109850000D01*
D18*
X184500000Y-108250000D02*
G75*
G02*
X184000000Y-108250000I-250000J0D01*
G01*
X184000000Y-108250000D02*
G75*
G02*
X184500000Y-108250000I250000J0D01*
G01*
%TO.C,U24*%
D11*
X176950000Y-109910000D02*
X177350000Y-109910000D01*
X176950000Y-110310000D02*
X176950000Y-109910000D01*
X176950000Y-114210000D02*
X176950000Y-113810000D01*
X177350000Y-114210000D02*
X176950000Y-114210000D01*
X180850000Y-109910000D02*
X181250000Y-109910000D01*
X180850000Y-114210000D02*
X181250000Y-114210000D01*
X181250000Y-109910000D02*
X181250000Y-110310000D01*
X181250000Y-114210000D02*
X181250000Y-113810000D01*
%TO.C,C125*%
D14*
X177740000Y-107442164D02*
X177740000Y-107657836D01*
X178460000Y-107442164D02*
X178460000Y-107657836D01*
%TO.C,D4*%
D15*
X178800000Y-106650000D02*
G75*
G02*
X178700000Y-106650000I-50000J0D01*
G01*
X178700000Y-106650000D02*
G75*
G02*
X178800000Y-106650000I50000J0D01*
G01*
%TO.C,FL6*%
X179140000Y-108520000D02*
X179520000Y-108520000D01*
X179140000Y-109280000D02*
X179520000Y-109280000D01*
X180280000Y-108520000D02*
X180660000Y-108520000D01*
X180280000Y-109280000D02*
X180660000Y-109280000D01*
D12*
X178820000Y-108900000D02*
G75*
G02*
X178700000Y-108900000I-60000J0D01*
G01*
X178700000Y-108900000D02*
G75*
G02*
X178820000Y-108900000I60000J0D01*
G01*
D16*
X179430000Y-108650000D02*
G75*
G02*
X179370000Y-108650000I-30000J0D01*
G01*
X179370000Y-108650000D02*
G75*
G02*
X179430000Y-108650000I30000J0D01*
G01*
%TO.C,C92*%
D14*
X160790000Y-107442164D02*
X160790000Y-107657836D01*
X161510000Y-107442164D02*
X161510000Y-107657836D01*
%TO.C,J5*%
X167240000Y-107300000D02*
X167240000Y-107940000D01*
X167240000Y-107940000D02*
X166610000Y-107940000D01*
X167240000Y-110100000D02*
X167240000Y-109460000D01*
X169960000Y-107350000D02*
X169960000Y-110050000D01*
%TO.C,X3*%
D10*
X169800000Y-112350000D02*
X169100000Y-112350000D01*
X169800000Y-113000000D02*
X169800000Y-112350000D01*
%TO.C,C95*%
D14*
X166332164Y-110430000D02*
X166547836Y-110430000D01*
X166332164Y-111150000D02*
X166547836Y-111150000D01*
%TO.C,U21*%
D11*
X160950000Y-109910000D02*
X161350000Y-109910000D01*
X160950000Y-110310000D02*
X160950000Y-109910000D01*
X160950000Y-114210000D02*
X160950000Y-113810000D01*
X161350000Y-114210000D02*
X160950000Y-114210000D01*
X164850000Y-109910000D02*
X165250000Y-109910000D01*
X164850000Y-114210000D02*
X165250000Y-114210000D01*
X165250000Y-109910000D02*
X165250000Y-110310000D01*
X165250000Y-114210000D02*
X165250000Y-113810000D01*
%TO.C,C100*%
D14*
X161740000Y-107442164D02*
X161740000Y-107657836D01*
X162460000Y-107442164D02*
X162460000Y-107657836D01*
%TO.C,D3*%
D15*
X162800000Y-106650000D02*
G75*
G02*
X162700000Y-106650000I-50000J0D01*
G01*
X162700000Y-106650000D02*
G75*
G02*
X162800000Y-106650000I50000J0D01*
G01*
%TO.C,FL5*%
X163140000Y-108520000D02*
X163520000Y-108520000D01*
X163140000Y-109280000D02*
X163520000Y-109280000D01*
X164280000Y-108520000D02*
X164660000Y-108520000D01*
X164280000Y-109280000D02*
X164660000Y-109280000D01*
D12*
X162820000Y-108900000D02*
G75*
G02*
X162700000Y-108900000I-60000J0D01*
G01*
X162700000Y-108900000D02*
G75*
G02*
X162820000Y-108900000I60000J0D01*
G01*
D16*
X163430000Y-108650000D02*
G75*
G02*
X163370000Y-108650000I-30000J0D01*
G01*
X163370000Y-108650000D02*
G75*
G02*
X163430000Y-108650000I30000J0D01*
G01*
%TO.C,T3*%
D10*
X126050000Y-105200000D02*
X126050000Y-105670000D01*
X126050000Y-106330000D02*
X126050000Y-106800000D01*
X126050000Y-106800000D02*
X126070000Y-106800000D01*
X126070000Y-105200000D02*
X126050000Y-105200000D01*
X128230000Y-106800000D02*
X128250000Y-106800000D01*
X128250000Y-105200000D02*
X128230000Y-105200000D01*
X128250000Y-105670000D02*
X128250000Y-105200000D01*
X128250000Y-106800000D02*
X128250000Y-106330000D01*
%TO.C,J4*%
D14*
X131600000Y-102060000D02*
X132240000Y-102060000D01*
X131650000Y-99340000D02*
X134350000Y-99340000D01*
X132240000Y-102060000D02*
X132240000Y-102690000D01*
X134400000Y-102060000D02*
X133760000Y-102060000D01*
%TO.C,U13*%
D10*
X128970000Y-103320000D02*
X129470000Y-103320000D01*
X128970000Y-103820000D02*
X128970000Y-103320000D01*
X128970000Y-105980000D02*
X128970000Y-106480000D01*
X128970000Y-106480000D02*
X129470000Y-106480000D01*
X129470000Y-106480000D02*
X128970000Y-105980000D01*
X132130000Y-103320000D02*
X131630000Y-103320000D01*
X132130000Y-103820000D02*
X132130000Y-103320000D01*
X132130000Y-105980000D02*
X132130000Y-106480000D01*
X132130000Y-106480000D02*
X131630000Y-106480000D01*
X129480000Y-106800000D02*
G75*
G02*
X129340000Y-106800000I-70000J0D01*
G01*
X129340000Y-106800000D02*
G75*
G02*
X129480000Y-106800000I70000J0D01*
G01*
%TO.C,D2*%
D15*
X136500000Y-100450000D02*
G75*
G02*
X136400000Y-100450000I-50000J0D01*
G01*
X136400000Y-100450000D02*
G75*
G02*
X136500000Y-100450000I50000J0D01*
G01*
%TO.C,T4*%
D10*
X133900000Y-106900000D02*
X133900000Y-107370000D01*
X133900000Y-108030000D02*
X133900000Y-108500000D01*
X133900000Y-108500000D02*
X133920000Y-108500000D01*
X133920000Y-106900000D02*
X133900000Y-106900000D01*
X136080000Y-108500000D02*
X136100000Y-108500000D01*
X136100000Y-106900000D02*
X136080000Y-106900000D01*
X136100000Y-107370000D02*
X136100000Y-106900000D01*
X136100000Y-108500000D02*
X136100000Y-108030000D01*
%TO.C,J3*%
D14*
X123800000Y-102060000D02*
X124440000Y-102060000D01*
X123850000Y-99340000D02*
X126550000Y-99340000D01*
X124440000Y-102060000D02*
X124440000Y-102690000D01*
X126600000Y-102060000D02*
X125960000Y-102060000D01*
%TO.C,FL4*%
D15*
X137340910Y-108868179D02*
X137530910Y-108539090D01*
X137910910Y-107880910D02*
X138100910Y-107551821D01*
X137999090Y-109248179D02*
X138189090Y-108919090D01*
X138569090Y-108260910D02*
X138759090Y-107931821D01*
D12*
X137540000Y-109387269D02*
G75*
G02*
X137420000Y-109387269I-60000J0D01*
G01*
X137420000Y-109387269D02*
G75*
G02*
X137540000Y-109387269I60000J0D01*
G01*
D16*
X137613494Y-108708013D02*
G75*
G02*
X137553494Y-108708013I-30000J0D01*
G01*
X137553494Y-108708013D02*
G75*
G02*
X137613494Y-108708013I30000J0D01*
G01*
%TO.C,FL3*%
D15*
X129190000Y-106870000D02*
X129570000Y-106870000D01*
X129190000Y-107630000D02*
X129570000Y-107630000D01*
X130330000Y-106870000D02*
X130710000Y-106870000D01*
X130330000Y-107630000D02*
X130710000Y-107630000D01*
D12*
X128870000Y-107250000D02*
G75*
G02*
X128750000Y-107250000I-60000J0D01*
G01*
X128750000Y-107250000D02*
G75*
G02*
X128870000Y-107250000I60000J0D01*
G01*
D16*
X129480000Y-107000000D02*
G75*
G02*
X129420000Y-107000000I-30000J0D01*
G01*
X129420000Y-107000000D02*
G75*
G02*
X129480000Y-107000000I30000J0D01*
G01*
%TO.C,U12*%
D14*
X124990000Y-108190000D02*
X125465000Y-108190000D01*
X124990000Y-108665000D02*
X124990000Y-108190000D01*
X124990000Y-113410000D02*
X124990000Y-112935000D01*
X125465000Y-113410000D02*
X124990000Y-113410000D01*
X129735000Y-108190000D02*
X130210000Y-108190000D01*
X130210000Y-108190000D02*
X130210000Y-108665000D01*
X130210000Y-112935000D02*
X130210000Y-113410000D01*
X130210000Y-113410000D02*
X129735000Y-113410000D01*
X124490000Y-109050000D02*
X124160000Y-109290000D01*
X124160000Y-108810000D01*
X124490000Y-109050000D01*
G36*
X124490000Y-109050000D02*
G01*
X124160000Y-109290000D01*
X124160000Y-108810000D01*
X124490000Y-109050000D01*
G37*
%TO.C,U15*%
X133590000Y-109840000D02*
X134065000Y-109840000D01*
X133590000Y-110315000D02*
X133590000Y-109840000D01*
X133590000Y-115060000D02*
X133590000Y-114585000D01*
X134065000Y-115060000D02*
X133590000Y-115060000D01*
X138335000Y-109840000D02*
X138810000Y-109840000D01*
X138810000Y-109840000D02*
X138810000Y-110315000D01*
X138810000Y-114585000D02*
X138810000Y-115060000D01*
X138810000Y-115060000D02*
X138335000Y-115060000D01*
X133090000Y-110700000D02*
X132760000Y-110940000D01*
X132760000Y-110460000D01*
X133090000Y-110700000D01*
G36*
X133090000Y-110700000D02*
G01*
X132760000Y-110940000D01*
X132760000Y-110460000D01*
X133090000Y-110700000D01*
G37*
%TO.C,C54*%
X130240000Y-114442164D02*
X130240000Y-114657836D01*
X130960000Y-114442164D02*
X130960000Y-114657836D01*
%TO.C,U14*%
X126300000Y-102200000D02*
X126450000Y-102200000D01*
X126300000Y-102350000D02*
X126300000Y-102200000D01*
X126300000Y-104350000D02*
X126300000Y-104570000D01*
X128600000Y-102200000D02*
X128450000Y-102200000D01*
X128600000Y-102350000D02*
X128600000Y-102200000D01*
X128600000Y-104350000D02*
X128600000Y-104500000D01*
X128600000Y-104500000D02*
X128450000Y-104500000D01*
%TO.C,U17*%
X133750000Y-103850000D02*
X133900000Y-103850000D01*
X133750000Y-104000000D02*
X133750000Y-103850000D01*
X133750000Y-106000000D02*
X133750000Y-106220000D01*
X136050000Y-103850000D02*
X135900000Y-103850000D01*
X136050000Y-104000000D02*
X136050000Y-103850000D01*
X136050000Y-106000000D02*
X136050000Y-106150000D01*
X136050000Y-106150000D02*
X135900000Y-106150000D01*
%TO.C,OSC2*%
D12*
X130950000Y-111330000D02*
X130950000Y-111960000D01*
X132750000Y-110150000D02*
X130950000Y-110150000D01*
X132750000Y-111330000D02*
X132750000Y-111960000D01*
X132750000Y-113150000D02*
X130950000Y-113150000D01*
D13*
X130570000Y-110150000D02*
G75*
G02*
X130330000Y-110150000I-120000J0D01*
G01*
X130330000Y-110150000D02*
G75*
G02*
X130570000Y-110150000I120000J0D01*
G01*
%TO.C,U16*%
D10*
X136420000Y-103970000D02*
X136920000Y-103970000D01*
X136420000Y-104470000D02*
X136420000Y-103970000D01*
X136420000Y-106630000D02*
X136420000Y-107130000D01*
X136420000Y-107130000D02*
X136920000Y-107130000D01*
X136920000Y-107130000D02*
X136420000Y-106630000D01*
X139580000Y-103970000D02*
X139080000Y-103970000D01*
X139580000Y-104470000D02*
X139580000Y-103970000D01*
X139580000Y-106630000D02*
X139580000Y-107130000D01*
X139580000Y-107130000D02*
X139080000Y-107130000D01*
X136930000Y-107450000D02*
G75*
G02*
X136790000Y-107450000I-70000J0D01*
G01*
X136790000Y-107450000D02*
G75*
G02*
X136930000Y-107450000I70000J0D01*
G01*
%TO.C,U7*%
X113930000Y-107450000D02*
G75*
G02*
X113790000Y-107450000I-70000J0D01*
G01*
X113790000Y-107450000D02*
G75*
G02*
X113930000Y-107450000I70000J0D01*
G01*
X116580000Y-107130000D02*
X116080000Y-107130000D01*
X116580000Y-106630000D02*
X116580000Y-107130000D01*
X116580000Y-104470000D02*
X116580000Y-103970000D01*
X116580000Y-103970000D02*
X116080000Y-103970000D01*
X113920000Y-107130000D02*
X113420000Y-106630000D01*
X113420000Y-107130000D02*
X113920000Y-107130000D01*
X113420000Y-106630000D02*
X113420000Y-107130000D01*
X113420000Y-104470000D02*
X113420000Y-103970000D01*
X113420000Y-103970000D02*
X113920000Y-103970000D01*
%TO.C,OSC1*%
D13*
X107570000Y-110150000D02*
G75*
G02*
X107330000Y-110150000I-120000J0D01*
G01*
X107330000Y-110150000D02*
G75*
G02*
X107570000Y-110150000I120000J0D01*
G01*
D12*
X109750000Y-113150000D02*
X107950000Y-113150000D01*
X109750000Y-111330000D02*
X109750000Y-111960000D01*
X109750000Y-110150000D02*
X107950000Y-110150000D01*
X107950000Y-111330000D02*
X107950000Y-111960000D01*
%TO.C,U8*%
D14*
X113050000Y-106150000D02*
X112900000Y-106150000D01*
X113050000Y-106000000D02*
X113050000Y-106150000D01*
X113050000Y-104000000D02*
X113050000Y-103850000D01*
X113050000Y-103850000D02*
X112900000Y-103850000D01*
X110750000Y-106000000D02*
X110750000Y-106220000D01*
X110750000Y-104000000D02*
X110750000Y-103850000D01*
X110750000Y-103850000D02*
X110900000Y-103850000D01*
%TO.C,U5*%
X105780000Y-104800000D02*
X105630000Y-104800000D01*
X105780000Y-104650000D02*
X105780000Y-104800000D01*
X105780000Y-102650000D02*
X105780000Y-102500000D01*
X105780000Y-102500000D02*
X105630000Y-102500000D01*
X103480000Y-104650000D02*
X103480000Y-104870000D01*
X103480000Y-102650000D02*
X103480000Y-102500000D01*
X103480000Y-102500000D02*
X103630000Y-102500000D01*
%TO.C,C11*%
X107960000Y-114442164D02*
X107960000Y-114657836D01*
X107240000Y-114442164D02*
X107240000Y-114657836D01*
%TO.C,U6*%
X110090000Y-110700000D02*
X109760000Y-110940000D01*
X109760000Y-110460000D01*
X110090000Y-110700000D01*
G36*
X110090000Y-110700000D02*
G01*
X109760000Y-110940000D01*
X109760000Y-110460000D01*
X110090000Y-110700000D01*
G37*
X115810000Y-115060000D02*
X115335000Y-115060000D01*
X115810000Y-114585000D02*
X115810000Y-115060000D01*
X115810000Y-109840000D02*
X115810000Y-110315000D01*
X115335000Y-109840000D02*
X115810000Y-109840000D01*
X111065000Y-115060000D02*
X110590000Y-115060000D01*
X110590000Y-115060000D02*
X110590000Y-114585000D01*
X110590000Y-110315000D02*
X110590000Y-109840000D01*
X110590000Y-109840000D02*
X111065000Y-109840000D01*
%TO.C,U3*%
X101490000Y-109050000D02*
X101160000Y-109290000D01*
X101160000Y-108810000D01*
X101490000Y-109050000D01*
G36*
X101490000Y-109050000D02*
G01*
X101160000Y-109290000D01*
X101160000Y-108810000D01*
X101490000Y-109050000D01*
G37*
X107210000Y-113410000D02*
X106735000Y-113410000D01*
X107210000Y-112935000D02*
X107210000Y-113410000D01*
X107210000Y-108190000D02*
X107210000Y-108665000D01*
X106735000Y-108190000D02*
X107210000Y-108190000D01*
X102465000Y-113410000D02*
X101990000Y-113410000D01*
X101990000Y-113410000D02*
X101990000Y-112935000D01*
X101990000Y-108665000D02*
X101990000Y-108190000D01*
X101990000Y-108190000D02*
X102465000Y-108190000D01*
%TO.C,FL1*%
D16*
X106480000Y-107000000D02*
G75*
G02*
X106420000Y-107000000I-30000J0D01*
G01*
X106420000Y-107000000D02*
G75*
G02*
X106480000Y-107000000I30000J0D01*
G01*
D12*
X105870000Y-107250000D02*
G75*
G02*
X105750000Y-107250000I-60000J0D01*
G01*
X105750000Y-107250000D02*
G75*
G02*
X105870000Y-107250000I60000J0D01*
G01*
D15*
X107330000Y-107630000D02*
X107710000Y-107630000D01*
X107330000Y-106870000D02*
X107710000Y-106870000D01*
X106190000Y-107630000D02*
X106570000Y-107630000D01*
X106190000Y-106870000D02*
X106570000Y-106870000D01*
%TO.C,FL2*%
D16*
X114613494Y-108708013D02*
G75*
G02*
X114553494Y-108708013I-30000J0D01*
G01*
X114553494Y-108708013D02*
G75*
G02*
X114613494Y-108708013I30000J0D01*
G01*
D12*
X114540000Y-109387269D02*
G75*
G02*
X114420000Y-109387269I-60000J0D01*
G01*
X114420000Y-109387269D02*
G75*
G02*
X114540000Y-109387269I60000J0D01*
G01*
D15*
X115569090Y-108260910D02*
X115759090Y-107931821D01*
X114999090Y-109248179D02*
X115189090Y-108919090D01*
X114910910Y-107880910D02*
X115100910Y-107551821D01*
X114340910Y-108868179D02*
X114530910Y-108539090D01*
%TO.C,T2*%
D10*
X113100000Y-108500000D02*
X113100000Y-108030000D01*
X113100000Y-107370000D02*
X113100000Y-106900000D01*
X113100000Y-106900000D02*
X113080000Y-106900000D01*
X113080000Y-108500000D02*
X113100000Y-108500000D01*
X110920000Y-106900000D02*
X110900000Y-106900000D01*
X110900000Y-108500000D02*
X110920000Y-108500000D01*
X110900000Y-108030000D02*
X110900000Y-108500000D01*
X110900000Y-106900000D02*
X110900000Y-107370000D01*
%TO.C,U4*%
X106880000Y-106800000D02*
G75*
G02*
X106740000Y-106800000I-70000J0D01*
G01*
X106740000Y-106800000D02*
G75*
G02*
X106880000Y-106800000I70000J0D01*
G01*
X109530000Y-106480000D02*
X109030000Y-106480000D01*
X109530000Y-105980000D02*
X109530000Y-106480000D01*
X109530000Y-103820000D02*
X109530000Y-103320000D01*
X109530000Y-103320000D02*
X109030000Y-103320000D01*
X106870000Y-106480000D02*
X106370000Y-105980000D01*
X106370000Y-106480000D02*
X106870000Y-106480000D01*
X106370000Y-105980000D02*
X106370000Y-106480000D01*
X106370000Y-103820000D02*
X106370000Y-103320000D01*
X106370000Y-103320000D02*
X106870000Y-103320000D01*
%TO.C,T1*%
X105250000Y-107200000D02*
X105250000Y-106730000D01*
X105250000Y-106070000D02*
X105250000Y-105600000D01*
X105250000Y-105600000D02*
X105230000Y-105600000D01*
X105230000Y-107200000D02*
X105250000Y-107200000D01*
X103070000Y-105600000D02*
X103050000Y-105600000D01*
X103050000Y-107200000D02*
X103070000Y-107200000D01*
X103050000Y-106730000D02*
X103050000Y-107200000D01*
X103050000Y-105600000D02*
X103050000Y-106070000D01*
%TD*%
M02*
