%TF.GenerationSoftware,KiCad,Pcbnew,10.0.2*%
%TF.CreationDate,2026-05-13T13:08:34+02:00*%
%TF.ProjectId,OpenRX-all,4f70656e-5258-42d6-916c-6c2e6b696361,rev?*%
%TF.SameCoordinates,Original*%
%TF.FileFunction,Plated,1,6,PTH,Drill*%
%TF.FilePolarity,Positive*%
%FSLAX46Y46*%
G04 Gerber Fmt 4.6, Leading zero omitted, Abs format (unit mm)*
G04 Created by KiCad (PCBNEW 10.0.2) date 2026-05-13 13:08:34*
%MOMM*%
%LPD*%
G01*
G04 APERTURE LIST*
%TA.AperFunction,ViaDrill*%
%ADD10C,0.200000*%
%TD*%
%TA.AperFunction,ComponentDrill*%
%ADD11C,0.400000*%
%TD*%
%TA.AperFunction,ComponentDrill*%
%ADD12C,0.500000*%
%TD*%
G04 APERTURE END LIST*
D10*
X100424999Y-110715884D03*
X100425000Y-109300000D03*
X100650000Y-111750000D03*
X100676186Y-112544071D03*
X100951422Y-114502723D03*
X101610000Y-113450000D03*
X101635000Y-109464501D03*
X101938974Y-107843818D03*
X101985000Y-103902853D03*
X102142106Y-103002046D03*
X102168232Y-112989998D03*
X102253319Y-114224999D03*
X102287211Y-104403673D03*
X102410000Y-108107895D03*
X102579559Y-105129559D03*
X102600000Y-103650000D03*
X102722519Y-115264999D03*
X102871680Y-111928320D03*
X102900000Y-102835000D03*
X102900000Y-114235000D03*
X102920441Y-112529559D03*
X102934998Y-109650000D03*
X103030335Y-109047193D03*
X103150000Y-106400000D03*
X103253893Y-104455225D03*
X103600000Y-109750000D03*
X103634000Y-103062000D03*
X103650000Y-102560000D03*
X103912500Y-114000000D03*
X103950000Y-111050000D03*
X103950000Y-111550000D03*
X104232451Y-103790000D03*
X104250000Y-101750000D03*
X104400000Y-105650000D03*
X104630000Y-104580000D03*
X104650000Y-102600000D03*
X104750000Y-109134998D03*
X104800000Y-111880000D03*
X104800462Y-112535000D03*
X105012342Y-101721500D03*
X105150000Y-106400000D03*
X105200000Y-110550000D03*
X105290003Y-109134998D03*
X105390000Y-107635000D03*
X105410000Y-113467210D03*
X105537679Y-103146796D03*
X105550000Y-101721500D03*
X105550000Y-104150000D03*
X105743721Y-103645943D03*
X105785000Y-112383329D03*
X105800000Y-105642755D03*
X106150000Y-102650000D03*
X106265000Y-111381597D03*
X106350000Y-105150000D03*
X106359654Y-110849955D03*
X106378206Y-109790000D03*
X106380073Y-112293070D03*
X106550000Y-103600000D03*
X106789999Y-108153239D03*
X106790000Y-112994679D03*
X106840000Y-106770000D03*
X106850000Y-102650000D03*
X107150000Y-105350000D03*
X107174732Y-113373604D03*
X107187743Y-111056588D03*
X107206758Y-109991115D03*
X107284998Y-110525419D03*
X107284998Y-111610000D03*
X107300000Y-103450000D03*
X107349991Y-101721496D03*
X107350000Y-102500000D03*
X107400000Y-108100000D03*
X107450000Y-104450000D03*
X107600000Y-105050000D03*
X107600000Y-109434998D03*
X107650000Y-106040000D03*
X107700000Y-108500000D03*
X107765000Y-112100000D03*
X107900000Y-104100000D03*
X107971569Y-114454024D03*
X108080000Y-110350000D03*
X108122005Y-101918824D03*
X108150000Y-104550000D03*
X108150000Y-109434998D03*
X108150000Y-110900000D03*
X108150000Y-111400000D03*
X108204559Y-106240000D03*
X108350000Y-111900000D03*
X108420000Y-107650000D03*
X108600000Y-102650000D03*
X108700000Y-111350000D03*
X108735925Y-113856076D03*
X108800000Y-104700000D03*
X108900000Y-103650000D03*
X108900000Y-109400000D03*
X108950000Y-107900000D03*
X109000000Y-111850000D03*
X109175000Y-112825000D03*
X109268712Y-113968475D03*
X109275950Y-109989050D03*
X109350000Y-104100000D03*
X109660602Y-106105002D03*
X109700000Y-111800000D03*
X109900000Y-102800000D03*
X110100000Y-115300000D03*
X110144997Y-109365000D03*
X110164354Y-106980000D03*
X110400564Y-103662266D03*
X110450000Y-104200000D03*
X110521683Y-105585222D03*
X110600000Y-116500000D03*
X110685000Y-109365000D03*
X110697742Y-111187888D03*
X110950000Y-107700000D03*
X110971767Y-104485000D03*
X110975000Y-105024999D03*
X110984998Y-103950000D03*
X110993697Y-105636487D03*
X111095199Y-103427436D03*
X111389475Y-115065000D03*
X111461217Y-113300846D03*
X111463627Y-112500000D03*
X111481394Y-102970231D03*
X111500000Y-115650000D03*
X111550347Y-104677350D03*
X111600000Y-105400000D03*
X111815002Y-104000000D03*
X111900000Y-105950000D03*
X112016367Y-114493310D03*
X112119692Y-102821500D03*
X112150000Y-113500000D03*
X112169271Y-103578500D03*
X112250000Y-106950000D03*
X112300000Y-102300000D03*
X112480000Y-110784998D03*
X112647509Y-114269999D03*
X112650000Y-102821500D03*
X112820000Y-104400000D03*
X112900000Y-115200000D03*
X112905542Y-104958498D03*
X112908646Y-105498492D03*
X112950000Y-113550000D03*
X113050000Y-107700000D03*
X113070000Y-113000000D03*
X113075000Y-112400000D03*
X113137597Y-102693286D03*
X113184998Y-111300000D03*
X113215002Y-108300000D03*
X113250000Y-103715000D03*
X113300000Y-110800000D03*
X113550000Y-106300000D03*
X113850000Y-108300000D03*
X113850000Y-110750000D03*
X113900000Y-103715000D03*
X113950000Y-114900000D03*
X113980000Y-108890000D03*
X114050000Y-113550000D03*
X114164088Y-102685029D03*
X114370000Y-105600000D03*
X114400000Y-111350000D03*
X114450000Y-112250000D03*
X114498035Y-103578500D03*
X114700000Y-105000000D03*
X114700000Y-108200000D03*
X114702340Y-102826602D03*
X114750000Y-104100000D03*
X114890000Y-107520260D03*
X114957429Y-115615000D03*
X115015000Y-109605157D03*
X115016853Y-112224671D03*
X115050000Y-106100000D03*
X115116148Y-111693876D03*
X115273597Y-103072773D03*
X115400000Y-108550000D03*
X115400813Y-111235002D03*
X115420728Y-115337589D03*
X115450000Y-105650000D03*
X115450000Y-114800000D03*
X115500000Y-105000000D03*
X115555001Y-109604997D03*
X115558660Y-103477456D03*
X115750000Y-104050000D03*
X115855000Y-108869998D03*
X115924170Y-107643142D03*
X116050000Y-104800000D03*
X116050000Y-105350000D03*
X116150000Y-116450000D03*
X116350000Y-115150000D03*
X116450000Y-105800000D03*
X116575000Y-102980000D03*
X116575000Y-103620000D03*
X116575000Y-108985002D03*
X123424999Y-110715884D03*
X123425000Y-109300000D03*
X123650000Y-111750000D03*
X123676186Y-112544071D03*
X123850000Y-101200000D03*
X123900000Y-100000000D03*
X123900000Y-100600000D03*
X123951422Y-114502723D03*
X124000000Y-101700000D03*
X124300000Y-102200000D03*
X124400000Y-102750000D03*
X124610000Y-113450000D03*
X124635000Y-109464501D03*
X124650000Y-103250000D03*
X124750000Y-103800000D03*
X124950000Y-107800000D03*
X125168232Y-112989998D03*
X125253319Y-114224999D03*
X125700000Y-107500000D03*
X125722519Y-115264999D03*
X125750000Y-105100000D03*
X125779559Y-103879559D03*
X125871680Y-111928320D03*
X125900000Y-114235000D03*
X125920441Y-112529559D03*
X125934998Y-109650000D03*
X126005888Y-102601459D03*
X126030335Y-109047193D03*
X126050000Y-101950000D03*
X126150000Y-106000000D03*
X126400000Y-101400000D03*
X126550000Y-100100000D03*
X126557881Y-102082135D03*
X126600000Y-100750000D03*
X126600000Y-109750000D03*
X126912500Y-114000000D03*
X126913198Y-101657066D03*
X126950000Y-111050000D03*
X126950000Y-111550000D03*
X127000000Y-103720000D03*
X127100000Y-100350000D03*
X127400000Y-105250000D03*
X127428824Y-101429030D03*
X127448969Y-104300000D03*
X127481660Y-102189309D03*
X127750000Y-109134998D03*
X127800000Y-111880000D03*
X127800462Y-112535000D03*
X127950000Y-101421500D03*
X128150000Y-106000000D03*
X128200000Y-110550000D03*
X128250000Y-103350000D03*
X128290003Y-109134998D03*
X128300000Y-107550000D03*
X128312805Y-102813664D03*
X128410000Y-113467210D03*
X128482697Y-101421500D03*
X128491497Y-103832993D03*
X128785000Y-112383329D03*
X129009840Y-101285000D03*
X129074115Y-102314998D03*
X129080000Y-105605002D03*
X129265000Y-111381597D03*
X129359654Y-110849955D03*
X129378206Y-109790000D03*
X129380073Y-112293070D03*
X129598148Y-101285000D03*
X129789999Y-108153239D03*
X129790000Y-112994679D03*
X129840000Y-106770000D03*
X130000000Y-105350000D03*
X130170789Y-102186393D03*
X130174732Y-113373604D03*
X130187743Y-111056588D03*
X130206758Y-109991115D03*
X130221116Y-101428320D03*
X130284998Y-110525419D03*
X130284998Y-111610000D03*
X130300000Y-103450000D03*
X130400000Y-108100000D03*
X130421500Y-102640000D03*
X130450000Y-104450000D03*
X130600000Y-105050000D03*
X130600000Y-109434998D03*
X130700000Y-108500000D03*
X130765000Y-112100000D03*
X130780096Y-101662959D03*
X130971569Y-114454024D03*
X131080000Y-110350000D03*
X131128440Y-102175224D03*
X131150000Y-104550000D03*
X131150000Y-109434998D03*
X131150000Y-110900000D03*
X131150000Y-111400000D03*
X131178500Y-102750000D03*
X131350000Y-111900000D03*
X131400000Y-100350000D03*
X131420000Y-107650000D03*
X131450000Y-101100000D03*
X131700000Y-101550000D03*
X131700000Y-111350000D03*
X131735925Y-113856076D03*
X131750000Y-100700000D03*
X131800000Y-99950000D03*
X131850000Y-104650000D03*
X131900000Y-109400000D03*
X131950000Y-107900000D03*
X132000000Y-105650000D03*
X132000000Y-111850000D03*
X132050000Y-102100000D03*
X132100000Y-102650000D03*
X132175000Y-112825000D03*
X132268712Y-113968475D03*
X132275950Y-109989050D03*
X132350000Y-103050000D03*
X132400000Y-103700000D03*
X132700000Y-111800000D03*
X132800000Y-106070000D03*
X132824999Y-105484116D03*
X133100000Y-115300000D03*
X133144997Y-109365000D03*
X133400000Y-106900000D03*
X133500000Y-103550000D03*
X133500000Y-104200000D03*
X133600000Y-116500000D03*
X133650000Y-103000000D03*
X133685000Y-109365000D03*
X133697742Y-111187888D03*
X133850000Y-105450000D03*
X133900000Y-102450000D03*
X133900000Y-104550000D03*
X133950000Y-107700000D03*
X133984998Y-103950000D03*
X134050000Y-101950000D03*
X134095199Y-103427436D03*
X134200000Y-100000000D03*
X134300000Y-101450000D03*
X134350000Y-100650000D03*
X134389475Y-115065000D03*
X134461217Y-113300846D03*
X134463627Y-112500000D03*
X134481394Y-102970231D03*
X134500000Y-115650000D03*
X134600000Y-101050000D03*
X134650000Y-100200000D03*
X134800000Y-104950000D03*
X134815002Y-104000000D03*
X134900000Y-105950000D03*
X135016367Y-114493310D03*
X135119692Y-102821500D03*
X135150000Y-113500000D03*
X135169271Y-103578500D03*
X135250000Y-106950000D03*
X135480000Y-110784998D03*
X135647509Y-114269999D03*
X135650000Y-102821500D03*
X135820000Y-104400000D03*
X135900000Y-115200000D03*
X135905542Y-104958498D03*
X135908646Y-105498492D03*
X135950000Y-113550000D03*
X136050000Y-107700000D03*
X136070000Y-113000000D03*
X136075000Y-112400000D03*
X136137597Y-102693286D03*
X136184998Y-111300000D03*
X136215002Y-108300000D03*
X136250000Y-103715000D03*
X136300000Y-110800000D03*
X136550000Y-106300000D03*
X136850000Y-108300000D03*
X136850000Y-110750000D03*
X136900000Y-103715000D03*
X136950000Y-114900000D03*
X136980000Y-108890000D03*
X137050000Y-113550000D03*
X137164088Y-102685029D03*
X137370000Y-105600000D03*
X137400000Y-111350000D03*
X137450000Y-112250000D03*
X137498035Y-103578500D03*
X137670000Y-100830000D03*
X137670000Y-101670000D03*
X137700000Y-105000000D03*
X137700000Y-108200000D03*
X137702340Y-102826602D03*
X137750000Y-104100000D03*
X137890000Y-107520260D03*
X137957429Y-115615000D03*
X138015000Y-109605157D03*
X138016853Y-112224671D03*
X138050000Y-106100000D03*
X138116148Y-111693876D03*
X138273597Y-103072773D03*
X138400000Y-108550000D03*
X138400813Y-111235002D03*
X138420728Y-115337589D03*
X138450000Y-105650000D03*
X138450000Y-114800000D03*
X138500000Y-105000000D03*
X138555001Y-109604997D03*
X138558660Y-103477456D03*
X138750000Y-104050000D03*
X138855000Y-108869998D03*
X138924170Y-107643142D03*
X139050000Y-104800000D03*
X139050000Y-105350000D03*
X139150000Y-116450000D03*
X139350000Y-115150000D03*
X139450000Y-105800000D03*
X139575000Y-102980000D03*
X139575000Y-103620000D03*
X139575000Y-108985002D03*
X145430000Y-109750000D03*
X145450000Y-101650000D03*
X145450000Y-102400000D03*
X145500000Y-102900000D03*
X145610000Y-112800000D03*
X145610000Y-114950000D03*
X145640000Y-111334998D03*
X145800000Y-101125000D03*
X145800000Y-102000000D03*
X146225000Y-108225000D03*
X146290000Y-109010000D03*
X146350000Y-115250000D03*
X146642312Y-113139453D03*
X146650000Y-109950000D03*
X146685000Y-111025003D03*
X147153990Y-104729207D03*
X147232928Y-113132343D03*
X147315000Y-108350000D03*
X147485000Y-112654785D03*
X147500000Y-105450000D03*
X147589860Y-109160140D03*
X147650000Y-115350000D03*
X147790441Y-113790441D03*
X147850000Y-106450000D03*
X147880000Y-110200000D03*
X148100000Y-103400000D03*
X148200000Y-111700000D03*
X148214029Y-103985000D03*
X148350000Y-108600000D03*
X148375000Y-101200000D03*
X148450000Y-102300000D03*
X148498651Y-109508267D03*
X148500000Y-105700000D03*
X148620000Y-114650000D03*
X148666266Y-115188017D03*
X148800000Y-107050000D03*
X148850000Y-101471500D03*
X148950000Y-103700000D03*
X149000000Y-102950000D03*
X149094999Y-113124228D03*
X149200000Y-115100000D03*
X149250000Y-101150000D03*
X149308667Y-110110000D03*
X149393017Y-102228500D03*
X149700000Y-101471500D03*
X149700000Y-112550000D03*
X149750000Y-107050000D03*
X149850000Y-115750000D03*
X149900000Y-103570000D03*
X149950000Y-103000000D03*
X150200000Y-102500000D03*
X150350000Y-113165002D03*
X150400000Y-113900000D03*
X150450000Y-101471500D03*
X150703107Y-102245922D03*
X150720000Y-102950000D03*
X150750000Y-107050000D03*
X150830000Y-104510000D03*
X150850000Y-110150000D03*
X151060000Y-112750000D03*
X151129214Y-101369685D03*
X151200000Y-109750000D03*
X151267703Y-107520059D03*
X151340000Y-108078666D03*
X151340000Y-113800000D03*
X151368228Y-102365000D03*
X151450000Y-113165002D03*
X151664117Y-104805000D03*
X151700000Y-106850000D03*
X151795000Y-105735883D03*
X151800000Y-102850000D03*
X151800000Y-110500000D03*
X151899549Y-101336491D03*
X152045926Y-114478663D03*
X152250000Y-103350000D03*
X152550000Y-115850000D03*
X152574001Y-112590246D03*
X152594203Y-108307471D03*
X152600000Y-103950000D03*
X152600000Y-104650000D03*
X152630000Y-114950000D03*
X152700000Y-101450000D03*
X152700000Y-102400000D03*
X152726432Y-113164240D03*
X152750000Y-105550000D03*
X152880785Y-106152947D03*
X153117211Y-111189096D03*
X153186977Y-113446195D03*
X153200000Y-114150000D03*
X153270000Y-114950000D03*
X153277195Y-107564884D03*
X153330395Y-101663525D03*
X153596185Y-113093844D03*
X153600000Y-103250000D03*
X153653647Y-102147616D03*
X153750000Y-107258993D03*
X153815000Y-111704297D03*
X153984820Y-109468956D03*
X153988068Y-113871425D03*
X153995000Y-110014671D03*
X153999957Y-111053389D03*
X154145333Y-110533323D03*
X154240001Y-105374112D03*
X154250000Y-115050000D03*
X154305147Y-108567950D03*
X154350919Y-104845623D03*
X154400000Y-101480000D03*
X154450000Y-103750000D03*
X154535000Y-112420000D03*
X154535000Y-113380000D03*
X154575000Y-103250000D03*
X154575000Y-104305002D03*
X154575000Y-111580000D03*
X161020000Y-107390000D03*
X161100000Y-110450000D03*
X161100000Y-111300000D03*
X161137032Y-112284182D03*
X161450000Y-107950000D03*
X161635000Y-111900000D03*
X161814783Y-113285945D03*
X161858504Y-115382993D03*
X161880000Y-108270000D03*
X161935136Y-109343035D03*
X162100000Y-114900000D03*
X162170000Y-107370000D03*
X162280000Y-112750000D03*
X162395000Y-109900000D03*
X162589998Y-107200000D03*
X162710000Y-108580000D03*
X163000000Y-114950000D03*
X163450000Y-113150000D03*
X163500000Y-109500000D03*
X163780406Y-113642432D03*
X164000000Y-107080000D03*
X164331806Y-110046067D03*
X164350000Y-113850000D03*
X164385659Y-110834497D03*
X164477178Y-107395000D03*
X164920000Y-107760000D03*
X165000000Y-113900000D03*
X165090000Y-109790000D03*
X165100000Y-111300000D03*
X165100000Y-112300000D03*
X165175000Y-108240000D03*
X165217143Y-112827143D03*
X165550000Y-115950000D03*
X165600000Y-110400000D03*
X165610000Y-114380000D03*
X165715000Y-109301616D03*
X165950000Y-106930000D03*
X165990000Y-108250000D03*
X166300000Y-109350000D03*
X166380000Y-113000000D03*
X166410000Y-107840000D03*
X166570000Y-109950000D03*
X166650000Y-110350000D03*
X167050000Y-109800000D03*
X167240000Y-111385000D03*
X167300713Y-107813364D03*
X167650000Y-110550000D03*
X168050000Y-114450000D03*
X168050000Y-115950000D03*
X168140000Y-111900481D03*
X168150000Y-113600000D03*
X168250000Y-109950000D03*
X168750000Y-114700000D03*
X168829999Y-113452117D03*
X168850000Y-110450000D03*
X169925000Y-109279142D03*
X170051016Y-109804235D03*
X170070000Y-111200000D03*
X170075000Y-108740000D03*
X170075000Y-111930000D03*
X177020000Y-107390000D03*
X177100000Y-110450000D03*
X177100000Y-111300000D03*
X177137032Y-112284182D03*
X177450000Y-107950000D03*
X177635000Y-111900000D03*
X177814783Y-113285945D03*
X177858504Y-115382993D03*
X177880000Y-108270000D03*
X177923107Y-109340911D03*
X178100000Y-114900000D03*
X178170000Y-107370000D03*
X178280000Y-112750000D03*
X178395000Y-109900000D03*
X178589998Y-107200000D03*
X178750000Y-108590000D03*
X179000000Y-114950000D03*
X179450000Y-113150000D03*
X179646400Y-109448235D03*
X179780406Y-113642432D03*
X180000000Y-107080000D03*
X180331806Y-110046067D03*
X180350000Y-113850000D03*
X180385659Y-110834497D03*
X180477178Y-107395000D03*
X180756587Y-107860000D03*
X181000000Y-113900000D03*
X181080000Y-109800000D03*
X181100000Y-111300000D03*
X181100000Y-112300000D03*
X181175000Y-108240000D03*
X181217143Y-112827143D03*
X181494559Y-115994559D03*
X181600000Y-110400000D03*
X181610000Y-114380000D03*
X181720000Y-109430000D03*
X181900000Y-107950000D03*
X181950000Y-106930000D03*
X182020000Y-108610000D03*
X182300000Y-109650000D03*
X182380000Y-113000000D03*
X182650000Y-110350000D03*
X183230000Y-111385000D03*
X183265763Y-107815000D03*
X183650000Y-110550000D03*
X184050000Y-114450000D03*
X184050000Y-115950000D03*
X184140000Y-111900481D03*
X184150000Y-113600000D03*
X184250000Y-109950000D03*
X184750000Y-114700000D03*
X184829999Y-113452117D03*
X184850000Y-110450000D03*
X184950000Y-109200000D03*
X185183553Y-107815000D03*
X185924155Y-109838053D03*
X185970002Y-108759997D03*
X185970002Y-109300000D03*
X186070000Y-111200000D03*
X186075000Y-111930000D03*
D11*
%TO.C,TP1*%
X100800000Y-116300000D03*
X100800000Y-117700000D03*
X101800000Y-116300000D03*
X101800000Y-117700000D03*
%TO.C,TP2*%
X103340000Y-116300000D03*
X103340000Y-117700000D03*
X104340000Y-116300000D03*
X104340000Y-117700000D03*
%TO.C,TP3*%
X105880000Y-116300000D03*
X105880000Y-117700000D03*
X106880000Y-116300000D03*
X106880000Y-117700000D03*
%TO.C,TP4*%
X108420000Y-116300000D03*
X108420000Y-117700000D03*
X109420000Y-116300000D03*
X109420000Y-117700000D03*
%TO.C,TP5*%
X123800000Y-116300000D03*
X123800000Y-117700000D03*
X124800000Y-116300000D03*
X124800000Y-117700000D03*
%TO.C,TP6*%
X126340000Y-116300000D03*
X126340000Y-117700000D03*
X127340000Y-116300000D03*
X127340000Y-117700000D03*
%TO.C,TP7*%
X128880000Y-116300000D03*
X128880000Y-117700000D03*
X129880000Y-116300000D03*
X129880000Y-117700000D03*
%TO.C,TP8*%
X131420000Y-116300000D03*
X131420000Y-117700000D03*
X132420000Y-116300000D03*
X132420000Y-117700000D03*
%TO.C,TP19*%
X145690000Y-116300000D03*
X145690000Y-117700000D03*
X146690000Y-116300000D03*
X146690000Y-117700000D03*
%TO.C,TP20*%
X148230000Y-116300000D03*
X148230000Y-117700000D03*
X149230000Y-116300000D03*
X149230000Y-117700000D03*
%TO.C,TP21*%
X150770000Y-116300000D03*
X150770000Y-117700000D03*
X151770000Y-116300000D03*
X151770000Y-117700000D03*
%TO.C,TP22*%
X153310000Y-116300000D03*
X153310000Y-117700000D03*
X154310000Y-116300000D03*
X154310000Y-117700000D03*
%TO.C,TP9*%
X161184048Y-116300000D03*
X161184048Y-117700000D03*
X162184048Y-116300000D03*
X162184048Y-117700000D03*
%TO.C,TP10*%
X163724048Y-116300000D03*
X163724048Y-117700000D03*
X164724048Y-116300000D03*
X164724048Y-117700000D03*
%TO.C,TP11*%
X166270000Y-116300000D03*
X166270000Y-117700000D03*
X167270000Y-116300000D03*
X167270000Y-117700000D03*
%TO.C,TP12*%
X168810000Y-116300000D03*
X168810000Y-117700000D03*
X169810000Y-116300000D03*
X169810000Y-117700000D03*
%TO.C,TP14*%
X177184048Y-116300000D03*
X177184048Y-117700000D03*
X178184048Y-116300000D03*
X178184048Y-117700000D03*
%TO.C,TP15*%
X179724048Y-116300000D03*
X179724048Y-117700000D03*
X180724048Y-116300000D03*
X180724048Y-117700000D03*
%TO.C,TP16*%
X182270000Y-116300000D03*
X182270000Y-117700000D03*
X183270000Y-116300000D03*
X183270000Y-117700000D03*
%TO.C,TP17*%
X184810000Y-116300000D03*
X184810000Y-117700000D03*
X185810000Y-116300000D03*
X185810000Y-117700000D03*
D12*
%TO.C,TP1*%
X101300000Y-117000000D03*
%TO.C,TP2*%
X103840000Y-117000000D03*
%TO.C,TP3*%
X106380000Y-117000000D03*
%TO.C,TP4*%
X108920000Y-117000000D03*
%TO.C,TP5*%
X124300000Y-117000000D03*
%TO.C,TP6*%
X126840000Y-117000000D03*
%TO.C,TP7*%
X129380000Y-117000000D03*
%TO.C,TP8*%
X131920000Y-117000000D03*
%TO.C,TP19*%
X146190000Y-117000000D03*
%TO.C,TP20*%
X148730000Y-117000000D03*
%TO.C,TP21*%
X151270000Y-117000000D03*
%TO.C,TP22*%
X153810000Y-117000000D03*
%TO.C,TP9*%
X161684048Y-117000000D03*
%TO.C,TP10*%
X164224048Y-117000000D03*
%TO.C,TP11*%
X166770000Y-117000000D03*
%TO.C,TP12*%
X169310000Y-117000000D03*
%TO.C,TP14*%
X177684048Y-117000000D03*
%TO.C,TP15*%
X180224048Y-117000000D03*
%TO.C,TP16*%
X182770000Y-117000000D03*
%TO.C,TP17*%
X185310000Y-117000000D03*
M02*
