%TF.GenerationSoftware,KiCad,Pcbnew,10.0.2*%
%TF.CreationDate,2026-05-13T13:08:24+02:00*%
%TF.ProjectId,OpenRX-all,4f70656e-5258-42d6-916c-6c2e6b696361,rev?*%
%TF.SameCoordinates,Original*%
%TF.FileFunction,Soldermask,Bot*%
%TF.FilePolarity,Negative*%
%FSLAX46Y46*%
G04 Gerber Fmt 4.6, Leading zero omitted, Abs format (unit mm)*
G04 Created by KiCad (PCBNEW 10.0.2) date 2026-05-13 13:08:24*
%MOMM*%
%LPD*%
G01*
G04 APERTURE LIST*
G04 Aperture macros list*
%AMRoundRect*
0 Rectangle with rounded corners*
0 $1 Rounding radius*
0 $2 $3 $4 $5 $6 $7 $8 $9 X,Y pos of 4 corners*
0 Add a 4 corners polygon primitive as box body*
4,1,4,$2,$3,$4,$5,$6,$7,$8,$9,$2,$3,0*
0 Add four circle primitives for the rounded corners*
1,1,$1+$1,$2,$3*
1,1,$1+$1,$4,$5*
1,1,$1+$1,$6,$7*
1,1,$1+$1,$8,$9*
0 Add four rect primitives between the rounded corners*
20,1,$1+$1,$2,$3,$4,$5,0*
20,1,$1+$1,$4,$5,$6,$7,0*
20,1,$1+$1,$6,$7,$8,$9,0*
20,1,$1+$1,$8,$9,$2,$3,0*%
%AMRotRect*
0 Rectangle, with rotation*
0 The origin of the aperture is its center*
0 $1 length*
0 $2 width*
0 $3 Rotation angle, in degrees counterclockwise*
0 Add horizontal line*
21,1,$1,$2,0,0,$3*%
%AMFreePoly0*
4,1,15,0.030697,0.149468,0.210697,0.009468,0.229614,-0.023798,0.230000,-0.030000,0.230000,-0.110000,0.215355,-0.145355,0.180000,-0.160000,-0.180000,-0.160000,-0.215355,-0.145355,-0.230000,-0.110000,-0.230000,0.110000,-0.215355,0.145355,-0.180000,0.160000,0.000000,0.160000,0.030697,0.149468,0.030697,0.149468,$1*%
%AMFreePoly1*
4,1,15,0.215355,0.155355,0.230000,0.120000,0.230000,0.040000,0.215355,0.004645,0.210697,0.000532,0.030697,-0.139468,0.000000,-0.150000,-0.180000,-0.150000,-0.215355,-0.135355,-0.230000,-0.100000,-0.230000,0.120000,-0.215355,0.155355,-0.180000,0.170000,0.180000,0.170000,0.215355,0.155355,0.215355,0.155355,$1*%
%AMFreePoly2*
4,1,15,0.215355,0.155355,0.230000,0.120000,0.230000,-0.100000,0.215355,-0.135355,0.180000,-0.150000,0.000000,-0.150000,-0.030697,-0.139468,-0.210697,0.000532,-0.229614,0.033798,-0.230000,0.040000,-0.230000,0.120000,-0.215355,0.155355,-0.180000,0.170000,0.180000,0.170000,0.215355,0.155355,0.215355,0.155355,$1*%
%AMFreePoly3*
4,1,15,0.215355,0.145355,0.230000,0.110000,0.230000,-0.110000,0.215355,-0.145355,0.180000,-0.160000,-0.180000,-0.160000,-0.215355,-0.145355,-0.230000,-0.110000,-0.230000,-0.030000,-0.215355,0.005355,-0.210697,0.009468,-0.030697,0.149468,0.000000,0.160000,0.180000,0.160000,0.215355,0.145355,0.215355,0.145355,$1*%
G04 Aperture macros list end*
%ADD10C,0.125000*%
%ADD11C,0.250000*%
%ADD12RoundRect,0.100000X0.100000X-0.130000X0.100000X0.130000X-0.100000X0.130000X-0.100000X-0.130000X0*%
%ADD13RoundRect,0.100000X0.130000X0.100000X-0.130000X0.100000X-0.130000X-0.100000X0.130000X-0.100000X0*%
%ADD14RoundRect,0.140000X-0.140000X-0.170000X0.140000X-0.170000X0.140000X0.170000X-0.140000X0.170000X0*%
%ADD15RoundRect,0.100000X-0.130000X-0.100000X0.130000X-0.100000X0.130000X0.100000X-0.130000X0.100000X0*%
%ADD16C,0.600000*%
%ADD17RoundRect,0.475000X-0.475000X-0.775000X0.475000X-0.775000X0.475000X0.775000X-0.475000X0.775000X0*%
%ADD18RoundRect,0.062500X0.337500X0.062500X-0.337500X0.062500X-0.337500X-0.062500X0.337500X-0.062500X0*%
%ADD19RoundRect,0.062500X0.312500X0.062500X-0.312500X0.062500X-0.312500X-0.062500X0.312500X-0.062500X0*%
%ADD20RoundRect,0.062500X0.062500X0.337500X-0.062500X0.337500X-0.062500X-0.337500X0.062500X-0.337500X0*%
%ADD21R,2.800000X2.800000*%
%ADD22RoundRect,0.100000X-0.100000X0.130000X-0.100000X-0.130000X0.100000X-0.130000X0.100000X0.130000X0*%
%ADD23R,1.750000X1.000000*%
%ADD24RoundRect,0.218750X0.218750X0.256250X-0.218750X0.256250X-0.218750X-0.256250X0.218750X-0.256250X0*%
%ADD25FreePoly0,270.000000*%
%ADD26FreePoly1,270.000000*%
%ADD27FreePoly2,270.000000*%
%ADD28FreePoly3,270.000000*%
%ADD29RotRect,0.480000X0.480000X225.000000*%
%ADD30RoundRect,0.250000X0.250000X0.250000X-0.250000X0.250000X-0.250000X-0.250000X0.250000X-0.250000X0*%
%ADD31R,0.730000X0.600000*%
%ADD32R,0.700000X0.900000*%
%ADD33R,1.000000X1.750000*%
%ADD34RoundRect,0.168750X0.431250X-0.168750X0.431250X0.168750X-0.431250X0.168750X-0.431250X-0.168750X0*%
%ADD35FreePoly0,180.000000*%
%ADD36FreePoly1,180.000000*%
%ADD37FreePoly2,180.000000*%
%ADD38FreePoly3,180.000000*%
%ADD39RotRect,0.480000X0.480000X135.000000*%
%ADD40RoundRect,0.062500X0.062500X-0.337500X0.062500X0.337500X-0.062500X0.337500X-0.062500X-0.337500X0*%
%ADD41RoundRect,0.062500X0.337500X-0.062500X0.337500X0.062500X-0.337500X0.062500X-0.337500X-0.062500X0*%
%ADD42R,3.000000X3.000000*%
%ADD43RoundRect,0.475000X-0.475000X-1.275000X0.475000X-1.275000X0.475000X1.275000X-0.475000X1.275000X0*%
%ADD44R,0.420000X0.600000*%
%ADD45R,0.550000X0.680000*%
%ADD46R,2.700000X2.700000*%
%ADD47C,0.500000*%
%ADD48RoundRect,0.250000X0.850000X0.275000X-0.850000X0.275000X-0.850000X-0.275000X0.850000X-0.275000X0*%
%ADD49RoundRect,0.250000X0.275000X0.250000X-0.275000X0.250000X-0.275000X-0.250000X0.275000X-0.250000X0*%
%ADD50R,0.450000X0.450000*%
%ADD51RoundRect,0.225000X0.225000X0.275000X-0.225000X0.275000X-0.225000X-0.275000X0.225000X-0.275000X0*%
G04 APERTURE END LIST*
D10*
G36*
X148775444Y-103595000D02*
G01*
X148535109Y-103595000D01*
X148407157Y-102979508D01*
X148377939Y-102979508D01*
X148369055Y-103595000D01*
X148122492Y-103595000D01*
X148131284Y-102945619D01*
X148094831Y-102918416D01*
X148050861Y-102874131D01*
X148020598Y-102825523D01*
X148002691Y-102771596D01*
X147923217Y-102389404D01*
X148166263Y-102389404D01*
X148166364Y-102402850D01*
X148227730Y-102698231D01*
X148243392Y-102723236D01*
X148268488Y-102733586D01*
X148356049Y-102733586D01*
X148280303Y-102369603D01*
X148192742Y-102369603D01*
X148171768Y-102379036D01*
X148166263Y-102389404D01*
X147923217Y-102389404D01*
X147911557Y-102333333D01*
X147906816Y-102275928D01*
X147916972Y-102227192D01*
X147941325Y-102184497D01*
X147977130Y-102150914D01*
X148020533Y-102130752D01*
X148073948Y-102123681D01*
X148469530Y-102123681D01*
X148775444Y-103595000D01*
G37*
G36*
X147221877Y-102647215D02*
G01*
X147240087Y-102702449D01*
X147270522Y-102751644D01*
X147314384Y-102795867D01*
X147386649Y-102856592D01*
X147339754Y-102917775D01*
X147314950Y-102960768D01*
X147304558Y-103009828D01*
X147309255Y-103067618D01*
X147418889Y-103595000D01*
X147659316Y-103595000D01*
X147537042Y-103006893D01*
X147541438Y-102987934D01*
X147558382Y-102979508D01*
X147625152Y-102979508D01*
X147646676Y-102988025D01*
X147657850Y-103006985D01*
X147780124Y-103595000D01*
X148020459Y-103595000D01*
X147910825Y-103067618D01*
X147892651Y-103011747D01*
X147862759Y-102962158D01*
X147820150Y-102917775D01*
X147747793Y-102856592D01*
X147794779Y-102795867D01*
X147818459Y-102753314D01*
X147828273Y-102704627D01*
X147823447Y-102647215D01*
X147714545Y-102123681D01*
X147474210Y-102123681D01*
X147594927Y-102704368D01*
X147592088Y-102725251D01*
X147574044Y-102733586D01*
X147507274Y-102733586D01*
X147486850Y-102725251D01*
X147474118Y-102704368D01*
X147353401Y-102123681D01*
X147112975Y-102123681D01*
X147221877Y-102647215D01*
G37*
D11*
G36*
X179234532Y-109324243D02*
G01*
X179263511Y-109340798D01*
X179286309Y-109365079D01*
X179299990Y-109394495D01*
X179304788Y-109430679D01*
X179304788Y-109695988D01*
X178320000Y-109900725D01*
X178320000Y-109736532D01*
X178730328Y-109651230D01*
X178730328Y-109635294D01*
X178320000Y-109629371D01*
X178320000Y-109560372D01*
X178898184Y-109560372D01*
X178898184Y-109616365D01*
X179136932Y-109566661D01*
X179136932Y-109509875D01*
X179131375Y-109497419D01*
X179117148Y-109494182D01*
X178920227Y-109535093D01*
X178904657Y-109544863D01*
X178898184Y-109560372D01*
X178320000Y-109560372D01*
X178320000Y-109461087D01*
X178753837Y-109466949D01*
X178771483Y-109443380D01*
X178801322Y-109413745D01*
X178834090Y-109393349D01*
X178870463Y-109381281D01*
X179162638Y-109320526D01*
X179201499Y-109317332D01*
X179234532Y-109324243D01*
G37*
G36*
X178953383Y-108860738D02*
G01*
X178916139Y-108873008D01*
X178882980Y-108893519D01*
X178853183Y-108923081D01*
X178813921Y-108969793D01*
X178774659Y-108939690D01*
X178745486Y-108922868D01*
X178712237Y-108915819D01*
X178673115Y-108918990D01*
X178320000Y-108992385D01*
X178320000Y-109156639D01*
X178714453Y-109074634D01*
X178725444Y-109077199D01*
X178730328Y-109086968D01*
X178730328Y-109131482D01*
X178725138Y-109144549D01*
X178713537Y-109151387D01*
X178320000Y-109233209D01*
X178320000Y-109397401D01*
X178673969Y-109323823D01*
X178711602Y-109311586D01*
X178745006Y-109291456D01*
X178774903Y-109262762D01*
X178814531Y-109215929D01*
X178853488Y-109246093D01*
X178882367Y-109262165D01*
X178915368Y-109268829D01*
X178954238Y-109265571D01*
X179304788Y-109192664D01*
X179304788Y-109028472D01*
X178915281Y-109109439D01*
X178902947Y-109107851D01*
X178898184Y-109097410D01*
X178898184Y-109052897D01*
X178903313Y-109040501D01*
X178916136Y-109032685D01*
X179304788Y-108951902D01*
X179304788Y-108787649D01*
X178953383Y-108860738D01*
G37*
G36*
X163234532Y-109324243D02*
G01*
X163263511Y-109340798D01*
X163286309Y-109365079D01*
X163299990Y-109394495D01*
X163304788Y-109430679D01*
X163304788Y-109695988D01*
X162320000Y-109900725D01*
X162320000Y-109736532D01*
X162730328Y-109651230D01*
X162730328Y-109635294D01*
X162320000Y-109629371D01*
X162320000Y-109560372D01*
X162898184Y-109560372D01*
X162898184Y-109616365D01*
X163136932Y-109566661D01*
X163136932Y-109509875D01*
X163131375Y-109497419D01*
X163117148Y-109494182D01*
X162920227Y-109535093D01*
X162904657Y-109544863D01*
X162898184Y-109560372D01*
X162320000Y-109560372D01*
X162320000Y-109461087D01*
X162753837Y-109466949D01*
X162771483Y-109443380D01*
X162801322Y-109413745D01*
X162834090Y-109393349D01*
X162870463Y-109381281D01*
X163162638Y-109320526D01*
X163201499Y-109317332D01*
X163234532Y-109324243D01*
G37*
G36*
X162953383Y-108860738D02*
G01*
X162916139Y-108873008D01*
X162882980Y-108893519D01*
X162853183Y-108923081D01*
X162813921Y-108969793D01*
X162774659Y-108939690D01*
X162745486Y-108922868D01*
X162712237Y-108915819D01*
X162673115Y-108918990D01*
X162320000Y-108992385D01*
X162320000Y-109156639D01*
X162714453Y-109074634D01*
X162725444Y-109077199D01*
X162730328Y-109086968D01*
X162730328Y-109131482D01*
X162725138Y-109144549D01*
X162713537Y-109151387D01*
X162320000Y-109233209D01*
X162320000Y-109397401D01*
X162673969Y-109323823D01*
X162711602Y-109311586D01*
X162745006Y-109291456D01*
X162774903Y-109262762D01*
X162814531Y-109215929D01*
X162853488Y-109246093D01*
X162882367Y-109262165D01*
X162915368Y-109268829D01*
X162954238Y-109265571D01*
X163304788Y-109192664D01*
X163304788Y-109028472D01*
X162915281Y-109109439D01*
X162902947Y-109107851D01*
X162898184Y-109097410D01*
X162898184Y-109052897D01*
X162903313Y-109040501D01*
X162916136Y-109032685D01*
X163304788Y-108951902D01*
X163304788Y-108787649D01*
X162953383Y-108860738D01*
G37*
D12*
%TO.C,C139*%
X150950000Y-105820000D03*
X150950000Y-105180000D03*
%TD*%
D13*
%TO.C,C155*%
X148470000Y-109500000D03*
X147830000Y-109500000D03*
%TD*%
D14*
%TO.C,C144*%
X145570000Y-114950000D03*
X146530000Y-114950000D03*
%TD*%
D15*
%TO.C,C153*%
X145930000Y-112500000D03*
X146570000Y-112500000D03*
%TD*%
%TO.C,R36*%
X152630000Y-114950000D03*
X153270000Y-114950000D03*
%TD*%
D13*
%TO.C,C164*%
X148620000Y-114650000D03*
X147980000Y-114650000D03*
%TD*%
D14*
%TO.C,C154*%
X145570000Y-111650000D03*
X146530000Y-111650000D03*
%TD*%
D16*
%TO.C,TP20*%
X148230000Y-116300000D03*
X148230000Y-117700000D03*
D17*
X148730000Y-117000000D03*
D16*
X149230000Y-116300000D03*
X149230000Y-117700000D03*
%TD*%
D15*
%TO.C,C141*%
X153130000Y-112750000D03*
X153770000Y-112750000D03*
%TD*%
%TO.C,R34*%
X146130000Y-110700000D03*
X146770000Y-110700000D03*
%TD*%
%TO.C,C157*%
X151830000Y-104750000D03*
X152470000Y-104750000D03*
%TD*%
%TO.C,C165*%
X153930000Y-105850000D03*
X154570000Y-105850000D03*
%TD*%
D12*
%TO.C,C146*%
X145400000Y-114070000D03*
X145400000Y-113430000D03*
%TD*%
D18*
%TO.C,U25*%
X154400000Y-107550000D03*
X154400000Y-108050000D03*
X154400000Y-108550000D03*
D19*
X154425000Y-109050000D03*
D18*
X154400000Y-109550000D03*
X154400000Y-110050000D03*
X154400000Y-110550000D03*
X154400000Y-111050000D03*
D20*
X153700000Y-111750000D03*
X153200000Y-111750000D03*
X152700000Y-111750000D03*
X152200000Y-111750000D03*
X151700000Y-111750000D03*
X151200000Y-111750000D03*
X150700000Y-111750000D03*
X150200000Y-111750000D03*
D18*
X149500000Y-111050000D03*
X149500000Y-110550000D03*
X149500000Y-109550000D03*
X149500000Y-109050000D03*
X149500000Y-108550000D03*
X149500000Y-108050000D03*
X149500000Y-107550000D03*
D20*
X150200000Y-106850000D03*
X151200000Y-106850000D03*
X151700000Y-106850000D03*
X152200000Y-106850000D03*
X152700000Y-106850000D03*
X153200000Y-106850000D03*
X153700000Y-106850000D03*
D21*
X151950000Y-109300000D03*
%TD*%
D16*
%TO.C,TP21*%
X150770000Y-116300000D03*
X150770000Y-117700000D03*
D17*
X151270000Y-117000000D03*
D16*
X151770000Y-116300000D03*
X151770000Y-117700000D03*
%TD*%
D15*
%TO.C,C167*%
X151830000Y-104050000D03*
X152470000Y-104050000D03*
%TD*%
D22*
%TO.C,C137*%
X148150000Y-104980000D03*
X148150000Y-105620000D03*
%TD*%
D15*
%TO.C,C150*%
X147830000Y-110900000D03*
X148470000Y-110900000D03*
%TD*%
%TO.C,L24*%
X149680000Y-104150000D03*
X150320000Y-104150000D03*
%TD*%
D12*
%TO.C,C152*%
X152212500Y-113970000D03*
X152212500Y-113330000D03*
%TD*%
D13*
%TO.C,R37*%
X148620000Y-113950000D03*
X147980000Y-113950000D03*
%TD*%
D23*
%TO.C,AE6*%
X146100000Y-103970000D03*
X146100000Y-107130000D03*
%TD*%
D16*
%TO.C,TP22*%
X153310000Y-116300000D03*
X153310000Y-117700000D03*
D17*
X153810000Y-117000000D03*
D16*
X154310000Y-116300000D03*
X154310000Y-117700000D03*
%TD*%
D24*
%TO.C,L23*%
X151337500Y-114000000D03*
X149762500Y-114000000D03*
%TD*%
D15*
%TO.C,C166*%
X153330000Y-103750000D03*
X153970000Y-103750000D03*
%TD*%
D22*
%TO.C,C142*%
X148850000Y-111830000D03*
X148850000Y-112470000D03*
%TD*%
D16*
%TO.C,TP19*%
X145690000Y-116300000D03*
X145690000Y-117700000D03*
D17*
X146190000Y-117000000D03*
D16*
X146690000Y-116300000D03*
X146690000Y-117700000D03*
%TD*%
D15*
%TO.C,C151*%
X147830000Y-110200000D03*
X148470000Y-110200000D03*
%TD*%
D25*
%TO.C,U26*%
X146030000Y-113220000D03*
D26*
X146670000Y-113220000D03*
D27*
X146670000Y-114080000D03*
D28*
X146030000Y-114080000D03*
D29*
X146350000Y-113650000D03*
%TD*%
D30*
%TO.C,TP23*%
X154250000Y-115050000D03*
%TD*%
D22*
%TO.C,R35*%
X146250000Y-108330000D03*
X146250000Y-108970000D03*
%TD*%
%TO.C,C163*%
X148150000Y-111630000D03*
X148150000Y-112270000D03*
%TD*%
%TO.C,L26*%
X153450000Y-104480000D03*
X153450000Y-105120000D03*
%TD*%
D31*
%TO.C,X5*%
X149000000Y-104950000D03*
X150100000Y-104950000D03*
X150100000Y-105750000D03*
X149000000Y-105750000D03*
%TD*%
D22*
%TO.C,C128*%
X179700000Y-114430000D03*
X179700000Y-115070000D03*
%TD*%
D12*
%TO.C,C127*%
X176950000Y-112820000D03*
X176950000Y-112180000D03*
%TD*%
D16*
%TO.C,TP16*%
X182270000Y-116300000D03*
X182270000Y-117700000D03*
D17*
X182770000Y-117000000D03*
D16*
X183270000Y-116300000D03*
X183270000Y-117700000D03*
%TD*%
D22*
%TO.C,C121*%
X180000000Y-107080000D03*
X180000000Y-107720000D03*
%TD*%
D13*
%TO.C,C126*%
X180320000Y-112300000D03*
X179680000Y-112300000D03*
%TD*%
%TO.C,C129*%
X183020000Y-113000000D03*
X182380000Y-113000000D03*
%TD*%
D32*
%TO.C,OSC4*%
X178850000Y-115000000D03*
X177050000Y-115000000D03*
X177050000Y-113800000D03*
X178850000Y-113800000D03*
%TD*%
D13*
%TO.C,C134*%
X177770000Y-111150000D03*
X177130000Y-111150000D03*
%TD*%
D15*
%TO.C,C119*%
X177030000Y-106950000D03*
X177670000Y-106950000D03*
%TD*%
D22*
%TO.C,R31*%
X179300000Y-107080000D03*
X179300000Y-107720000D03*
%TD*%
D15*
%TO.C,R30*%
X179330000Y-108450000D03*
X179970000Y-108450000D03*
%TD*%
%TO.C,C135*%
X177130000Y-110450000D03*
X177770000Y-110450000D03*
%TD*%
D16*
%TO.C,TP14*%
X177184048Y-116300000D03*
X177184048Y-117700000D03*
D17*
X177684048Y-117000000D03*
D16*
X178184048Y-116300000D03*
X178184048Y-117700000D03*
%TD*%
D12*
%TO.C,C123*%
X179700000Y-113670000D03*
X179700000Y-113030000D03*
%TD*%
D16*
%TO.C,TP15*%
X179724048Y-116300000D03*
X179724048Y-117700000D03*
D17*
X180224048Y-117000000D03*
D16*
X180724048Y-116300000D03*
X180724048Y-117700000D03*
%TD*%
D33*
%TO.C,AE4*%
X182620000Y-114350000D03*
X185780000Y-114350000D03*
%TD*%
D22*
%TO.C,R32*%
X179800000Y-110780000D03*
X179800000Y-111420000D03*
%TD*%
D34*
%TO.C,L22*%
X181100000Y-115062500D03*
X181100000Y-113137500D03*
%TD*%
D15*
%TO.C,L20*%
X183780000Y-113000000D03*
X184420000Y-113000000D03*
%TD*%
D12*
%TO.C,C136*%
X179800000Y-110020000D03*
X179800000Y-109380000D03*
%TD*%
D35*
%TO.C,U23*%
X177880000Y-107630000D03*
D36*
X177880000Y-108270000D03*
D37*
X177020000Y-108270000D03*
D38*
X177020000Y-107630000D03*
D39*
X177450000Y-107950000D03*
%TD*%
D13*
%TO.C,C122*%
X178920000Y-112750000D03*
X178280000Y-112750000D03*
%TD*%
D15*
%TO.C,C130*%
X185180000Y-113000000D03*
X185820000Y-113000000D03*
%TD*%
D40*
%TO.C,U22*%
X185200000Y-112000000D03*
X184700000Y-112000000D03*
X184200000Y-112000000D03*
X183700000Y-112000000D03*
X183200000Y-112000000D03*
X182700000Y-112000000D03*
X182200000Y-112000000D03*
X181700000Y-112000000D03*
D41*
X181000000Y-111300000D03*
X181000000Y-110800000D03*
X181000000Y-110300000D03*
X181000000Y-109800000D03*
X181000000Y-109300000D03*
X181000000Y-108800000D03*
X181000000Y-108300000D03*
X181000000Y-107800000D03*
D40*
X181700000Y-107100000D03*
X182200000Y-107100000D03*
X182700000Y-107100000D03*
X183200000Y-107100000D03*
X183700000Y-107100000D03*
X184200000Y-107100000D03*
X184700000Y-107100000D03*
X185200000Y-107100000D03*
D41*
X185900000Y-107800000D03*
X185900000Y-108300000D03*
X185900000Y-108800000D03*
X185900000Y-109300000D03*
X185900000Y-109800000D03*
X185900000Y-110300000D03*
X185900000Y-110800000D03*
X185900000Y-111300000D03*
D42*
X183450000Y-109550000D03*
%TD*%
D16*
%TO.C,TP17*%
X184810000Y-116300000D03*
X184810000Y-117700000D03*
D17*
X185310000Y-117000000D03*
D16*
X185810000Y-116300000D03*
X185810000Y-117700000D03*
%TD*%
D22*
%TO.C,C124*%
X178600000Y-107580000D03*
X178600000Y-108220000D03*
%TD*%
%TO.C,C103*%
X163700000Y-114430000D03*
X163700000Y-115070000D03*
%TD*%
D12*
%TO.C,C102*%
X160950000Y-112820000D03*
X160950000Y-112180000D03*
%TD*%
D22*
%TO.C,C96*%
X164000000Y-107080000D03*
X164000000Y-107720000D03*
%TD*%
D13*
%TO.C,C101*%
X164320000Y-112300000D03*
X163680000Y-112300000D03*
%TD*%
%TO.C,C104*%
X167020000Y-113000000D03*
X166380000Y-113000000D03*
%TD*%
D32*
%TO.C,OSC3*%
X162850000Y-115000000D03*
X161050000Y-115000000D03*
X161050000Y-113800000D03*
X162850000Y-113800000D03*
%TD*%
D13*
%TO.C,C109*%
X161770000Y-111150000D03*
X161130000Y-111150000D03*
%TD*%
D15*
%TO.C,C94*%
X161030000Y-106950000D03*
X161670000Y-106950000D03*
%TD*%
D22*
%TO.C,R27*%
X163300000Y-107080000D03*
X163300000Y-107720000D03*
%TD*%
D15*
%TO.C,R26*%
X163330000Y-108450000D03*
X163970000Y-108450000D03*
%TD*%
%TO.C,C110*%
X161130000Y-110450000D03*
X161770000Y-110450000D03*
%TD*%
D16*
%TO.C,TP9*%
X161184048Y-116300000D03*
X161184048Y-117700000D03*
D17*
X161684048Y-117000000D03*
D16*
X162184048Y-116300000D03*
X162184048Y-117700000D03*
%TD*%
D12*
%TO.C,C98*%
X163700000Y-113670000D03*
X163700000Y-113030000D03*
%TD*%
D16*
%TO.C,TP10*%
X163724048Y-116300000D03*
X163724048Y-117700000D03*
D17*
X164224048Y-117000000D03*
D16*
X164724048Y-116300000D03*
X164724048Y-117700000D03*
%TD*%
D33*
%TO.C,AE3*%
X166620000Y-114350000D03*
X169780000Y-114350000D03*
%TD*%
D22*
%TO.C,R28*%
X163800000Y-110780000D03*
X163800000Y-111420000D03*
%TD*%
D34*
%TO.C,L18*%
X165100000Y-115062500D03*
X165100000Y-113137500D03*
%TD*%
D16*
%TO.C,TP12*%
X168810000Y-116300000D03*
X168810000Y-117700000D03*
D17*
X169310000Y-117000000D03*
D16*
X169810000Y-116300000D03*
X169810000Y-117700000D03*
%TD*%
D15*
%TO.C,L16*%
X167780000Y-113000000D03*
X168420000Y-113000000D03*
%TD*%
D12*
%TO.C,C111*%
X163800000Y-110020000D03*
X163800000Y-109380000D03*
%TD*%
D35*
%TO.C,U20*%
X161880000Y-107630000D03*
D36*
X161880000Y-108270000D03*
D37*
X161020000Y-108270000D03*
D38*
X161020000Y-107630000D03*
D39*
X161450000Y-107950000D03*
%TD*%
D13*
%TO.C,C97*%
X162920000Y-112750000D03*
X162280000Y-112750000D03*
%TD*%
D15*
%TO.C,C105*%
X169180000Y-113000000D03*
X169820000Y-113000000D03*
%TD*%
D40*
%TO.C,U19*%
X169200000Y-112000000D03*
X168700000Y-112000000D03*
X168200000Y-112000000D03*
X167700000Y-112000000D03*
X167200000Y-112000000D03*
X166700000Y-112000000D03*
X166200000Y-112000000D03*
X165700000Y-112000000D03*
D41*
X165000000Y-111300000D03*
X165000000Y-110800000D03*
X165000000Y-110300000D03*
X165000000Y-109800000D03*
X165000000Y-109300000D03*
X165000000Y-108800000D03*
X165000000Y-108300000D03*
X165000000Y-107800000D03*
D40*
X165700000Y-107100000D03*
X166200000Y-107100000D03*
X166700000Y-107100000D03*
X167200000Y-107100000D03*
X167700000Y-107100000D03*
X168200000Y-107100000D03*
X168700000Y-107100000D03*
X169200000Y-107100000D03*
D41*
X169900000Y-107800000D03*
X169900000Y-108300000D03*
X169900000Y-108800000D03*
X169900000Y-109300000D03*
X169900000Y-109800000D03*
X169900000Y-110300000D03*
X169900000Y-110800000D03*
X169900000Y-111300000D03*
D42*
X167450000Y-109550000D03*
%TD*%
D16*
%TO.C,TP11*%
X166270000Y-116300000D03*
X166270000Y-117700000D03*
D17*
X166770000Y-117000000D03*
D16*
X167270000Y-116300000D03*
X167270000Y-117700000D03*
%TD*%
D22*
%TO.C,C99*%
X162600000Y-107580000D03*
X162600000Y-108220000D03*
%TD*%
D15*
%TO.C,C32*%
X136830000Y-112250000D03*
X137470000Y-112250000D03*
%TD*%
D13*
%TO.C,L10*%
X131520000Y-114550000D03*
X130880000Y-114550000D03*
%TD*%
%TO.C,L9*%
X137470000Y-112950000D03*
X136830000Y-112950000D03*
%TD*%
%TO.C,C65*%
X128270000Y-102800000D03*
X127630000Y-102800000D03*
%TD*%
D22*
%TO.C,R14*%
X124000000Y-113830000D03*
X124000000Y-114470000D03*
%TD*%
D12*
%TO.C,C59*%
X127800000Y-112520000D03*
X127800000Y-111880000D03*
%TD*%
D15*
%TO.C,C78*%
X135430000Y-111600000D03*
X136070000Y-111600000D03*
%TD*%
D23*
%TO.C,AE2*%
X138900000Y-113580000D03*
X138900000Y-110420000D03*
%TD*%
D15*
%TO.C,R15*%
X127830000Y-111150000D03*
X128470000Y-111150000D03*
%TD*%
%TO.C,C72*%
X133680000Y-114550000D03*
X134320000Y-114550000D03*
%TD*%
D13*
%TO.C,C52*%
X130170000Y-114650000D03*
X129530000Y-114650000D03*
%TD*%
D15*
%TO.C,C83*%
X136730000Y-105600000D03*
X137370000Y-105600000D03*
%TD*%
D16*
%TO.C,TP8*%
X131420000Y-116300000D03*
X131420000Y-117700000D03*
D43*
X131920000Y-117000000D03*
D16*
X132420000Y-116300000D03*
X132420000Y-117700000D03*
%TD*%
D13*
%TO.C,C49*%
X130020000Y-107650000D03*
X129380000Y-107650000D03*
%TD*%
D22*
%TO.C,C71*%
X125850000Y-113680000D03*
X125850000Y-114320000D03*
%TD*%
D15*
%TO.C,C70*%
X130780000Y-107650000D03*
X131420000Y-107650000D03*
%TD*%
D16*
%TO.C,TP6*%
X126340000Y-116300000D03*
X126340000Y-117700000D03*
D43*
X126840000Y-117000000D03*
D16*
X127340000Y-116300000D03*
X127340000Y-117700000D03*
%TD*%
D15*
%TO.C,C60*%
X124380000Y-110150000D03*
X125020000Y-110150000D03*
%TD*%
D12*
%TO.C,C53*%
X123700000Y-111720000D03*
X123700000Y-111080000D03*
%TD*%
D44*
%TO.C,U18*%
X139540000Y-108370000D03*
X139540000Y-107530000D03*
X136260000Y-108370000D03*
X136260000Y-107530000D03*
%TD*%
D15*
%TO.C,C47*%
X135430000Y-112300000D03*
X136070000Y-112300000D03*
%TD*%
%TO.C,C69*%
X135430000Y-113000000D03*
X136070000Y-113000000D03*
%TD*%
D16*
%TO.C,TP5*%
X123800000Y-116300000D03*
X123800000Y-117700000D03*
D43*
X124300000Y-117000000D03*
D16*
X124800000Y-116300000D03*
X124800000Y-117700000D03*
%TD*%
D22*
%TO.C,R17*%
X125150000Y-113680000D03*
X125150000Y-114320000D03*
%TD*%
D14*
%TO.C,C51*%
X123770000Y-112600000D03*
X124730000Y-112600000D03*
%TD*%
D13*
%TO.C,C85*%
X135820000Y-104400000D03*
X135180000Y-104400000D03*
%TD*%
D14*
%TO.C,C61*%
X124270000Y-109300000D03*
X125230000Y-109300000D03*
%TD*%
D24*
%TO.C,L8*%
X128487500Y-114000000D03*
X126912500Y-114000000D03*
%TD*%
D15*
%TO.C,R16*%
X138830000Y-106500000D03*
X139470000Y-106500000D03*
%TD*%
D12*
%TO.C,L11*%
X133650000Y-115920000D03*
X133650000Y-115280000D03*
%TD*%
D25*
%TO.C,U11*%
X124330000Y-110870000D03*
D26*
X124970000Y-110870000D03*
D27*
X124970000Y-111730000D03*
D28*
X124330000Y-111730000D03*
D29*
X124650000Y-111300000D03*
%TD*%
D13*
%TO.C,C46*%
X137470000Y-109650000D03*
X136830000Y-109650000D03*
%TD*%
D45*
%TO.C,X2*%
X136775000Y-111500000D03*
X136775000Y-110425000D03*
X137525000Y-110425000D03*
X137525000Y-111475000D03*
%TD*%
D24*
%TO.C,L13*%
X137237500Y-115150000D03*
X135662500Y-115150000D03*
%TD*%
D15*
%TO.C,C74*%
X129080000Y-104900000D03*
X129720000Y-104900000D03*
%TD*%
%TO.C,C68*%
X132280000Y-114550000D03*
X132920000Y-114550000D03*
%TD*%
D40*
%TO.C,U10*%
X133700000Y-113550000D03*
X133200000Y-113550000D03*
X132700000Y-113550000D03*
X132200000Y-113550000D03*
X131700000Y-113550000D03*
X131200000Y-113550000D03*
X130700000Y-113550000D03*
X130200000Y-113550000D03*
D41*
X129500000Y-112850000D03*
X129500000Y-112350000D03*
X129500000Y-111850000D03*
X129500000Y-111350000D03*
X129500000Y-110850000D03*
X129500000Y-110350000D03*
X129500000Y-109850000D03*
X129500000Y-109350000D03*
D40*
X130200000Y-108650000D03*
X130700000Y-108650000D03*
X131200000Y-108650000D03*
X131700000Y-108650000D03*
X132200000Y-108650000D03*
X132700000Y-108650000D03*
X133200000Y-108650000D03*
X133700000Y-108650000D03*
D41*
X134400000Y-109350000D03*
X134400000Y-109850000D03*
X134400000Y-110350000D03*
X134400000Y-110850000D03*
X134400000Y-111350000D03*
X134400000Y-111850000D03*
X134400000Y-112350000D03*
X134400000Y-112850000D03*
D46*
X131950000Y-111100000D03*
%TD*%
D15*
%TO.C,C77*%
X135430000Y-110900000D03*
X136070000Y-110900000D03*
%TD*%
%TO.C,C82*%
X136730000Y-106300000D03*
X137370000Y-106300000D03*
%TD*%
D12*
%TO.C,C73*%
X134350000Y-116270000D03*
X134350000Y-115630000D03*
%TD*%
D15*
%TO.C,C64*%
X129080000Y-105600000D03*
X129720000Y-105600000D03*
%TD*%
D22*
%TO.C,C48*%
X128500000Y-111880000D03*
X128500000Y-112520000D03*
%TD*%
D16*
%TO.C,TP7*%
X128880000Y-116300000D03*
X128880000Y-117700000D03*
D43*
X129380000Y-117000000D03*
D16*
X129880000Y-116300000D03*
X129880000Y-117700000D03*
%TD*%
D47*
%TO.C,REF\u002A\u002A*%
X176250000Y-115750000D03*
X176250000Y-114900000D03*
X176250000Y-114050000D03*
X176250000Y-113200000D03*
X176250000Y-112350000D03*
%TD*%
%TO.C,REF\u002A\u002A*%
X176250000Y-111150000D03*
X176250000Y-110300000D03*
X176250000Y-109450000D03*
X176250000Y-108600000D03*
X176250000Y-107750000D03*
%TD*%
%TO.C,REF\u002A\u002A*%
X170750000Y-115750000D03*
X170750000Y-114900000D03*
X170750000Y-114050000D03*
X170750000Y-113200000D03*
X170750000Y-112350000D03*
%TD*%
%TO.C,REF\u002A\u002A*%
X170750000Y-111150000D03*
X170750000Y-110300000D03*
X170750000Y-109450000D03*
X170750000Y-108600000D03*
X170750000Y-107750000D03*
%TD*%
%TO.C,REF\u002A\u002A*%
X160250000Y-115750000D03*
X160250000Y-114900000D03*
X160250000Y-114050000D03*
X160250000Y-113200000D03*
X160250000Y-112350000D03*
%TD*%
%TO.C,REF\u002A\u002A*%
X160250000Y-111150000D03*
X160250000Y-110300000D03*
X160250000Y-109450000D03*
X160250000Y-108600000D03*
X160250000Y-107750000D03*
%TD*%
%TO.C,REF\u002A\u002A*%
X155250000Y-111150000D03*
X155250000Y-110300000D03*
X155250000Y-109450000D03*
X155250000Y-108600000D03*
X155250000Y-107750000D03*
%TD*%
%TO.C,REF\u002A\u002A*%
X155250000Y-115750000D03*
X155250000Y-114900000D03*
X155250000Y-114050000D03*
X155250000Y-113200000D03*
X155250000Y-112350000D03*
%TD*%
%TO.C,REF\u002A\u002A*%
X144750000Y-106250000D03*
%TD*%
%TO.C,REF\u002A\u002A*%
X144750000Y-105300000D03*
X144750000Y-104450000D03*
X144750000Y-103600000D03*
X144750000Y-102750000D03*
X144750000Y-101900000D03*
%TD*%
%TO.C,REF\u002A\u002A*%
X144750000Y-115700000D03*
X144750000Y-114850000D03*
X144750000Y-114000000D03*
X144750000Y-113150000D03*
X144750000Y-112300000D03*
X144750000Y-111450000D03*
X144750000Y-110600000D03*
X144750000Y-109750000D03*
X144750000Y-108900000D03*
X144750000Y-108050000D03*
X144750000Y-107200000D03*
%TD*%
%TO.C,REF\u002A\u002A*%
X140250000Y-106250000D03*
%TD*%
%TO.C,REF\u002A\u002A*%
X140250000Y-105300000D03*
X140250000Y-104450000D03*
X140250000Y-103600000D03*
X140250000Y-102750000D03*
X140250000Y-101900000D03*
%TD*%
%TO.C,REF\u002A\u002A*%
X140250000Y-115700000D03*
X140250000Y-114850000D03*
X140250000Y-114000000D03*
X140250000Y-113150000D03*
X140250000Y-112300000D03*
X140250000Y-111450000D03*
X140250000Y-110600000D03*
X140250000Y-109750000D03*
X140250000Y-108900000D03*
X140250000Y-108050000D03*
X140250000Y-107200000D03*
%TD*%
%TO.C,REF\u002A\u002A*%
X122750000Y-111050000D03*
X122750000Y-110200000D03*
X122750000Y-109350000D03*
X122750000Y-108500000D03*
X122750000Y-107650000D03*
X122750000Y-106800000D03*
X122750000Y-105950000D03*
X122750000Y-105100000D03*
X122750000Y-104250000D03*
X122750000Y-103400000D03*
X122750000Y-102550000D03*
%TD*%
%TO.C,REF\u002A\u002A*%
X122750000Y-115700000D03*
X122750000Y-114850000D03*
X122750000Y-114000000D03*
X122750000Y-113150000D03*
X122750000Y-112300000D03*
%TD*%
%TO.C,REF\u002A\u002A*%
X117250000Y-112300000D03*
X117250000Y-113150000D03*
X117250000Y-114000000D03*
X117250000Y-114850000D03*
X117250000Y-115700000D03*
%TD*%
%TO.C,REF\u002A\u002A*%
X117250000Y-111050000D03*
X117250000Y-110200000D03*
X117250000Y-109350000D03*
X117250000Y-108500000D03*
X117250000Y-107650000D03*
X117250000Y-106800000D03*
X117250000Y-105950000D03*
X117250000Y-105100000D03*
X117250000Y-104250000D03*
X117250000Y-103400000D03*
X117250000Y-102550000D03*
%TD*%
D16*
%TO.C,TP3*%
X106880000Y-117700000D03*
X106880000Y-116300000D03*
D43*
X106380000Y-117000000D03*
D16*
X105880000Y-117700000D03*
X105880000Y-116300000D03*
%TD*%
%TO.C,TP1*%
X101800000Y-117700000D03*
X101800000Y-116300000D03*
D43*
X101300000Y-117000000D03*
D16*
X100800000Y-117700000D03*
X100800000Y-116300000D03*
%TD*%
%TO.C,TP2*%
X104340000Y-117700000D03*
X104340000Y-116300000D03*
D43*
X103840000Y-117000000D03*
D16*
X103340000Y-117700000D03*
X103340000Y-116300000D03*
%TD*%
%TO.C,TP4*%
X109420000Y-117700000D03*
X109420000Y-116300000D03*
D43*
X108920000Y-117000000D03*
D16*
X108420000Y-117700000D03*
X108420000Y-116300000D03*
%TD*%
D22*
%TO.C,C5*%
X105500000Y-112520000D03*
X105500000Y-111880000D03*
%TD*%
D15*
%TO.C,C21*%
X106290000Y-106000000D03*
X105650000Y-106000000D03*
%TD*%
D12*
%TO.C,C30*%
X111350000Y-115630000D03*
X111350000Y-116270000D03*
%TD*%
D15*
%TO.C,C40*%
X114370000Y-106300000D03*
X113730000Y-106300000D03*
%TD*%
%TO.C,C35*%
X113070000Y-110900000D03*
X112430000Y-110900000D03*
%TD*%
D46*
%TO.C,U1*%
X108950000Y-111100000D03*
D41*
X111400000Y-112850000D03*
X111400000Y-112350000D03*
X111400000Y-111850000D03*
X111400000Y-111350000D03*
X111400000Y-110850000D03*
X111400000Y-110350000D03*
X111400000Y-109850000D03*
X111400000Y-109350000D03*
D40*
X110700000Y-108650000D03*
X110200000Y-108650000D03*
X109700000Y-108650000D03*
X109200000Y-108650000D03*
X108700000Y-108650000D03*
X108200000Y-108650000D03*
X107700000Y-108650000D03*
X107200000Y-108650000D03*
D41*
X106500000Y-109350000D03*
X106500000Y-109850000D03*
X106500000Y-110350000D03*
X106500000Y-110850000D03*
X106500000Y-111350000D03*
X106500000Y-111850000D03*
X106500000Y-112350000D03*
X106500000Y-112850000D03*
D40*
X107200000Y-113550000D03*
X107700000Y-113550000D03*
X108200000Y-113550000D03*
X108700000Y-113550000D03*
X109200000Y-113550000D03*
X109700000Y-113550000D03*
X110200000Y-113550000D03*
X110700000Y-113550000D03*
%TD*%
D15*
%TO.C,C25*%
X109920000Y-114550000D03*
X109280000Y-114550000D03*
%TD*%
%TO.C,C31*%
X106290000Y-105300000D03*
X105650000Y-105300000D03*
%TD*%
D24*
%TO.C,L6*%
X112662500Y-115150000D03*
X114237500Y-115150000D03*
%TD*%
D13*
%TO.C,C44*%
X110430000Y-105000000D03*
X111070000Y-105000000D03*
%TD*%
D12*
%TO.C,C12*%
X102600000Y-106480000D03*
X102600000Y-107120000D03*
%TD*%
D45*
%TO.C,X1*%
X114525000Y-111475000D03*
X114525000Y-110425000D03*
X113775000Y-110425000D03*
X113775000Y-111500000D03*
%TD*%
D13*
%TO.C,C3*%
X113830000Y-109650000D03*
X114470000Y-109650000D03*
%TD*%
D29*
%TO.C,U2*%
X101650000Y-111300000D03*
D28*
X101330000Y-111730000D03*
D27*
X101970000Y-111730000D03*
D26*
X101970000Y-110870000D03*
D25*
X101330000Y-110870000D03*
%TD*%
D12*
%TO.C,L4*%
X110650000Y-115280000D03*
X110650000Y-115920000D03*
%TD*%
D15*
%TO.C,R4*%
X116470000Y-106500000D03*
X115830000Y-106500000D03*
%TD*%
D24*
%TO.C,L1*%
X103912500Y-114000000D03*
X105487500Y-114000000D03*
%TD*%
D14*
%TO.C,C18*%
X102230000Y-109300000D03*
X101270000Y-109300000D03*
%TD*%
D13*
%TO.C,C43*%
X112180000Y-104400000D03*
X112820000Y-104400000D03*
%TD*%
D14*
%TO.C,C8*%
X101730000Y-112600000D03*
X100770000Y-112600000D03*
%TD*%
D22*
%TO.C,R5*%
X102150000Y-114320000D03*
X102150000Y-113680000D03*
%TD*%
D15*
%TO.C,C26*%
X113070000Y-113000000D03*
X112430000Y-113000000D03*
%TD*%
%TO.C,C4*%
X113070000Y-112300000D03*
X112430000Y-112300000D03*
%TD*%
D44*
%TO.C,U9*%
X113260000Y-107530000D03*
X113260000Y-108370000D03*
X116540000Y-107530000D03*
X116540000Y-108370000D03*
%TD*%
D12*
%TO.C,C10*%
X100700000Y-111080000D03*
X100700000Y-111720000D03*
%TD*%
D15*
%TO.C,C17*%
X102020000Y-110150000D03*
X101380000Y-110150000D03*
%TD*%
D48*
%TO.C,J1*%
X101300000Y-102175000D03*
X101300000Y-105125000D03*
D49*
X102825000Y-103650000D03*
%TD*%
D15*
%TO.C,C27*%
X108420000Y-107650000D03*
X107780000Y-107650000D03*
%TD*%
D22*
%TO.C,C28*%
X102850000Y-114320000D03*
X102850000Y-113680000D03*
%TD*%
D13*
%TO.C,C6*%
X106380000Y-107650000D03*
X107020000Y-107650000D03*
%TD*%
D15*
%TO.C,C41*%
X114370000Y-105600000D03*
X113730000Y-105600000D03*
%TD*%
D13*
%TO.C,C9*%
X106530000Y-114650000D03*
X107170000Y-114650000D03*
%TD*%
D50*
%TO.C,D1*%
X101870000Y-106330000D03*
X101030000Y-106330000D03*
X101870000Y-107170000D03*
X101030000Y-107170000D03*
%TD*%
D15*
%TO.C,C29*%
X111320000Y-114550000D03*
X110680000Y-114550000D03*
%TD*%
%TO.C,R3*%
X105470000Y-111150000D03*
X104830000Y-111150000D03*
%TD*%
D23*
%TO.C,AE1*%
X115900000Y-110420000D03*
X115900000Y-113580000D03*
%TD*%
D15*
%TO.C,C36*%
X113070000Y-111600000D03*
X112430000Y-111600000D03*
%TD*%
D12*
%TO.C,C16*%
X104800000Y-111880000D03*
X104800000Y-112520000D03*
%TD*%
D22*
%TO.C,R2*%
X101000000Y-114470000D03*
X101000000Y-113830000D03*
%TD*%
D13*
%TO.C,C22*%
X104680000Y-103250000D03*
X105320000Y-103250000D03*
%TD*%
%TO.C,L2*%
X113830000Y-112950000D03*
X114470000Y-112950000D03*
%TD*%
D48*
%TO.C,J2*%
X108137500Y-103525000D03*
X108137500Y-106475000D03*
D51*
X109587500Y-105000000D03*
%TD*%
D13*
%TO.C,L3*%
X107880000Y-114550000D03*
X108520000Y-114550000D03*
%TD*%
D15*
%TO.C,C1*%
X114470000Y-112250000D03*
X113830000Y-112250000D03*
%TD*%
M02*
