%TF.GenerationSoftware,KiCad,Pcbnew,10.0.2*%
%TF.CreationDate,2026-05-13T13:08:23+02:00*%
%TF.ProjectId,OpenRX-all,4f70656e-5258-42d6-916c-6c2e6b696361,rev?*%
%TF.SameCoordinates,Original*%
%TF.FileFunction,Paste,Top*%
%TF.FilePolarity,Positive*%
%FSLAX46Y46*%
G04 Gerber Fmt 4.6, Leading zero omitted, Abs format (unit mm)*
G04 Created by KiCad (PCBNEW 10.0.2) date 2026-05-13 13:08:23*
%MOMM*%
%LPD*%
G01*
G04 APERTURE LIST*
G04 Aperture macros list*
%AMRoundRect*
0 Rectangle with rounded corners*
0 $1 Rounding radius*
0 $2 $3 $4 $5 $6 $7 $8 $9 X,Y pos of 4 corners*
0 Add a 4 corners polygon primitive as box body*
4,1,4,$2,$3,$4,$5,$6,$7,$8,$9,$2,$3,0*
0 Add four circle primitives for the rounded corners*
1,1,$1+$1,$2,$3*
1,1,$1+$1,$4,$5*
1,1,$1+$1,$6,$7*
1,1,$1+$1,$8,$9*
0 Add four rect primitives between the rounded corners*
20,1,$1+$1,$2,$3,$4,$5,0*
20,1,$1+$1,$4,$5,$6,$7,0*
20,1,$1+$1,$6,$7,$8,$9,0*
20,1,$1+$1,$8,$9,$2,$3,0*%
%AMRotRect*
0 Rectangle, with rotation*
0 The origin of the aperture is its center*
0 $1 length*
0 $2 width*
0 $3 Rotation angle, in degrees counterclockwise*
0 Add horizontal line*
21,1,$1,$2,0,0,$3*%
G04 Aperture macros list end*
%ADD10RoundRect,0.079500X0.079500X0.100500X-0.079500X0.100500X-0.079500X-0.100500X0.079500X-0.100500X0*%
%ADD11RoundRect,0.079500X-0.079500X-0.100500X0.079500X-0.100500X0.079500X0.100500X-0.079500X0.100500X0*%
%ADD12R,0.716000X0.548000*%
%ADD13R,0.212000X0.464000*%
%ADD14R,0.464000X0.212000*%
%ADD15RoundRect,0.079500X-0.100500X0.079500X-0.100500X-0.079500X0.100500X-0.079500X0.100500X0.079500X0*%
%ADD16RoundRect,0.079500X0.100500X-0.079500X0.100500X0.079500X-0.100500X0.079500X-0.100500X-0.079500X0*%
%ADD17RoundRect,0.167785X-0.332215X-0.332215X0.332215X-0.332215X0.332215X0.332215X-0.332215X0.332215X0*%
%ADD18RoundRect,0.042500X-0.273500X-0.042500X0.273500X-0.042500X0.273500X0.042500X-0.273500X0.042500X0*%
%ADD19RoundRect,0.042500X-0.042500X-0.273500X0.042500X-0.273500X0.042500X0.273500X-0.042500X0.273500X0*%
%ADD20R,0.195200X0.514400*%
%ADD21R,0.514400X0.195200*%
%ADD22R,1.388000X1.388000*%
%ADD23RoundRect,0.200000X0.200000X-0.221000X0.200000X0.221000X-0.200000X0.221000X-0.200000X-0.221000X0*%
%ADD24RoundRect,0.200476X0.220524X-0.703524X0.220524X0.703524X-0.220524X0.703524X-0.220524X-0.703524X0*%
%ADD25RoundRect,0.107600X-0.132800X0.107600X-0.132800X-0.107600X0.132800X-0.107600X0.132800X0.107600X0*%
%ADD26R,0.338000X0.338000*%
%ADD27RotRect,0.338000X0.380000X45.000000*%
%ADD28RotRect,0.212000X0.212000X45.000000*%
%ADD29R,0.280000X0.280000*%
%ADD30R,0.128000X0.329600*%
%ADD31R,0.329600X0.128000*%
%ADD32RoundRect,0.113900X-0.113900X-0.134900X0.113900X-0.134900X0.113900X0.134900X-0.113900X0.134900X0*%
%ADD33R,0.573200X0.464000*%
%ADD34RoundRect,0.107600X-0.107600X-0.132800X0.107600X-0.132800X0.107600X0.132800X-0.107600X0.132800X0*%
%ADD35R,0.690800X0.690800*%
%ADD36O,0.632000X0.195200*%
%ADD37O,0.195200X0.632000*%
%ADD38RoundRect,0.329043X-0.616957X-0.616957X0.616957X-0.616957X0.616957X0.616957X-0.616957X0.616957X0*%
%ADD39R,0.338000X0.380000*%
%ADD40R,0.212000X0.212000*%
%ADD41RoundRect,0.200000X-0.221000X-0.200000X0.221000X-0.200000X0.221000X0.200000X-0.221000X0.200000X0*%
%ADD42RoundRect,0.200476X-0.703524X-0.220524X0.703524X-0.220524X0.703524X0.220524X-0.703524X0.220524X0*%
%ADD43RotRect,0.338000X0.380000X60.000000*%
%ADD44RotRect,0.212000X0.212000X60.000000*%
G04 APERTURE END LIST*
D10*
%TO.C,C160*%
X148345000Y-104500000D03*
X147655000Y-104500000D03*
%TD*%
D11*
%TO.C,R33*%
X147305000Y-107000000D03*
X147995000Y-107000000D03*
%TD*%
D12*
%TO.C,OSC5*%
X146950000Y-113800000D03*
X146950000Y-112000000D03*
X145750000Y-112000000D03*
X145750000Y-113800000D03*
%TD*%
D13*
%TO.C,T5*%
X149050000Y-107800000D03*
X149550000Y-107800000D03*
X150050000Y-107800000D03*
X150550000Y-107800000D03*
D14*
X150800000Y-107050000D03*
D13*
X150550000Y-106300000D03*
X150050000Y-106300000D03*
X149550000Y-106300000D03*
X149050000Y-106300000D03*
D14*
X148800000Y-107050000D03*
%TD*%
D15*
%TO.C,C145*%
X154600000Y-110905000D03*
X154600000Y-111595000D03*
%TD*%
%TO.C,C138*%
X147200000Y-108705000D03*
X147200000Y-109395000D03*
%TD*%
D10*
%TO.C,C161*%
X154445000Y-108800000D03*
X153755000Y-108800000D03*
%TD*%
%TO.C,C143*%
X146495000Y-110500000D03*
X145805000Y-110500000D03*
%TD*%
%TO.C,C159*%
X152095000Y-101850000D03*
X151405000Y-101850000D03*
%TD*%
D16*
%TO.C,R39*%
X154600000Y-106695000D03*
X154600000Y-106005000D03*
%TD*%
D17*
%TO.C,U27*%
X149900000Y-110700000D03*
X149900000Y-112200000D03*
X151400000Y-110700000D03*
X151400000Y-112200000D03*
D18*
X148200000Y-109700000D03*
X148200000Y-110200000D03*
X148200000Y-110700000D03*
X148200000Y-111200000D03*
X148200000Y-112200000D03*
X148200000Y-112700000D03*
X148200000Y-113200000D03*
D19*
X148900000Y-113900000D03*
X149400000Y-113900000D03*
X149900000Y-113900000D03*
X150400000Y-113900000D03*
X150900000Y-113900000D03*
X151400000Y-113900000D03*
X151900000Y-113900000D03*
X152400000Y-113900000D03*
D18*
X153100000Y-112200000D03*
X153100000Y-111700000D03*
X153100000Y-111200000D03*
X153100000Y-110700000D03*
X153100000Y-110200000D03*
X153100000Y-109700000D03*
D19*
X152400000Y-109000000D03*
X151900000Y-109000000D03*
X151400000Y-109000000D03*
X150900000Y-109000000D03*
X150400000Y-109000000D03*
X149900000Y-109000000D03*
X149400000Y-109000000D03*
X148900000Y-109000000D03*
%TD*%
D20*
%TO.C,U28*%
X152250000Y-105550000D03*
X152750000Y-105550000D03*
X153250000Y-105550000D03*
X153750000Y-105550000D03*
D21*
X154450000Y-104850000D03*
X154450000Y-104350000D03*
X154450000Y-103850000D03*
X154450000Y-103350000D03*
D20*
X153750000Y-102650000D03*
X153250000Y-102650000D03*
X152750000Y-102650000D03*
X152250000Y-102650000D03*
D21*
X151550000Y-103350000D03*
X151550000Y-103850000D03*
X151550000Y-104350000D03*
X151550000Y-104850000D03*
D22*
X153000000Y-104100000D03*
%TD*%
D10*
%TO.C,C158*%
X150745000Y-102950000D03*
X150055000Y-102950000D03*
%TD*%
%TO.C,C156*%
X150445000Y-114900000D03*
X149755000Y-114900000D03*
%TD*%
D15*
%TO.C,R38*%
X147200000Y-110455000D03*
X147200000Y-111145000D03*
%TD*%
D23*
%TO.C,J6*%
X147200000Y-103525000D03*
D24*
X145725000Y-102000000D03*
X148675000Y-102000000D03*
%TD*%
D25*
%TO.C,C147*%
X154450000Y-112420000D03*
X154450000Y-113380000D03*
%TD*%
D26*
%TO.C,D5*%
X145430000Y-108180000D03*
X146270000Y-108180000D03*
X145430000Y-109020000D03*
X146270000Y-109020000D03*
%TD*%
D27*
%TO.C,FL7*%
X152289878Y-107560122D03*
D28*
X152912132Y-107362132D03*
D27*
X153110122Y-106739878D03*
D28*
X152487868Y-106937868D03*
%TD*%
D29*
%TO.C,U29*%
X149710000Y-104690000D03*
X150090000Y-104690000D03*
X149710000Y-104310000D03*
X150090000Y-104310000D03*
D30*
X149400000Y-105430000D03*
X149900000Y-105430000D03*
X150400000Y-105430000D03*
D31*
X150830000Y-105000000D03*
X150830000Y-104500000D03*
X150830000Y-104000000D03*
D30*
X150400000Y-103570000D03*
X149900000Y-103570000D03*
X149400000Y-103570000D03*
D31*
X148970000Y-104000000D03*
X148970000Y-104500000D03*
X148970000Y-105000000D03*
%TD*%
D15*
%TO.C,C140*%
X154600000Y-107405000D03*
X154600000Y-108095000D03*
%TD*%
%TO.C,L25*%
X154600000Y-109505000D03*
X154600000Y-110195000D03*
%TD*%
D10*
%TO.C,C148*%
X146095000Y-109750000D03*
X145405000Y-109750000D03*
%TD*%
D15*
%TO.C,C162*%
X153900000Y-107405000D03*
X153900000Y-108095000D03*
%TD*%
D10*
%TO.C,C149*%
X147795000Y-114650000D03*
X147105000Y-114650000D03*
%TD*%
D32*
%TO.C,L27*%
X147315000Y-107850000D03*
X148285000Y-107850000D03*
%TD*%
D15*
%TO.C,R40*%
X154400000Y-101455000D03*
X154400000Y-102145000D03*
%TD*%
D25*
%TO.C,C117*%
X177150000Y-107070000D03*
X177150000Y-108030000D03*
%TD*%
D16*
%TO.C,C133*%
X184000000Y-111895000D03*
X184000000Y-111205000D03*
%TD*%
%TO.C,C113*%
X183300000Y-112895000D03*
X183300000Y-112205000D03*
%TD*%
D33*
%TO.C,X4*%
X185250000Y-112800000D03*
X184150000Y-112800000D03*
X184150000Y-113600000D03*
X185250000Y-113600000D03*
%TD*%
D34*
%TO.C,C120*%
X181960000Y-110790000D03*
X182920000Y-110790000D03*
%TD*%
D35*
%TO.C,AE5*%
X185220000Y-107280000D03*
X183280000Y-107280000D03*
X183280000Y-109220000D03*
X185220000Y-109220000D03*
%TD*%
D15*
%TO.C,C115*%
X181250000Y-106905000D03*
X181250000Y-107595000D03*
%TD*%
D11*
%TO.C,C118*%
X181905000Y-112300000D03*
X182595000Y-112300000D03*
%TD*%
D36*
%TO.C,U24*%
X177100000Y-110800000D03*
X177100000Y-111300000D03*
X177100000Y-111800000D03*
X177100000Y-112300000D03*
X177100000Y-112800000D03*
X177100000Y-113300000D03*
D37*
X177850000Y-114050000D03*
X178350000Y-114050000D03*
X178850000Y-114050000D03*
X179350000Y-114050000D03*
X179850000Y-114050000D03*
X180350000Y-114050000D03*
D36*
X181100000Y-113300000D03*
X181100000Y-112800000D03*
X181100000Y-112300000D03*
X181100000Y-111800000D03*
X181100000Y-111300000D03*
X181100000Y-110810000D03*
D37*
X180350000Y-110050000D03*
X179850000Y-110050000D03*
X179350000Y-110050000D03*
X178850000Y-110050000D03*
X178350000Y-110050000D03*
X177850000Y-110050000D03*
D38*
X179100000Y-112060000D03*
%TD*%
D15*
%TO.C,C131*%
X181950000Y-106905000D03*
X181950000Y-107595000D03*
%TD*%
D25*
%TO.C,C125*%
X178100000Y-107070000D03*
X178100000Y-108030000D03*
%TD*%
D10*
%TO.C,R29*%
X178145000Y-108900000D03*
X177455000Y-108900000D03*
%TD*%
%TO.C,C132*%
X186095000Y-111200000D03*
X185405000Y-111200000D03*
%TD*%
D26*
%TO.C,D4*%
X179130000Y-107030000D03*
X179970000Y-107030000D03*
X179130000Y-107870000D03*
X179970000Y-107870000D03*
%TD*%
D10*
%TO.C,L21*%
X182595000Y-111600000D03*
X181905000Y-111600000D03*
%TD*%
%TO.C,C114*%
X185395000Y-111900000D03*
X184705000Y-111900000D03*
%TD*%
D15*
%TO.C,C112*%
X186100000Y-113305000D03*
X186100000Y-113995000D03*
%TD*%
D39*
%TO.C,FL6*%
X179320000Y-108900000D03*
D40*
X179900000Y-109200000D03*
D39*
X180480000Y-108900000D03*
D40*
X179900000Y-108600000D03*
%TD*%
D16*
%TO.C,L19*%
X186100000Y-112595000D03*
X186100000Y-111905000D03*
%TD*%
D11*
%TO.C,C116*%
X181605000Y-109950000D03*
X182295000Y-109950000D03*
%TD*%
D25*
%TO.C,C92*%
X161150000Y-107070000D03*
X161150000Y-108030000D03*
%TD*%
D41*
%TO.C,J5*%
X167075000Y-108700000D03*
D42*
X168600000Y-107225000D03*
X168600000Y-110175000D03*
%TD*%
D16*
%TO.C,C108*%
X168000000Y-111895000D03*
X168000000Y-111205000D03*
%TD*%
%TO.C,C88*%
X167300000Y-112895000D03*
X167300000Y-112205000D03*
%TD*%
D33*
%TO.C,X3*%
X169250000Y-112800000D03*
X168150000Y-112800000D03*
X168150000Y-113600000D03*
X169250000Y-113600000D03*
%TD*%
D34*
%TO.C,C95*%
X165960000Y-110790000D03*
X166920000Y-110790000D03*
%TD*%
D15*
%TO.C,C90*%
X165250000Y-106905000D03*
X165250000Y-107595000D03*
%TD*%
D11*
%TO.C,C93*%
X165905000Y-112300000D03*
X166595000Y-112300000D03*
%TD*%
D36*
%TO.C,U21*%
X161100000Y-110800000D03*
X161100000Y-111300000D03*
X161100000Y-111800000D03*
X161100000Y-112300000D03*
X161100000Y-112800000D03*
X161100000Y-113300000D03*
D37*
X161850000Y-114050000D03*
X162350000Y-114050000D03*
X162850000Y-114050000D03*
X163350000Y-114050000D03*
X163850000Y-114050000D03*
X164350000Y-114050000D03*
D36*
X165100000Y-113300000D03*
X165100000Y-112800000D03*
X165100000Y-112300000D03*
X165100000Y-111800000D03*
X165100000Y-111300000D03*
X165100000Y-110810000D03*
D37*
X164350000Y-110050000D03*
X163850000Y-110050000D03*
X163350000Y-110050000D03*
X162850000Y-110050000D03*
X162350000Y-110050000D03*
X161850000Y-110050000D03*
D38*
X163100000Y-112060000D03*
%TD*%
D15*
%TO.C,C106*%
X165950000Y-106905000D03*
X165950000Y-107595000D03*
%TD*%
D25*
%TO.C,C100*%
X162100000Y-107070000D03*
X162100000Y-108030000D03*
%TD*%
D10*
%TO.C,R25*%
X162145000Y-108900000D03*
X161455000Y-108900000D03*
%TD*%
%TO.C,C107*%
X170095000Y-111200000D03*
X169405000Y-111200000D03*
%TD*%
D26*
%TO.C,D3*%
X163130000Y-107030000D03*
X163970000Y-107030000D03*
X163130000Y-107870000D03*
X163970000Y-107870000D03*
%TD*%
D10*
%TO.C,L17*%
X166595000Y-111600000D03*
X165905000Y-111600000D03*
%TD*%
%TO.C,C89*%
X169395000Y-111900000D03*
X168705000Y-111900000D03*
%TD*%
D15*
%TO.C,C87*%
X170100000Y-113305000D03*
X170100000Y-113995000D03*
%TD*%
D39*
%TO.C,FL5*%
X163320000Y-108900000D03*
D40*
X163900000Y-109200000D03*
D39*
X164480000Y-108900000D03*
D40*
X163900000Y-108600000D03*
%TD*%
D16*
%TO.C,L15*%
X170100000Y-112595000D03*
X170100000Y-111905000D03*
%TD*%
D11*
%TO.C,C91*%
X165905000Y-109950000D03*
X166595000Y-109950000D03*
%TD*%
D13*
%TO.C,T3*%
X126400000Y-106750000D03*
X126900000Y-106750000D03*
X127400000Y-106750000D03*
X127900000Y-106750000D03*
D14*
X128150000Y-106000000D03*
D13*
X127900000Y-105250000D03*
X127400000Y-105250000D03*
X126900000Y-105250000D03*
X126400000Y-105250000D03*
D14*
X126150000Y-106000000D03*
%TD*%
D15*
%TO.C,R20*%
X132800000Y-105405000D03*
X132800000Y-106095000D03*
%TD*%
D32*
%TO.C,L12*%
X124665000Y-106800000D03*
X125635000Y-106800000D03*
%TD*%
D23*
%TO.C,J4*%
X133000000Y-102225000D03*
D24*
X131525000Y-100700000D03*
X134475000Y-100700000D03*
%TD*%
D16*
%TO.C,R18*%
X124150000Y-111495000D03*
X124150000Y-110805000D03*
%TD*%
D15*
%TO.C,C50*%
X124150000Y-112205000D03*
X124150000Y-112895000D03*
%TD*%
D11*
%TO.C,R13*%
X124655000Y-105950000D03*
X125345000Y-105950000D03*
%TD*%
D10*
%TO.C,R19*%
X132645000Y-106850000D03*
X131955000Y-106850000D03*
%TD*%
D32*
%TO.C,L14*%
X132515000Y-108500000D03*
X133485000Y-108500000D03*
%TD*%
D15*
%TO.C,C81*%
X131700000Y-108505000D03*
X131700000Y-109195000D03*
%TD*%
%TO.C,R24*%
X139600000Y-102955000D03*
X139600000Y-103645000D03*
%TD*%
D11*
%TO.C,C56*%
X131055000Y-109950000D03*
X131745000Y-109950000D03*
%TD*%
D10*
%TO.C,C76*%
X131390000Y-113400000D03*
X130700000Y-113400000D03*
%TD*%
D20*
%TO.C,U13*%
X129800000Y-106350000D03*
X130300000Y-106350000D03*
X130800000Y-106350000D03*
X131300000Y-106350000D03*
D21*
X132000000Y-105650000D03*
X132000000Y-105150000D03*
X132000000Y-104650000D03*
X132000000Y-104150000D03*
D20*
X131300000Y-103450000D03*
X130800000Y-103450000D03*
X130300000Y-103450000D03*
X129800000Y-103450000D03*
D21*
X129100000Y-104150000D03*
X129100000Y-104650000D03*
X129100000Y-105150000D03*
X129100000Y-105650000D03*
D22*
X130550000Y-104900000D03*
%TD*%
D26*
%TO.C,D2*%
X136830000Y-100830000D03*
X137670000Y-100830000D03*
X136830000Y-101670000D03*
X137670000Y-101670000D03*
%TD*%
D10*
%TO.C,C62*%
X124495000Y-108300000D03*
X123805000Y-108300000D03*
%TD*%
D15*
%TO.C,C45*%
X123850000Y-106905000D03*
X123850000Y-107595000D03*
%TD*%
D13*
%TO.C,T4*%
X134250000Y-108450000D03*
X134750000Y-108450000D03*
X135250000Y-108450000D03*
X135750000Y-108450000D03*
D14*
X136000000Y-107700000D03*
D13*
X135750000Y-106950000D03*
X135250000Y-106950000D03*
X134750000Y-106950000D03*
X134250000Y-106950000D03*
D14*
X134000000Y-107700000D03*
%TD*%
D23*
%TO.C,J3*%
X125200000Y-102225000D03*
D24*
X123725000Y-100700000D03*
X126675000Y-100700000D03*
%TD*%
D16*
%TO.C,R23*%
X139600000Y-108145000D03*
X139600000Y-107455000D03*
%TD*%
D43*
%TO.C,FL4*%
X137760000Y-108902295D03*
D44*
X138309808Y-108550000D03*
D43*
X138340000Y-107897705D03*
D44*
X137790192Y-108250000D03*
%TD*%
D10*
%TO.C,C66*%
X129645000Y-101800000D03*
X128955000Y-101800000D03*
%TD*%
D11*
%TO.C,C79*%
X137905000Y-115900000D03*
X138595000Y-115900000D03*
%TD*%
D39*
%TO.C,FL3*%
X129370000Y-107250000D03*
D40*
X129950000Y-107550000D03*
D39*
X130530000Y-107250000D03*
D40*
X129950000Y-106950000D03*
%TD*%
D10*
%TO.C,C58*%
X124145000Y-109700000D03*
X123455000Y-109700000D03*
%TD*%
%TO.C,C57*%
X124145000Y-109000000D03*
X123455000Y-109000000D03*
%TD*%
%TO.C,C80*%
X136445000Y-115900000D03*
X135755000Y-115900000D03*
%TD*%
D17*
%TO.C,U12*%
X126850000Y-110050000D03*
X126850000Y-111550000D03*
X128350000Y-110050000D03*
X128350000Y-111550000D03*
D18*
X125150000Y-109050000D03*
X125150000Y-109550000D03*
X125150000Y-110050000D03*
X125150000Y-110550000D03*
X125150000Y-111050000D03*
X125150000Y-111550000D03*
X125150000Y-112050000D03*
X125150000Y-112550000D03*
D19*
X125850000Y-113250000D03*
X126350000Y-113250000D03*
X126850000Y-113250000D03*
X127350000Y-113250000D03*
X127850000Y-113250000D03*
X128350000Y-113250000D03*
X128850000Y-113250000D03*
X129350000Y-113250000D03*
D18*
X130050000Y-112550000D03*
X130050000Y-112050000D03*
X130050000Y-111550000D03*
X130050000Y-111050000D03*
X130050000Y-110550000D03*
X130050000Y-110050000D03*
X130050000Y-109550000D03*
X130050000Y-109050000D03*
D19*
X129350000Y-108350000D03*
X128850000Y-108350000D03*
X128350000Y-108350000D03*
X127850000Y-108350000D03*
X127350000Y-108350000D03*
X126850000Y-108350000D03*
X126350000Y-108350000D03*
X125850000Y-108350000D03*
%TD*%
D10*
%TO.C,C84*%
X137045000Y-103200000D03*
X136355000Y-103200000D03*
%TD*%
D15*
%TO.C,C55*%
X138400000Y-100905000D03*
X138400000Y-101595000D03*
%TD*%
D16*
%TO.C,C86*%
X133000000Y-103895000D03*
X133000000Y-103205000D03*
%TD*%
D11*
%TO.C,R21*%
X132055000Y-113400000D03*
X132745000Y-113400000D03*
%TD*%
D17*
%TO.C,U15*%
X135450000Y-111700000D03*
X135450000Y-113200000D03*
X136950000Y-111700000D03*
X136950000Y-113200000D03*
D18*
X133750000Y-110700000D03*
X133750000Y-111200000D03*
X133750000Y-111700000D03*
X133750000Y-112200000D03*
X133750000Y-112700000D03*
X133750000Y-113200000D03*
X133750000Y-113700000D03*
X133750000Y-114200000D03*
D19*
X134450000Y-114900000D03*
X134950000Y-114900000D03*
X135450000Y-114900000D03*
X135950000Y-114900000D03*
X136450000Y-114900000D03*
X136950000Y-114900000D03*
X137450000Y-114900000D03*
X137950000Y-114900000D03*
D18*
X138650000Y-114200000D03*
X138650000Y-113700000D03*
X138650000Y-113200000D03*
X138650000Y-112700000D03*
X138650000Y-112200000D03*
X138650000Y-111700000D03*
X138650000Y-111200000D03*
X138650000Y-110700000D03*
D19*
X137950000Y-110000000D03*
X137450000Y-110000000D03*
X136950000Y-110000000D03*
X136450000Y-110000000D03*
X135950000Y-110000000D03*
X135450000Y-110000000D03*
X134950000Y-110000000D03*
X134450000Y-110000000D03*
%TD*%
D25*
%TO.C,C54*%
X130600000Y-114070000D03*
X130600000Y-115030000D03*
%TD*%
D29*
%TO.C,U14*%
X127260000Y-103540000D03*
X127640000Y-103540000D03*
X127260000Y-103160000D03*
X127640000Y-103160000D03*
D30*
X126950000Y-104280000D03*
X127450000Y-104280000D03*
X127950000Y-104280000D03*
D31*
X128380000Y-103850000D03*
X128380000Y-103350000D03*
X128380000Y-102850000D03*
D30*
X127950000Y-102420000D03*
X127450000Y-102420000D03*
X126950000Y-102420000D03*
D31*
X126520000Y-102850000D03*
X126520000Y-103350000D03*
X126520000Y-103850000D03*
%TD*%
D29*
%TO.C,U17*%
X134710000Y-105190000D03*
X135090000Y-105190000D03*
X134710000Y-104810000D03*
X135090000Y-104810000D03*
D30*
X134400000Y-105930000D03*
X134900000Y-105930000D03*
X135400000Y-105930000D03*
D31*
X135830000Y-105500000D03*
X135830000Y-105000000D03*
X135830000Y-104500000D03*
D30*
X135400000Y-104070000D03*
X134900000Y-104070000D03*
X134400000Y-104070000D03*
D31*
X133970000Y-104500000D03*
X133970000Y-105000000D03*
X133970000Y-105500000D03*
%TD*%
D10*
%TO.C,C63*%
X128395000Y-114250000D03*
X127705000Y-114250000D03*
%TD*%
%TO.C,C75*%
X133095000Y-109950000D03*
X132405000Y-109950000D03*
%TD*%
D11*
%TO.C,R22*%
X132505000Y-107650000D03*
X133195000Y-107650000D03*
%TD*%
D12*
%TO.C,OSC2*%
X131250000Y-110750000D03*
X131250000Y-112550000D03*
X132450000Y-112550000D03*
X132450000Y-110750000D03*
%TD*%
D20*
%TO.C,U16*%
X137250000Y-107000000D03*
X137750000Y-107000000D03*
X138250000Y-107000000D03*
X138750000Y-107000000D03*
D21*
X139450000Y-106300000D03*
X139450000Y-105800000D03*
X139450000Y-105300000D03*
X139450000Y-104800000D03*
D20*
X138750000Y-104100000D03*
X138250000Y-104100000D03*
X137750000Y-104100000D03*
X137250000Y-104100000D03*
D21*
X136550000Y-104800000D03*
X136550000Y-105300000D03*
X136550000Y-105800000D03*
X136550000Y-106300000D03*
D22*
X138000000Y-105550000D03*
%TD*%
D10*
%TO.C,C67*%
X125895000Y-103350000D03*
X125205000Y-103350000D03*
%TD*%
%TO.C,C24*%
X102485000Y-103650000D03*
X103175000Y-103650000D03*
%TD*%
D22*
%TO.C,U7*%
X115000000Y-105550000D03*
D21*
X113550000Y-106300000D03*
X113550000Y-105800000D03*
X113550000Y-105300000D03*
X113550000Y-104800000D03*
D20*
X114250000Y-104100000D03*
X114750000Y-104100000D03*
X115250000Y-104100000D03*
X115750000Y-104100000D03*
D21*
X116450000Y-104800000D03*
X116450000Y-105300000D03*
X116450000Y-105800000D03*
X116450000Y-106300000D03*
D20*
X115750000Y-107000000D03*
X115250000Y-107000000D03*
X114750000Y-107000000D03*
X114250000Y-107000000D03*
%TD*%
D12*
%TO.C,OSC1*%
X109450000Y-110750000D03*
X109450000Y-112550000D03*
X108250000Y-112550000D03*
X108250000Y-110750000D03*
%TD*%
D11*
%TO.C,R10*%
X110195000Y-107650000D03*
X109505000Y-107650000D03*
%TD*%
D10*
%TO.C,C33*%
X109405000Y-109950000D03*
X110095000Y-109950000D03*
%TD*%
%TO.C,C20*%
X104705000Y-114250000D03*
X105395000Y-114250000D03*
%TD*%
D31*
%TO.C,U8*%
X110970000Y-105500000D03*
X110970000Y-105000000D03*
X110970000Y-104500000D03*
D30*
X111400000Y-104070000D03*
X111900000Y-104070000D03*
X112400000Y-104070000D03*
D31*
X112830000Y-104500000D03*
X112830000Y-105000000D03*
X112830000Y-105500000D03*
D30*
X112400000Y-105930000D03*
X111900000Y-105930000D03*
X111400000Y-105930000D03*
D29*
X112090000Y-104810000D03*
X111710000Y-104810000D03*
X112090000Y-105190000D03*
X111710000Y-105190000D03*
%TD*%
D31*
%TO.C,U5*%
X103700000Y-104150000D03*
X103700000Y-103650000D03*
X103700000Y-103150000D03*
D30*
X104130000Y-102720000D03*
X104630000Y-102720000D03*
X105130000Y-102720000D03*
D31*
X105560000Y-103150000D03*
X105560000Y-103650000D03*
X105560000Y-104150000D03*
D30*
X105130000Y-104580000D03*
X104630000Y-104580000D03*
X104130000Y-104580000D03*
D29*
X104820000Y-103460000D03*
X104440000Y-103460000D03*
X104820000Y-103840000D03*
X104440000Y-103840000D03*
%TD*%
D25*
%TO.C,C11*%
X107600000Y-115030000D03*
X107600000Y-114070000D03*
%TD*%
D19*
%TO.C,U6*%
X111450000Y-110000000D03*
X111950000Y-110000000D03*
X112450000Y-110000000D03*
X112950000Y-110000000D03*
X113450000Y-110000000D03*
X113950000Y-110000000D03*
X114450000Y-110000000D03*
X114950000Y-110000000D03*
D18*
X115650000Y-110700000D03*
X115650000Y-111200000D03*
X115650000Y-111700000D03*
X115650000Y-112200000D03*
X115650000Y-112700000D03*
X115650000Y-113200000D03*
X115650000Y-113700000D03*
X115650000Y-114200000D03*
D19*
X114950000Y-114900000D03*
X114450000Y-114900000D03*
X113950000Y-114900000D03*
X113450000Y-114900000D03*
X112950000Y-114900000D03*
X112450000Y-114900000D03*
X111950000Y-114900000D03*
X111450000Y-114900000D03*
D18*
X110750000Y-114200000D03*
X110750000Y-113700000D03*
X110750000Y-113200000D03*
X110750000Y-112700000D03*
X110750000Y-112200000D03*
X110750000Y-111700000D03*
X110750000Y-111200000D03*
X110750000Y-110700000D03*
D17*
X113950000Y-113200000D03*
X113950000Y-111700000D03*
X112450000Y-113200000D03*
X112450000Y-111700000D03*
%TD*%
D11*
%TO.C,R9*%
X109745000Y-113400000D03*
X109055000Y-113400000D03*
%TD*%
D10*
%TO.C,C42*%
X113355000Y-103200000D03*
X114045000Y-103200000D03*
%TD*%
D19*
%TO.C,U3*%
X102850000Y-108350000D03*
X103350000Y-108350000D03*
X103850000Y-108350000D03*
X104350000Y-108350000D03*
X104850000Y-108350000D03*
X105350000Y-108350000D03*
X105850000Y-108350000D03*
X106350000Y-108350000D03*
D18*
X107050000Y-109050000D03*
X107050000Y-109550000D03*
X107050000Y-110050000D03*
X107050000Y-110550000D03*
X107050000Y-111050000D03*
X107050000Y-111550000D03*
X107050000Y-112050000D03*
X107050000Y-112550000D03*
D19*
X106350000Y-113250000D03*
X105850000Y-113250000D03*
X105350000Y-113250000D03*
X104850000Y-113250000D03*
X104350000Y-113250000D03*
X103850000Y-113250000D03*
X103350000Y-113250000D03*
X102850000Y-113250000D03*
D18*
X102150000Y-112550000D03*
X102150000Y-112050000D03*
X102150000Y-111550000D03*
X102150000Y-111050000D03*
X102150000Y-110550000D03*
X102150000Y-110050000D03*
X102150000Y-109550000D03*
X102150000Y-109050000D03*
D17*
X105350000Y-111550000D03*
X105350000Y-110050000D03*
X103850000Y-111550000D03*
X103850000Y-110050000D03*
%TD*%
D10*
%TO.C,C38*%
X112755000Y-115900000D03*
X113445000Y-115900000D03*
%TD*%
%TO.C,C14*%
X100455000Y-109000000D03*
X101145000Y-109000000D03*
%TD*%
%TO.C,C15*%
X100455000Y-109700000D03*
X101145000Y-109700000D03*
%TD*%
D40*
%TO.C,FL1*%
X106950000Y-106950000D03*
D39*
X107530000Y-107250000D03*
D40*
X106950000Y-107550000D03*
D39*
X106370000Y-107250000D03*
%TD*%
D11*
%TO.C,C37*%
X115595000Y-115900000D03*
X114905000Y-115900000D03*
%TD*%
D10*
%TO.C,C23*%
X106105000Y-102100000D03*
X106795000Y-102100000D03*
%TD*%
D44*
%TO.C,FL2*%
X114790192Y-108250000D03*
D43*
X115340000Y-107897705D03*
D44*
X115309808Y-108550000D03*
D43*
X114760000Y-108902295D03*
%TD*%
D16*
%TO.C,R11*%
X116600000Y-107455000D03*
X116600000Y-108145000D03*
%TD*%
D14*
%TO.C,T2*%
X111000000Y-107700000D03*
D13*
X111250000Y-106950000D03*
X111750000Y-106950000D03*
X112250000Y-106950000D03*
X112750000Y-106950000D03*
D14*
X113000000Y-107700000D03*
D13*
X112750000Y-108450000D03*
X112250000Y-108450000D03*
X111750000Y-108450000D03*
X111250000Y-108450000D03*
%TD*%
D15*
%TO.C,C2*%
X100850000Y-107595000D03*
X100850000Y-106905000D03*
%TD*%
D10*
%TO.C,C19*%
X100805000Y-108300000D03*
X101495000Y-108300000D03*
%TD*%
D22*
%TO.C,U4*%
X107950000Y-104900000D03*
D21*
X106500000Y-105650000D03*
X106500000Y-105150000D03*
X106500000Y-104650000D03*
X106500000Y-104150000D03*
D20*
X107200000Y-103450000D03*
X107700000Y-103450000D03*
X108200000Y-103450000D03*
X108700000Y-103450000D03*
D21*
X109400000Y-104150000D03*
X109400000Y-104650000D03*
X109400000Y-105150000D03*
X109400000Y-105650000D03*
D20*
X108700000Y-106350000D03*
X108200000Y-106350000D03*
X107700000Y-106350000D03*
X107200000Y-106350000D03*
%TD*%
D10*
%TO.C,C34*%
X107700000Y-113400000D03*
X108390000Y-113400000D03*
%TD*%
D11*
%TO.C,C13*%
X108745000Y-109950000D03*
X108055000Y-109950000D03*
%TD*%
D15*
%TO.C,R12*%
X116600000Y-103645000D03*
X116600000Y-102955000D03*
%TD*%
%TO.C,C39*%
X108700000Y-109195000D03*
X108700000Y-108505000D03*
%TD*%
D32*
%TO.C,L7*%
X110485000Y-108500000D03*
X109515000Y-108500000D03*
%TD*%
D15*
%TO.C,R7*%
X110600000Y-102995000D03*
X110600000Y-102305000D03*
%TD*%
D11*
%TO.C,R1*%
X102345000Y-106350000D03*
X101655000Y-106350000D03*
%TD*%
D15*
%TO.C,C7*%
X101150000Y-112895000D03*
X101150000Y-112205000D03*
%TD*%
D16*
%TO.C,R6*%
X101150000Y-110805000D03*
X101150000Y-111495000D03*
%TD*%
D32*
%TO.C,L5*%
X102635000Y-107200000D03*
X101665000Y-107200000D03*
%TD*%
D15*
%TO.C,R8*%
X109900000Y-103445000D03*
X109900000Y-102755000D03*
%TD*%
D14*
%TO.C,T1*%
X103150000Y-106400000D03*
D13*
X103400000Y-105650000D03*
X103900000Y-105650000D03*
X104400000Y-105650000D03*
X104900000Y-105650000D03*
D14*
X105150000Y-106400000D03*
D13*
X104900000Y-107150000D03*
X104400000Y-107150000D03*
X103900000Y-107150000D03*
X103400000Y-107150000D03*
%TD*%
M02*
