%TF.GenerationSoftware,KiCad,Pcbnew,10.0.2*%
%TF.CreationDate,2026-05-13T13:08:23+02:00*%
%TF.ProjectId,OpenRX-all,4f70656e-5258-42d6-916c-6c2e6b696361,rev?*%
%TF.SameCoordinates,Original*%
%TF.FileFunction,Paste,Bot*%
%TF.FilePolarity,Positive*%
%FSLAX46Y46*%
G04 Gerber Fmt 4.6, Leading zero omitted, Abs format (unit mm)*
G04 Created by KiCad (PCBNEW 10.0.2) date 2026-05-13 13:08:23*
%MOMM*%
%LPD*%
G01*
G04 APERTURE LIST*
G04 Aperture macros list*
%AMRoundRect*
0 Rectangle with rounded corners*
0 $1 Rounding radius*
0 $2 $3 $4 $5 $6 $7 $8 $9 X,Y pos of 4 corners*
0 Add a 4 corners polygon primitive as box body*
4,1,4,$2,$3,$4,$5,$6,$7,$8,$9,$2,$3,0*
0 Add four circle primitives for the rounded corners*
1,1,$1+$1,$2,$3*
1,1,$1+$1,$4,$5*
1,1,$1+$1,$6,$7*
1,1,$1+$1,$8,$9*
0 Add four rect primitives between the rounded corners*
20,1,$1+$1,$2,$3,$4,$5,0*
20,1,$1+$1,$4,$5,$6,$7,0*
20,1,$1+$1,$6,$7,$8,$9,0*
20,1,$1+$1,$8,$9,$2,$3,0*%
%AMRotRect*
0 Rectangle, with rotation*
0 The origin of the aperture is its center*
0 $1 length*
0 $2 width*
0 $3 Rotation angle, in degrees counterclockwise*
0 Add horizontal line*
21,1,$1,$2,0,0,$3*%
%AMFreePoly0*
4,1,15,0.020663,0.130920,0.194661,-0.004411,0.209153,-0.029894,0.209200,-0.030649,0.209200,-0.105861,0.199435,-0.129435,0.175862,-0.139200,-0.175862,-0.139200,-0.199435,-0.129435,-0.209200,-0.105861,-0.209200,0.105861,-0.199435,0.129435,-0.175862,0.139200,-0.003468,0.139200,0.020663,0.130920,0.020663,0.130920,$1*%
%AMFreePoly1*
4,1,15,0.199435,0.139435,0.209200,0.115861,0.209200,0.044138,0.197979,0.017050,0.197419,0.016556,0.020663,-0.120920,-0.003468,-0.129200,-0.175862,-0.129200,-0.199435,-0.119435,-0.209200,-0.095861,-0.209200,0.115861,-0.199435,0.139435,-0.175862,0.149200,0.175862,0.149200,0.199435,0.139435,0.199435,0.139435,$1*%
%AMFreePoly2*
4,1,15,0.199435,0.139435,0.209200,0.115861,0.209200,-0.095861,0.199435,-0.119435,0.175862,-0.129200,0.003468,-0.129200,-0.020663,-0.120920,-0.194661,0.014411,-0.209153,0.039894,-0.209200,0.040649,-0.209200,0.115861,-0.199435,0.139435,-0.175862,0.149200,0.175862,0.149200,0.199435,0.139435,0.199435,0.139435,$1*%
%AMFreePoly3*
4,1,15,0.199435,0.129435,0.209200,0.105861,0.209200,-0.105861,0.199435,-0.129435,0.175862,-0.139200,-0.175862,-0.139200,-0.199435,-0.129435,-0.209200,-0.105861,-0.209200,-0.034138,-0.197979,-0.007050,-0.197419,-0.006556,-0.020663,0.130920,0.003468,0.139200,0.175862,0.139200,0.199435,0.129435,0.199435,0.129435,$1*%
G04 Aperture macros list end*
%ADD10RoundRect,0.079500X0.100500X-0.079500X0.100500X0.079500X-0.100500X0.079500X-0.100500X-0.079500X0*%
%ADD11RoundRect,0.079500X0.079500X0.100500X-0.079500X0.100500X-0.079500X-0.100500X0.079500X-0.100500X0*%
%ADD12RoundRect,0.107600X-0.107600X-0.132800X0.107600X-0.132800X0.107600X0.132800X-0.107600X0.132800X0*%
%ADD13RoundRect,0.079500X-0.079500X-0.100500X0.079500X-0.100500X0.079500X0.100500X-0.079500X0.100500X0*%
%ADD14RoundRect,0.167785X0.332215X0.332215X-0.332215X0.332215X-0.332215X-0.332215X0.332215X-0.332215X0*%
%ADD15RoundRect,0.042500X0.273500X0.042500X-0.273500X0.042500X-0.273500X-0.042500X0.273500X-0.042500X0*%
%ADD16RoundRect,0.042500X0.252500X0.042500X-0.252500X0.042500X-0.252500X-0.042500X0.252500X-0.042500X0*%
%ADD17RoundRect,0.042500X0.042500X0.273500X-0.042500X0.273500X-0.042500X-0.273500X0.042500X-0.273500X0*%
%ADD18RoundRect,0.079500X-0.100500X0.079500X-0.100500X-0.079500X0.100500X-0.079500X0.100500X0.079500X0*%
%ADD19R,1.430000X0.800000*%
%ADD20RoundRect,0.173750X0.173750X0.205250X-0.173750X0.205250X-0.173750X-0.205250X0.173750X-0.205250X0*%
%ADD21FreePoly0,270.000000*%
%ADD22FreePoly1,270.000000*%
%ADD23FreePoly2,270.000000*%
%ADD24FreePoly3,270.000000*%
%ADD25RotRect,0.363200X0.363200X225.000000*%
%ADD26R,0.573200X0.464000*%
%ADD27R,0.548000X0.716000*%
%ADD28R,0.800000X1.430000*%
%ADD29RoundRect,0.131750X0.352250X-0.131750X0.352250X0.131750X-0.352250X0.131750X-0.352250X-0.131750X0*%
%ADD30FreePoly0,180.000000*%
%ADD31FreePoly1,180.000000*%
%ADD32FreePoly2,180.000000*%
%ADD33FreePoly3,180.000000*%
%ADD34RotRect,0.363200X0.363200X135.000000*%
%ADD35RoundRect,0.218121X0.431879X-0.431879X0.431879X0.431879X-0.431879X0.431879X-0.431879X-0.431879X0*%
%ADD36RoundRect,0.042500X0.042500X-0.273500X0.042500X0.273500X-0.042500X0.273500X-0.042500X-0.273500X0*%
%ADD37RoundRect,0.042500X0.273500X-0.042500X0.273500X0.042500X-0.273500X0.042500X-0.273500X-0.042500X0*%
%ADD38R,0.312800X0.464000*%
%ADD39R,0.422000X0.531200*%
%ADD40RoundRect,0.167785X0.332215X-0.332215X0.332215X0.332215X-0.332215X0.332215X-0.332215X-0.332215X0*%
%ADD41RoundRect,0.200476X0.703524X0.220524X-0.703524X0.220524X-0.703524X-0.220524X0.703524X-0.220524X0*%
%ADD42RoundRect,0.200000X0.221000X0.200000X-0.221000X0.200000X-0.221000X-0.200000X0.221000X-0.200000X0*%
%ADD43R,0.338000X0.338000*%
%ADD44RoundRect,0.179000X0.179000X0.221000X-0.179000X0.221000X-0.179000X-0.221000X0.179000X-0.221000X0*%
G04 APERTURE END LIST*
D10*
%TO.C,C139*%
X150950000Y-105845000D03*
X150950000Y-105155000D03*
%TD*%
D11*
%TO.C,C155*%
X148495000Y-109500000D03*
X147805000Y-109500000D03*
%TD*%
D12*
%TO.C,C144*%
X145570000Y-114950000D03*
X146530000Y-114950000D03*
%TD*%
D13*
%TO.C,C153*%
X145905000Y-112500000D03*
X146595000Y-112500000D03*
%TD*%
%TO.C,R36*%
X152605000Y-114950000D03*
X153295000Y-114950000D03*
%TD*%
D11*
%TO.C,C164*%
X148645000Y-114650000D03*
X147955000Y-114650000D03*
%TD*%
D12*
%TO.C,C154*%
X145570000Y-111650000D03*
X146530000Y-111650000D03*
%TD*%
D13*
%TO.C,C141*%
X153105000Y-112750000D03*
X153795000Y-112750000D03*
%TD*%
%TO.C,R34*%
X146105000Y-110700000D03*
X146795000Y-110700000D03*
%TD*%
%TO.C,C157*%
X151805000Y-104750000D03*
X152495000Y-104750000D03*
%TD*%
%TO.C,C165*%
X153905000Y-105850000D03*
X154595000Y-105850000D03*
%TD*%
D10*
%TO.C,C146*%
X145400000Y-114095000D03*
X145400000Y-113405000D03*
%TD*%
D14*
%TO.C,U25*%
X152700000Y-110050000D03*
X152700000Y-108550000D03*
X151200000Y-110050000D03*
X151200000Y-108550000D03*
D15*
X154400000Y-107550000D03*
X154400000Y-108050000D03*
X154400000Y-108550000D03*
D16*
X154425000Y-109050000D03*
D15*
X154400000Y-109550000D03*
X154400000Y-110050000D03*
X154400000Y-110550000D03*
X154400000Y-111050000D03*
D17*
X153700000Y-111750000D03*
X153200000Y-111750000D03*
X152700000Y-111750000D03*
X152200000Y-111750000D03*
X151700000Y-111750000D03*
X151200000Y-111750000D03*
X150700000Y-111750000D03*
X150200000Y-111750000D03*
D15*
X149500000Y-111050000D03*
X149500000Y-110550000D03*
X149500000Y-109550000D03*
X149500000Y-109050000D03*
X149500000Y-108550000D03*
X149500000Y-108050000D03*
X149500000Y-107550000D03*
D17*
X150200000Y-106850000D03*
X151200000Y-106850000D03*
X151700000Y-106850000D03*
X152200000Y-106850000D03*
X152700000Y-106850000D03*
X153200000Y-106850000D03*
X153700000Y-106850000D03*
%TD*%
D13*
%TO.C,C167*%
X151805000Y-104050000D03*
X152495000Y-104050000D03*
%TD*%
D18*
%TO.C,C137*%
X148150000Y-104955000D03*
X148150000Y-105645000D03*
%TD*%
D13*
%TO.C,C150*%
X147805000Y-110900000D03*
X148495000Y-110900000D03*
%TD*%
%TO.C,L24*%
X149655000Y-104150000D03*
X150345000Y-104150000D03*
%TD*%
D10*
%TO.C,C152*%
X152212500Y-113995000D03*
X152212500Y-113305000D03*
%TD*%
D11*
%TO.C,R37*%
X148645000Y-113950000D03*
X147955000Y-113950000D03*
%TD*%
D19*
%TO.C,AE6*%
X146100000Y-103970000D03*
X146100000Y-107130000D03*
%TD*%
D20*
%TO.C,L23*%
X151337500Y-114000000D03*
X149762500Y-114000000D03*
%TD*%
D13*
%TO.C,C166*%
X153305000Y-103750000D03*
X153995000Y-103750000D03*
%TD*%
D18*
%TO.C,C142*%
X148850000Y-111805000D03*
X148850000Y-112495000D03*
%TD*%
D13*
%TO.C,C151*%
X147805000Y-110200000D03*
X148495000Y-110200000D03*
%TD*%
D21*
%TO.C,U26*%
X146030000Y-113220000D03*
D22*
X146670000Y-113220000D03*
D23*
X146670000Y-114080000D03*
D24*
X146030000Y-114080000D03*
D25*
X146350000Y-113650000D03*
%TD*%
D18*
%TO.C,R35*%
X146250000Y-108305000D03*
X146250000Y-108995000D03*
%TD*%
%TO.C,C163*%
X148150000Y-111605000D03*
X148150000Y-112295000D03*
%TD*%
%TO.C,L26*%
X153450000Y-104455000D03*
X153450000Y-105145000D03*
%TD*%
D26*
%TO.C,X5*%
X149000000Y-104950000D03*
X150100000Y-104950000D03*
X150100000Y-105750000D03*
X149000000Y-105750000D03*
%TD*%
D18*
%TO.C,C128*%
X179700000Y-114405000D03*
X179700000Y-115095000D03*
%TD*%
D10*
%TO.C,C127*%
X176950000Y-112845000D03*
X176950000Y-112155000D03*
%TD*%
D18*
%TO.C,C121*%
X180000000Y-107055000D03*
X180000000Y-107745000D03*
%TD*%
D11*
%TO.C,C126*%
X180345000Y-112300000D03*
X179655000Y-112300000D03*
%TD*%
%TO.C,C129*%
X183045000Y-113000000D03*
X182355000Y-113000000D03*
%TD*%
D27*
%TO.C,OSC4*%
X178850000Y-115000000D03*
X177050000Y-115000000D03*
X177050000Y-113800000D03*
X178850000Y-113800000D03*
%TD*%
D11*
%TO.C,C134*%
X177795000Y-111150000D03*
X177105000Y-111150000D03*
%TD*%
D13*
%TO.C,C119*%
X177005000Y-106950000D03*
X177695000Y-106950000D03*
%TD*%
D18*
%TO.C,R31*%
X179300000Y-107055000D03*
X179300000Y-107745000D03*
%TD*%
D13*
%TO.C,R30*%
X179305000Y-108450000D03*
X179995000Y-108450000D03*
%TD*%
%TO.C,C135*%
X177105000Y-110450000D03*
X177795000Y-110450000D03*
%TD*%
D10*
%TO.C,C123*%
X179700000Y-113695000D03*
X179700000Y-113005000D03*
%TD*%
D28*
%TO.C,AE4*%
X182620000Y-114350000D03*
X185780000Y-114350000D03*
%TD*%
D18*
%TO.C,R32*%
X179800000Y-110755000D03*
X179800000Y-111445000D03*
%TD*%
D29*
%TO.C,L22*%
X181100000Y-115062500D03*
X181100000Y-113137500D03*
%TD*%
D13*
%TO.C,L20*%
X183755000Y-113000000D03*
X184445000Y-113000000D03*
%TD*%
D10*
%TO.C,C136*%
X179800000Y-110045000D03*
X179800000Y-109355000D03*
%TD*%
D30*
%TO.C,U23*%
X177880000Y-107630000D03*
D31*
X177880000Y-108270000D03*
D32*
X177020000Y-108270000D03*
D33*
X177020000Y-107630000D03*
D34*
X177450000Y-107950000D03*
%TD*%
D11*
%TO.C,C122*%
X178945000Y-112750000D03*
X178255000Y-112750000D03*
%TD*%
D13*
%TO.C,C130*%
X185155000Y-113000000D03*
X185845000Y-113000000D03*
%TD*%
D35*
%TO.C,U22*%
X182575000Y-110425000D03*
X184325000Y-110425000D03*
X182575000Y-108675000D03*
X184325000Y-108675000D03*
D36*
X185200000Y-112000000D03*
X184700000Y-112000000D03*
X184200000Y-112000000D03*
X183700000Y-112000000D03*
X183200000Y-112000000D03*
X182700000Y-112000000D03*
X182200000Y-112000000D03*
X181700000Y-112000000D03*
D37*
X181000000Y-111300000D03*
X181000000Y-110800000D03*
X181000000Y-110300000D03*
X181000000Y-109800000D03*
X181000000Y-109300000D03*
X181000000Y-108800000D03*
X181000000Y-108300000D03*
X181000000Y-107800000D03*
D36*
X181700000Y-107100000D03*
X182200000Y-107100000D03*
X182700000Y-107100000D03*
X183200000Y-107100000D03*
X183700000Y-107100000D03*
X184200000Y-107100000D03*
X184700000Y-107100000D03*
X185200000Y-107100000D03*
D37*
X185900000Y-107800000D03*
X185900000Y-108300000D03*
X185900000Y-108800000D03*
X185900000Y-109300000D03*
X185900000Y-109800000D03*
X185900000Y-110300000D03*
X185900000Y-110800000D03*
X185900000Y-111300000D03*
%TD*%
D18*
%TO.C,C124*%
X178600000Y-107555000D03*
X178600000Y-108245000D03*
%TD*%
%TO.C,C103*%
X163700000Y-114405000D03*
X163700000Y-115095000D03*
%TD*%
D10*
%TO.C,C102*%
X160950000Y-112845000D03*
X160950000Y-112155000D03*
%TD*%
D18*
%TO.C,C96*%
X164000000Y-107055000D03*
X164000000Y-107745000D03*
%TD*%
D11*
%TO.C,C101*%
X164345000Y-112300000D03*
X163655000Y-112300000D03*
%TD*%
%TO.C,C104*%
X167045000Y-113000000D03*
X166355000Y-113000000D03*
%TD*%
D27*
%TO.C,OSC3*%
X162850000Y-115000000D03*
X161050000Y-115000000D03*
X161050000Y-113800000D03*
X162850000Y-113800000D03*
%TD*%
D11*
%TO.C,C109*%
X161795000Y-111150000D03*
X161105000Y-111150000D03*
%TD*%
D13*
%TO.C,C94*%
X161005000Y-106950000D03*
X161695000Y-106950000D03*
%TD*%
D18*
%TO.C,R27*%
X163300000Y-107055000D03*
X163300000Y-107745000D03*
%TD*%
D13*
%TO.C,R26*%
X163305000Y-108450000D03*
X163995000Y-108450000D03*
%TD*%
%TO.C,C110*%
X161105000Y-110450000D03*
X161795000Y-110450000D03*
%TD*%
D10*
%TO.C,C98*%
X163700000Y-113695000D03*
X163700000Y-113005000D03*
%TD*%
D28*
%TO.C,AE3*%
X166620000Y-114350000D03*
X169780000Y-114350000D03*
%TD*%
D18*
%TO.C,R28*%
X163800000Y-110755000D03*
X163800000Y-111445000D03*
%TD*%
D29*
%TO.C,L18*%
X165100000Y-115062500D03*
X165100000Y-113137500D03*
%TD*%
D13*
%TO.C,L16*%
X167755000Y-113000000D03*
X168445000Y-113000000D03*
%TD*%
D10*
%TO.C,C111*%
X163800000Y-110045000D03*
X163800000Y-109355000D03*
%TD*%
D30*
%TO.C,U20*%
X161880000Y-107630000D03*
D31*
X161880000Y-108270000D03*
D32*
X161020000Y-108270000D03*
D33*
X161020000Y-107630000D03*
D34*
X161450000Y-107950000D03*
%TD*%
D11*
%TO.C,C97*%
X162945000Y-112750000D03*
X162255000Y-112750000D03*
%TD*%
D13*
%TO.C,C105*%
X169155000Y-113000000D03*
X169845000Y-113000000D03*
%TD*%
D35*
%TO.C,U19*%
X166575000Y-110425000D03*
X168325000Y-110425000D03*
X166575000Y-108675000D03*
X168325000Y-108675000D03*
D36*
X169200000Y-112000000D03*
X168700000Y-112000000D03*
X168200000Y-112000000D03*
X167700000Y-112000000D03*
X167200000Y-112000000D03*
X166700000Y-112000000D03*
X166200000Y-112000000D03*
X165700000Y-112000000D03*
D37*
X165000000Y-111300000D03*
X165000000Y-110800000D03*
X165000000Y-110300000D03*
X165000000Y-109800000D03*
X165000000Y-109300000D03*
X165000000Y-108800000D03*
X165000000Y-108300000D03*
X165000000Y-107800000D03*
D36*
X165700000Y-107100000D03*
X166200000Y-107100000D03*
X166700000Y-107100000D03*
X167200000Y-107100000D03*
X167700000Y-107100000D03*
X168200000Y-107100000D03*
X168700000Y-107100000D03*
X169200000Y-107100000D03*
D37*
X169900000Y-107800000D03*
X169900000Y-108300000D03*
X169900000Y-108800000D03*
X169900000Y-109300000D03*
X169900000Y-109800000D03*
X169900000Y-110300000D03*
X169900000Y-110800000D03*
X169900000Y-111300000D03*
%TD*%
D18*
%TO.C,C99*%
X162600000Y-107555000D03*
X162600000Y-108245000D03*
%TD*%
D13*
%TO.C,C32*%
X136805000Y-112250000D03*
X137495000Y-112250000D03*
%TD*%
D11*
%TO.C,L10*%
X131545000Y-114550000D03*
X130855000Y-114550000D03*
%TD*%
%TO.C,L9*%
X137495000Y-112950000D03*
X136805000Y-112950000D03*
%TD*%
%TO.C,C65*%
X128295000Y-102800000D03*
X127605000Y-102800000D03*
%TD*%
D18*
%TO.C,R14*%
X124000000Y-113805000D03*
X124000000Y-114495000D03*
%TD*%
D10*
%TO.C,C59*%
X127800000Y-112545000D03*
X127800000Y-111855000D03*
%TD*%
D13*
%TO.C,C78*%
X135405000Y-111600000D03*
X136095000Y-111600000D03*
%TD*%
D19*
%TO.C,AE2*%
X138900000Y-113580000D03*
X138900000Y-110420000D03*
%TD*%
D13*
%TO.C,R15*%
X127805000Y-111150000D03*
X128495000Y-111150000D03*
%TD*%
%TO.C,C72*%
X133655000Y-114550000D03*
X134345000Y-114550000D03*
%TD*%
D11*
%TO.C,C52*%
X130195000Y-114650000D03*
X129505000Y-114650000D03*
%TD*%
D13*
%TO.C,C83*%
X136705000Y-105600000D03*
X137395000Y-105600000D03*
%TD*%
D11*
%TO.C,C49*%
X130045000Y-107650000D03*
X129355000Y-107650000D03*
%TD*%
D18*
%TO.C,C71*%
X125850000Y-113655000D03*
X125850000Y-114345000D03*
%TD*%
D13*
%TO.C,C70*%
X130755000Y-107650000D03*
X131445000Y-107650000D03*
%TD*%
%TO.C,C60*%
X124355000Y-110150000D03*
X125045000Y-110150000D03*
%TD*%
D10*
%TO.C,C53*%
X123700000Y-111745000D03*
X123700000Y-111055000D03*
%TD*%
D38*
%TO.C,U18*%
X139540000Y-108370000D03*
X139540000Y-107530000D03*
X136260000Y-108370000D03*
X136260000Y-107530000D03*
%TD*%
D13*
%TO.C,C47*%
X135405000Y-112300000D03*
X136095000Y-112300000D03*
%TD*%
%TO.C,C69*%
X135405000Y-113000000D03*
X136095000Y-113000000D03*
%TD*%
D18*
%TO.C,R17*%
X125150000Y-113655000D03*
X125150000Y-114345000D03*
%TD*%
D12*
%TO.C,C51*%
X123770000Y-112600000D03*
X124730000Y-112600000D03*
%TD*%
D11*
%TO.C,C85*%
X135845000Y-104400000D03*
X135155000Y-104400000D03*
%TD*%
D12*
%TO.C,C61*%
X124270000Y-109300000D03*
X125230000Y-109300000D03*
%TD*%
D20*
%TO.C,L8*%
X128487500Y-114000000D03*
X126912500Y-114000000D03*
%TD*%
D13*
%TO.C,R16*%
X138805000Y-106500000D03*
X139495000Y-106500000D03*
%TD*%
D10*
%TO.C,L11*%
X133650000Y-115945000D03*
X133650000Y-115255000D03*
%TD*%
D21*
%TO.C,U11*%
X124330000Y-110870000D03*
D22*
X124970000Y-110870000D03*
D23*
X124970000Y-111730000D03*
D24*
X124330000Y-111730000D03*
D25*
X124650000Y-111300000D03*
%TD*%
D11*
%TO.C,C46*%
X137495000Y-109650000D03*
X136805000Y-109650000D03*
%TD*%
D39*
%TO.C,X2*%
X136775000Y-111500000D03*
X136775000Y-110425000D03*
X137525000Y-110425000D03*
X137525000Y-111475000D03*
%TD*%
D20*
%TO.C,L13*%
X137237500Y-115150000D03*
X135662500Y-115150000D03*
%TD*%
D13*
%TO.C,C74*%
X129055000Y-104900000D03*
X129745000Y-104900000D03*
%TD*%
%TO.C,C68*%
X132255000Y-114550000D03*
X132945000Y-114550000D03*
%TD*%
D40*
%TO.C,U10*%
X131200000Y-111850000D03*
X132700000Y-111850000D03*
X131200000Y-110350000D03*
X132700000Y-110350000D03*
D36*
X133700000Y-113550000D03*
X133200000Y-113550000D03*
X132700000Y-113550000D03*
X132200000Y-113550000D03*
X131700000Y-113550000D03*
X131200000Y-113550000D03*
X130700000Y-113550000D03*
X130200000Y-113550000D03*
D37*
X129500000Y-112850000D03*
X129500000Y-112350000D03*
X129500000Y-111850000D03*
X129500000Y-111350000D03*
X129500000Y-110850000D03*
X129500000Y-110350000D03*
X129500000Y-109850000D03*
X129500000Y-109350000D03*
D36*
X130200000Y-108650000D03*
X130700000Y-108650000D03*
X131200000Y-108650000D03*
X131700000Y-108650000D03*
X132200000Y-108650000D03*
X132700000Y-108650000D03*
X133200000Y-108650000D03*
X133700000Y-108650000D03*
D37*
X134400000Y-109350000D03*
X134400000Y-109850000D03*
X134400000Y-110350000D03*
X134400000Y-110850000D03*
X134400000Y-111350000D03*
X134400000Y-111850000D03*
X134400000Y-112350000D03*
X134400000Y-112850000D03*
%TD*%
D13*
%TO.C,C77*%
X135405000Y-110900000D03*
X136095000Y-110900000D03*
%TD*%
%TO.C,C82*%
X136705000Y-106300000D03*
X137395000Y-106300000D03*
%TD*%
D10*
%TO.C,C73*%
X134350000Y-116295000D03*
X134350000Y-115605000D03*
%TD*%
D13*
%TO.C,C64*%
X129055000Y-105600000D03*
X129745000Y-105600000D03*
%TD*%
D18*
%TO.C,C48*%
X128500000Y-111855000D03*
X128500000Y-112545000D03*
%TD*%
%TO.C,C5*%
X105500000Y-112545000D03*
X105500000Y-111855000D03*
%TD*%
D13*
%TO.C,C21*%
X106315000Y-106000000D03*
X105625000Y-106000000D03*
%TD*%
D10*
%TO.C,C30*%
X111350000Y-115605000D03*
X111350000Y-116295000D03*
%TD*%
D13*
%TO.C,C40*%
X114395000Y-106300000D03*
X113705000Y-106300000D03*
%TD*%
%TO.C,C35*%
X113095000Y-110900000D03*
X112405000Y-110900000D03*
%TD*%
D37*
%TO.C,U1*%
X111400000Y-112850000D03*
X111400000Y-112350000D03*
X111400000Y-111850000D03*
X111400000Y-111350000D03*
X111400000Y-110850000D03*
X111400000Y-110350000D03*
X111400000Y-109850000D03*
X111400000Y-109350000D03*
D36*
X110700000Y-108650000D03*
X110200000Y-108650000D03*
X109700000Y-108650000D03*
X109200000Y-108650000D03*
X108700000Y-108650000D03*
X108200000Y-108650000D03*
X107700000Y-108650000D03*
X107200000Y-108650000D03*
D37*
X106500000Y-109350000D03*
X106500000Y-109850000D03*
X106500000Y-110350000D03*
X106500000Y-110850000D03*
X106500000Y-111350000D03*
X106500000Y-111850000D03*
X106500000Y-112350000D03*
X106500000Y-112850000D03*
D36*
X107200000Y-113550000D03*
X107700000Y-113550000D03*
X108200000Y-113550000D03*
X108700000Y-113550000D03*
X109200000Y-113550000D03*
X109700000Y-113550000D03*
X110200000Y-113550000D03*
X110700000Y-113550000D03*
D40*
X109700000Y-110350000D03*
X108200000Y-110350000D03*
X109700000Y-111850000D03*
X108200000Y-111850000D03*
%TD*%
D13*
%TO.C,C25*%
X109945000Y-114550000D03*
X109255000Y-114550000D03*
%TD*%
%TO.C,C31*%
X106315000Y-105300000D03*
X105625000Y-105300000D03*
%TD*%
D20*
%TO.C,L6*%
X112662500Y-115150000D03*
X114237500Y-115150000D03*
%TD*%
D11*
%TO.C,C44*%
X110405000Y-105000000D03*
X111095000Y-105000000D03*
%TD*%
D10*
%TO.C,C12*%
X102600000Y-106455000D03*
X102600000Y-107145000D03*
%TD*%
D39*
%TO.C,X1*%
X114525000Y-111475000D03*
X114525000Y-110425000D03*
X113775000Y-110425000D03*
X113775000Y-111500000D03*
%TD*%
D11*
%TO.C,C3*%
X113805000Y-109650000D03*
X114495000Y-109650000D03*
%TD*%
D25*
%TO.C,U2*%
X101650000Y-111300000D03*
D24*
X101330000Y-111730000D03*
D23*
X101970000Y-111730000D03*
D22*
X101970000Y-110870000D03*
D21*
X101330000Y-110870000D03*
%TD*%
D10*
%TO.C,L4*%
X110650000Y-115255000D03*
X110650000Y-115945000D03*
%TD*%
D13*
%TO.C,R4*%
X116495000Y-106500000D03*
X115805000Y-106500000D03*
%TD*%
D20*
%TO.C,L1*%
X103912500Y-114000000D03*
X105487500Y-114000000D03*
%TD*%
D12*
%TO.C,C18*%
X102230000Y-109300000D03*
X101270000Y-109300000D03*
%TD*%
D11*
%TO.C,C43*%
X112155000Y-104400000D03*
X112845000Y-104400000D03*
%TD*%
D12*
%TO.C,C8*%
X101730000Y-112600000D03*
X100770000Y-112600000D03*
%TD*%
D18*
%TO.C,R5*%
X102150000Y-114345000D03*
X102150000Y-113655000D03*
%TD*%
D13*
%TO.C,C26*%
X113095000Y-113000000D03*
X112405000Y-113000000D03*
%TD*%
%TO.C,C4*%
X113095000Y-112300000D03*
X112405000Y-112300000D03*
%TD*%
D38*
%TO.C,U9*%
X113260000Y-107530000D03*
X113260000Y-108370000D03*
X116540000Y-107530000D03*
X116540000Y-108370000D03*
%TD*%
D10*
%TO.C,C10*%
X100700000Y-111055000D03*
X100700000Y-111745000D03*
%TD*%
D13*
%TO.C,C17*%
X102045000Y-110150000D03*
X101355000Y-110150000D03*
%TD*%
D41*
%TO.C,J1*%
X101300000Y-102175000D03*
X101300000Y-105125000D03*
D42*
X102825000Y-103650000D03*
%TD*%
D13*
%TO.C,C27*%
X108445000Y-107650000D03*
X107755000Y-107650000D03*
%TD*%
D18*
%TO.C,C28*%
X102850000Y-114345000D03*
X102850000Y-113655000D03*
%TD*%
D11*
%TO.C,C6*%
X106355000Y-107650000D03*
X107045000Y-107650000D03*
%TD*%
D13*
%TO.C,C41*%
X114395000Y-105600000D03*
X113705000Y-105600000D03*
%TD*%
D11*
%TO.C,C9*%
X106505000Y-114650000D03*
X107195000Y-114650000D03*
%TD*%
D43*
%TO.C,D1*%
X101870000Y-106330000D03*
X101030000Y-106330000D03*
X101870000Y-107170000D03*
X101030000Y-107170000D03*
%TD*%
D13*
%TO.C,C29*%
X111345000Y-114550000D03*
X110655000Y-114550000D03*
%TD*%
%TO.C,R3*%
X105495000Y-111150000D03*
X104805000Y-111150000D03*
%TD*%
D19*
%TO.C,AE1*%
X115900000Y-110420000D03*
X115900000Y-113580000D03*
%TD*%
D13*
%TO.C,C36*%
X113095000Y-111600000D03*
X112405000Y-111600000D03*
%TD*%
D10*
%TO.C,C16*%
X104800000Y-111855000D03*
X104800000Y-112545000D03*
%TD*%
D18*
%TO.C,R2*%
X101000000Y-114495000D03*
X101000000Y-113805000D03*
%TD*%
D11*
%TO.C,C22*%
X104655000Y-103250000D03*
X105345000Y-103250000D03*
%TD*%
%TO.C,L2*%
X113805000Y-112950000D03*
X114495000Y-112950000D03*
%TD*%
D41*
%TO.C,J2*%
X108137500Y-103525000D03*
X108137500Y-106475000D03*
D44*
X109587500Y-105000000D03*
%TD*%
D11*
%TO.C,L3*%
X107855000Y-114550000D03*
X108545000Y-114550000D03*
%TD*%
D13*
%TO.C,C1*%
X114495000Y-112250000D03*
X113805000Y-112250000D03*
%TD*%
M02*
