%TF.GenerationSoftware,KiCad,Pcbnew,10.0.2*%
%TF.CreationDate,2026-05-13T13:08:24+02:00*%
%TF.ProjectId,OpenRX-all,4f70656e-5258-42d6-916c-6c2e6b696361,rev?*%
%TF.SameCoordinates,Original*%
%TF.FileFunction,Profile,NP*%
%FSLAX46Y46*%
G04 Gerber Fmt 4.6, Leading zero omitted, Abs format (unit mm)*
G04 Created by KiCad (PCBNEW 10.0.2) date 2026-05-13 13:08:24*
%MOMM*%
%LPD*%
G01*
G04 APERTURE LIST*
%TA.AperFunction,Profile*%
%ADD10C,0.100000*%
%TD*%
G04 APERTURE END LIST*
D10*
X117350000Y-116150000D02*
X122650000Y-116150000D01*
X155000000Y-106950000D02*
X155000000Y-101100000D01*
X160150000Y-107300000D02*
X155350000Y-107300000D01*
X170850000Y-107300000D02*
X176150000Y-107300000D01*
X170850000Y-116200000D02*
X176150000Y-116200000D01*
X155000000Y-116550000D02*
X155000000Y-116600000D01*
X160150000Y-116200000D02*
X155350000Y-116200000D01*
X144650000Y-116150000D02*
X140350000Y-116150000D01*
X145000000Y-116500000D02*
X145000000Y-116600000D01*
X144650000Y-116150000D02*
G75*
G02*
X145000000Y-116500000I-1J-350001D01*
G01*
X140350000Y-101450000D02*
X144650000Y-101450000D01*
X140000000Y-99900000D02*
X140000000Y-101100000D01*
X123000000Y-101750000D02*
X123000000Y-99900000D01*
X117350000Y-102100000D02*
X122650000Y-102100000D01*
X170850000Y-107300000D02*
G75*
G02*
X170500000Y-106950000I1J350001D01*
G01*
X176500000Y-106950000D02*
G75*
G02*
X176150000Y-107300000I-350001J1D01*
G01*
X176150000Y-116200000D02*
G75*
G02*
X176500000Y-116550000I-1J-350001D01*
G01*
X170500000Y-116550000D02*
G75*
G02*
X170850000Y-116200000I350001J-1D01*
G01*
X155350000Y-107300000D02*
G75*
G02*
X155000000Y-106950000I1J350001D01*
G01*
X160500000Y-106950000D02*
G75*
G02*
X160150000Y-107300000I-350001J1D01*
G01*
X160150000Y-116200000D02*
G75*
G02*
X160500000Y-116550000I-1J-350001D01*
G01*
X155000000Y-116550000D02*
G75*
G02*
X155350000Y-116200000I350001J-1D01*
G01*
X140000000Y-116500000D02*
G75*
G02*
X140350000Y-116150000I350001J-1D01*
G01*
X140350000Y-101450000D02*
G75*
G02*
X140000000Y-101100000I1J350001D01*
G01*
X145000000Y-101100000D02*
G75*
G02*
X144650000Y-101450000I-350001J1D01*
G01*
X123000000Y-101750000D02*
G75*
G02*
X122650000Y-102100000I-350001J1D01*
G01*
X122650000Y-116150000D02*
G75*
G02*
X123000000Y-116500000I-1J-350001D01*
G01*
X117000000Y-116500000D02*
G75*
G02*
X117350000Y-116150000I350001J-1D01*
G01*
X117350000Y-102100000D02*
G75*
G02*
X117000000Y-101750000I0J350000D01*
G01*
X100500000Y-117000000D02*
G75*
G02*
X100000000Y-116500000I0J500000D01*
G01*
X100000000Y-101750000D02*
G75*
G02*
X100500000Y-101250000I500000J0D01*
G01*
X116500000Y-101250000D02*
G75*
G02*
X117000000Y-101750000I0J-500000D01*
G01*
X117000000Y-116500000D02*
G75*
G02*
X116500000Y-117000000I-500000J0D01*
G01*
X123500000Y-117000000D02*
G75*
G02*
X123000000Y-116500000I0J500000D01*
G01*
X140000000Y-116500000D02*
G75*
G02*
X139500000Y-117000000I-500000J0D01*
G01*
X123000000Y-99900000D02*
G75*
G02*
X123500000Y-99400000I500000J0D01*
G01*
X139500000Y-99400000D02*
G75*
G02*
X140000000Y-99900000I0J-500000D01*
G01*
X145000000Y-101100000D02*
G75*
G02*
X145400000Y-100700000I400000J0D01*
G01*
X154600000Y-100700000D02*
G75*
G02*
X155000000Y-101100000I0J-400000D01*
G01*
X155000000Y-116600000D02*
G75*
G02*
X154600000Y-117000000I-400000J0D01*
G01*
X145400000Y-117000000D02*
G75*
G02*
X145000000Y-116600000I0J400000D01*
G01*
X160950000Y-117000000D02*
G75*
G02*
X160500000Y-116550000I0J450000D01*
G01*
X160500000Y-106950000D02*
G75*
G02*
X160950000Y-106500000I450000J0D01*
G01*
X170050000Y-106500000D02*
G75*
G02*
X170500000Y-106950000I0J-450000D01*
G01*
X170500000Y-116550000D02*
G75*
G02*
X170050000Y-117000000I-450000J0D01*
G01*
X176500000Y-106950000D02*
G75*
G02*
X176950000Y-106500000I450000J0D01*
G01*
X176950000Y-117000000D02*
G75*
G02*
X176500000Y-116550000I0J450000D01*
G01*
X186500000Y-116550000D02*
G75*
G02*
X186050000Y-117000000I-450000J0D01*
G01*
X186050000Y-106500000D02*
G75*
G02*
X186500000Y-106950000I0J-450000D01*
G01*
X145400000Y-100700000D02*
X154600000Y-100700000D01*
X170050000Y-106500000D02*
X160950000Y-106500000D01*
X186050000Y-106500000D02*
X176950000Y-106500000D01*
X186500000Y-116550000D02*
X186500000Y-106950000D01*
X176950000Y-117000000D02*
X186050000Y-117000000D01*
X160950000Y-117000000D02*
X170050000Y-117000000D01*
X145400000Y-117000000D02*
X154600000Y-117000000D01*
X123500000Y-117000000D02*
X139500000Y-117000000D01*
X123500000Y-99400000D02*
X139500000Y-99400000D01*
X100500000Y-101250000D02*
X116500000Y-101250000D01*
X100000000Y-116500000D02*
X100000000Y-101750000D01*
X100500000Y-117000000D02*
X116500000Y-117000000D01*
M02*
